<?xml version="1.0" encoding="UTF-8"?>
<svg version="1.1" xmlns="http://www.w3.org/2000/svg" width="500" height="500">
<path d="M0 0 C3.66921056 3.07620684 5.18610428 5.81568918 6.5625 10.375 C6.5625 11.365 6.5625 12.355 6.5625 13.375 C7.54645752 13.35928955 7.54645752 13.35928955 8.55029297 13.34326172 C11.51265658 13.30177497 14.47495916 13.27569738 17.4375 13.25 C18.47003906 13.23324219 19.50257813 13.21648437 20.56640625 13.19921875 C21.55253906 13.19277344 22.53867187 13.18632812 23.5546875 13.1796875 C24.92149658 13.16397705 24.92149658 13.16397705 26.31591797 13.14794922 C28.5625 13.375 28.5625 13.375 30.5625 15.375 C30.9765625 18.1953125 30.9765625 18.1953125 31.1875 21.5 C31.29964844 23.14355469 31.29964844 23.14355469 31.4140625 24.8203125 C31.46304688 25.66335937 31.51203125 26.50640625 31.5625 27.375 C32.68893921 27.3435791 32.68893921 27.3435791 33.83813477 27.31152344 C37.26695164 27.2279647 40.69555369 27.17621306 44.125 27.125 C45.89713867 27.07472656 45.89713867 27.07472656 47.70507812 27.0234375 C54.56216292 26.94660742 59.05508778 27.12841389 64.5625 31.375 C66.81959039 34.36018407 67.5625 35.62418828 67.5625 39.375 C68.2225 39.375 68.8825 39.375 69.5625 39.375 C69.5625 38.715 69.5625 38.055 69.5625 37.375 C70.2225 37.375 70.8825 37.375 71.5625 37.375 C71.830625 36.776875 72.09875 36.17875 72.375 35.5625 C74.48644532 31.67299547 77.04674082 29.61880367 81.2109375 27.953125 C87.79381555 26.33474302 95.7102521 26.11095063 102 28.875 C108.1572873 32.62750986 112.97354615 38.41830734 115.125 45.31640625 C116.73465425 52.89040439 115.58905632 59.72103558 111.5625 66.375 C105.90070821 72.59777666 101.04391547 76.44149666 92.5234375 76.90625 C91.79382813 76.9371875 91.06421875 76.968125 90.3125 77 C89.56742188 77.03867188 88.82234375 77.07734375 88.0546875 77.1171875 C86.2243476 77.21105108 84.39345857 77.29409718 82.5625 77.375 C82.5625 78.035 82.5625 78.695 82.5625 79.375 C83.820625 79.41625 85.07875 79.4575 86.375 79.5 C88.58203125 79.77734375 88.58203125 79.77734375 90.5625 80.375 C92.85855155 83.46031927 93.47033294 85.71666385 94 89.5 C93.46285609 93.02980281 92.28693488 94.16139666 89.5625 96.375 C90.243125 97.055625 90.92375 97.73625 91.625 98.4375 C93.5625 101.375 93.5625 101.375 93.5 104.875 C91.91693038 110.78512658 91.91693038 110.78512658 89.5625 113.375 C85.875 113.6875 85.875 113.6875 82.5625 113.375 C81.58641783 116.30324652 81.48023332 118.33113276 81.5625 121.375 C80.34029263 122.05434107 79.10931549 122.71791523 77.875 123.375 C77.19050781 123.74625 76.50601563 124.1175 75.80078125 124.5 C73.24123879 125.50058902 71.28725184 125.4381369 68.5625 125.375 C68.62381024 133.74655859 68.70098706 142.11775873 68.79821491 150.4889698 C68.84287165 154.37641436 68.88213783 158.26375525 68.90893555 162.15136719 C68.93501583 165.90576287 68.97545086 169.65975866 69.02568626 173.4139061 C69.04232321 174.84351488 69.05385723 176.27319278 69.06011391 177.70288467 C69.06978867 179.71105235 69.09957427 181.71909223 69.13012695 183.72705078 C69.14123001 184.86844513 69.15233307 186.00983948 69.16377258 187.18582153 C69.61505627 190.79536569 70.8353388 193.19897327 72.5625 196.375 C73.72241315 201.8582258 74.1658553 207.78118052 73.5625 213.375 C71.5625 215.375 71.5625 215.375 69.65158081 215.61550903 C68.87436676 215.61106781 68.09715271 215.60662659 67.29638672 215.60205078 C66.41562469 215.60189972 65.53486267 215.60174866 64.62741089 215.60159302 C63.67528717 215.59127045 62.72316345 215.58094788 61.7421875 215.5703125 C60.76839142 215.5674826 59.79459534 215.56465271 58.79129028 215.56173706 C55.67323651 215.55051913 52.55546732 215.5254117 49.4375 215.5 C47.32682706 215.48997228 45.21614962 215.48084607 43.10546875 215.47265625 C37.92438165 215.45057458 32.74346115 215.41708129 27.5625 215.375 C27.5625 217.355 27.5625 219.335 27.5625 221.375 C24.61261247 222.84994377 21.62461449 222.52235642 18.390625 222.52026367 C17.28309875 222.52530159 17.28309875 222.52530159 16.15319824 222.53044128 C13.70628184 222.53996038 11.25943378 222.54189475 8.8125 222.54296875 C7.11621065 222.54618022 5.41992157 222.5495442 3.72363281 222.55305481 C0.16600909 222.55904816 -3.39159033 222.56089445 -6.94921875 222.56030273 C-11.51599414 222.560201 -16.08261444 222.57386416 -20.64935303 222.59107494 C-24.15283937 222.60217214 -27.65628792 222.60422266 -31.15979004 222.60369301 C-32.8439589 222.60487615 -34.52812864 222.60931654 -36.21228027 222.61702538 C-38.56350705 222.62678124 -40.91439318 222.62396509 -43.265625 222.61791992 C-43.96594849 222.62353943 -44.66627197 222.62915894 -45.38781738 222.63494873 C-50.20918284 222.60331716 -50.20918284 222.60331716 -52.4375 220.375 C-52.5625 217.75 -52.5625 217.75 -52.4375 215.375 C-53.75468018 215.39594727 -55.07186035 215.41689453 -56.42895508 215.43847656 C-61.30970413 215.51080443 -66.1904057 215.55677362 -71.0715332 215.59472656 C-73.18522097 215.61485847 -75.29885294 215.64216643 -77.41235352 215.67675781 C-80.44821935 215.72520627 -83.48334978 215.74795276 -86.51953125 215.765625 C-87.9399749 215.79659271 -87.9399749 215.79659271 -89.38911438 215.82818604 C-95.92665401 215.83042877 -95.92665401 215.83042877 -98.54174805 213.49902344 C-100.37674348 209.14784866 -99.34898761 204.88055614 -98.4375 200.375 C-97.63625964 198.5391875 -96.78989219 196.72257974 -95.90551758 194.92533875 C-92.85681659 187.78388663 -92.79779526 181.22225614 -92.94921875 173.56958008 C-92.95883947 172.12431639 -92.96614672 170.67903576 -92.97134399 169.23374939 C-92.9870276 166.14628638 -93.01817852 163.05952515 -93.06167603 159.97233009 C-93.12984845 155.08363428 -93.1588729 150.19516249 -93.18237305 145.30607605 C-93.23762697 134.93290909 -93.33535514 124.56029519 -93.4375 114.1875 C-93.5478307 102.97527975 -93.65063349 91.76328518 -93.7045908 80.55062979 C-93.72939458 75.69713741 -93.77851875 70.84470358 -93.84674072 65.99163592 C-93.88420439 62.96806434 -93.90064879 59.94463494 -93.9115715 56.9208622 C-93.92087992 55.52645722 -93.93878146 54.13207697 -93.96623611 52.73791122 C-94.12297638 44.51541007 -93.76242787 37.96519745 -88.4375 31.375 C-85.75 29.375 -85.75 29.375 -83.4375 28.375 C-82.7775 28.045 -82.1175 27.715 -81.4375 27.375 C-79.47975931 27.22121148 -77.51732648 27.12528537 -75.5546875 27.05859375 C-74.38808594 27.01669922 -73.22148437 26.97480469 -72.01953125 26.93164062 C-70.18455078 26.87266602 -70.18455078 26.87266602 -68.3125 26.8125 C-67.08144531 26.76931641 -65.85039062 26.72613281 -64.58203125 26.68164062 C-61.53397147 26.57531296 -58.4858281 26.47328219 -55.4375 26.375 C-55.48970703 25.48748047 -55.48970703 25.48748047 -55.54296875 24.58203125 C-55.66747273 20.94770092 -55.568684 17.85477624 -54.60546875 14.33203125 C-50.91071894 10.99677061 -46.51782243 11.85793996 -41.75 12.0625 C-40.76193359 12.08505859 -39.77386719 12.10761719 -38.75585938 12.13085938 C-36.31488441 12.18982012 -33.87695132 12.27204952 -31.4375 12.375 C-30.98632812 11.28703125 -30.53515625 10.1990625 -30.0703125 9.078125 C-28.18374025 4.52879078 -25.93074496 0.73270765 -21.46484375 -1.69921875 C-14.02397596 -4.59945117 -6.70682128 -4.58176619 0 0 Z M-22.4375 8.375 C-23.63388447 12.42795003 -24.01808711 16.13426964 -24.4375 20.375 C-32.0275 20.375 -39.6175 20.375 -47.4375 20.375 C-47.4375 26.645 -47.4375 32.915 -47.4375 39.375 C-44.09147251 40.4903425 -41.58010845 40.5019821 -38.05419922 40.50439453 C-36.0773262 40.50912277 -36.0773262 40.50912277 -34.06051636 40.51394653 C-32.62107307 40.51215702 -31.18163008 40.51010613 -29.7421875 40.5078125 C-28.26913436 40.50848597 -26.79608133 40.50945636 -25.32302856 40.51071167 C-22.2379653 40.51218568 -19.152931 40.510043 -16.06787109 40.50537109 C-12.10528709 40.49966396 -8.14277067 40.50296089 -4.18018913 40.50894356 C-1.1399789 40.51254865 1.90021517 40.511411 4.94042587 40.50881577 C6.40212894 40.50814687 7.86383345 40.50897362 9.32553482 40.51129532 C11.36301904 40.51382204 13.40050838 40.50929115 15.43798828 40.50439453 C17.17980881 40.50320114 17.17980881 40.50320114 18.95681763 40.50198364 C21.49047582 40.6709741 21.49047582 40.6709741 22.5625 39.375 C22.6608721 38.04456375 22.69328592 36.70906656 22.6953125 35.375 C22.69660156 34.570625 22.69789063 33.76625 22.69921875 32.9375 C22.69535156 32.091875 22.69148438 31.24625 22.6875 30.375 C22.69136719 29.529375 22.69523437 28.68375 22.69921875 27.8125 C22.69792969 27.008125 22.69664062 26.20375 22.6953125 25.375 C22.69362061 24.26125 22.69362061 24.26125 22.69189453 23.125 C22.75192216 21.34674189 22.75192216 21.34674189 21.5625 20.375 C20.00301458 20.21813751 18.43707332 20.12423361 16.87109375 20.05859375 C15.45473633 19.99575195 15.45473633 19.99575195 14.00976562 19.93164062 C13.01654297 19.89232422 12.02332031 19.85300781 11 19.8125 C10.00291016 19.76931641 9.00582031 19.72613281 7.97851562 19.68164062 C5.5066585 19.57519702 3.0346969 19.47318072 0.5625 19.375 C0.43987793 18.75939209 0.31725586 18.14378418 0.19091797 17.50952148 C0.02221191 16.70071533 -0.14649414 15.89190918 -0.3203125 15.05859375 C-0.48418457 14.25736084 -0.64805664 13.45612793 -0.81689453 12.63061523 C-1.89433635 8.71461015 -4.04145473 6.35223169 -7.3125 4.0625 C-13.3241259 2.11756221 -18.53438242 3.33905146 -22.4375 8.375 Z M-84.4375 38.375 C-86.48496535 41.62820616 -86.68509037 44.17138299 -86.67800903 47.98114014 C-86.68075836 49.12254959 -86.68350769 50.26395905 -86.68634033 51.43995667 C-86.67914978 52.68792526 -86.67195923 53.93589386 -86.66455078 55.22167969 C-86.66484283 56.53899582 -86.66513489 57.85631195 -86.66543579 59.21354675 C-86.6660096 62.82275352 -86.65425074 66.43182735 -86.64028788 70.04100323 C-86.62778524 73.81397007 -86.62661039 77.58693996 -86.62423706 81.35992432 C-86.61802092 88.5032211 -86.60160829 95.64645667 -86.58153808 102.7897265 C-86.55918326 110.92266678 -86.5481867 119.05561 -86.53814721 127.18857336 C-86.51724218 143.91741808 -86.48206359 160.64620123 -86.4375 177.375 C-84.7875 177.705 -83.1375 178.035 -81.4375 178.375 C-81.4375 176.725 -81.4375 175.075 -81.4375 173.375 C-82.0975 173.375 -82.7575 173.375 -83.4375 173.375 C-83.78436842 167.01574556 -82.69166339 162.29655874 -80.4375 156.375 C-80.1075 155.385 -79.7775 154.395 -79.4375 153.375 C-78.7775 153.375 -78.1175 153.375 -77.4375 153.375 C-77.045625 152.92125 -76.65375 152.4675 -76.25 152 C-72.11381947 148.29170021 -67.23841835 148.18264816 -61.9375 148.4375 C-56.65047153 149.06206655 -53.13351396 150.52103672 -49.4375 154.375 C-44.76050582 160.56070197 -45.96285392 168.81515437 -46.9375 176.125 C-47.1025 176.8675 -47.2675 177.61 -47.4375 178.375 C-43.4775 180.85 -43.4775 180.85 -39.4375 183.375 C-36.7975 181.725 -34.1575 180.075 -31.4375 178.375 C-31.7675 176.93125 -32.0975 175.4875 -32.4375 174 C-34.14408149 165.16812935 -34.46519431 158.97370779 -29.7265625 151.08984375 C-28.4375 149.375 -28.4375 149.375 -26.4375 148.375 C-26.4375 147.715 -26.4375 147.055 -26.4375 146.375 C-25.48875 146.065625 -24.54 145.75625 -23.5625 145.4375 C-20.57669592 144.50105258 -20.57669592 144.50105258 -18.4375 143.375 C-11.25378825 142.66273396 -5.02449013 142.43044623 0.9140625 146.890625 C5.61268061 151.12160814 8.47309506 154.94751083 9.5625 161.375 C9.55136322 167.54477784 7.92521833 172.72502138 5.5625 178.375 C6.8825 178.375 8.2025 178.375 9.5625 178.375 C9.5625 179.035 9.5625 179.695 9.5625 180.375 C12.29125002 182.61045319 12.29125002 182.61045319 14.9375 182.3125 C18.83241049 180.92146054 20.26328095 179.89145267 22.5625 176.375 C22.58436562 173.04267943 22.23233004 169.84800406 21.84765625 166.5390625 C21.47352574 162.38775133 21.83111016 160.15257783 23.5625 156.375 C28.29185625 150.91805048 31.89164007 148.98766645 38.92578125 148.40234375 C44.16435966 148.34801775 49.01900269 149.72462657 53.5625 152.375 C53.5625 153.035 53.5625 153.695 53.5625 154.375 C54.2225 154.375 54.8825 154.375 55.5625 154.375 C58.24509184 162.08745155 58.79065403 169.70813418 55.5625 177.375 C57.2125 178.365 58.8625 179.355 60.5625 180.375 C61.80826657 177.88346686 61.6961297 176.193732 61.70776367 173.40625 C61.71414352 172.37177734 61.72052338 171.33730469 61.72709656 170.27148438 C61.72820938 169.15064453 61.7293222 168.02980469 61.73046875 166.875 C61.73379715 165.72837891 61.73712555 164.58175781 61.74055481 163.40039062 C61.74562428 160.97266034 61.74796313 158.54492307 61.74780273 156.1171875 C61.74999089 152.39050918 61.76815125 148.66412596 61.78710938 144.9375 C61.79004287 142.58333435 61.79202796 140.22916729 61.79296875 137.875 C61.80374702 136.19374023 61.80374702 136.19374023 61.81474304 134.47851562 C61.81166641 133.44404297 61.80858978 132.40957031 61.80541992 131.34375 C61.80684494 130.43044922 61.80826996 129.51714844 61.80973816 128.57617188 C61.77092401 126.1675831 61.77092401 126.1675831 59.5625 124.375 C57.90121537 124.01580332 56.23349977 123.68588368 54.5625 123.375 C51.8125 122.5 51.8125 122.5 49.5625 121.375 C48.58314368 118.43693103 48.5625 116.42222362 48.5625 113.375 C44.65806365 109.47056365 34.89633428 110.1421765 29.71832275 110.12615967 C28.78179871 110.13335022 27.84527466 110.14054077 26.88037109 110.14794922 C25.35662369 110.14751114 25.35662369 110.14751114 23.80209351 110.14706421 C20.47995136 110.14844571 17.15803995 110.16395097 13.8359375 110.1796875 C11.51852542 110.18342183 9.20111174 110.18626682 6.88369751 110.18826294 C0.81088839 110.19586633 -5.2618237 110.21548635 -11.33459473 110.2376709 C-17.54206022 110.25820052 -23.74954153 110.26727983 -29.95703125 110.27734375 C-42.11722992 110.2987355 -54.27735686 110.3328314 -66.4375 110.375 C-66.7675 108.065 -67.0975 105.755 -67.4375 103.375 C-66.16043182 103.39276489 -64.88336365 103.41052979 -63.56759644 103.42883301 C-51.53186397 103.59101318 -39.49635318 103.71093315 -27.45977592 103.78949738 C-21.27154881 103.83124662 -15.08420378 103.88787251 -8.89648438 103.97851562 C-2.92473818 104.0654474 3.04615974 104.11327611 9.01848984 104.13401794 C11.29677563 104.14879868 13.57501503 104.17766314 15.85293961 104.22084045 C19.04506928 104.27893916 22.23369611 104.28691235 25.42626953 104.28320312 C26.36782394 104.31196533 27.30937836 104.34072754 28.27946472 104.37036133 C33.39392893 104.30762446 33.39392893 104.30762446 37.52083969 101.53294373 C39.02865208 99.53950283 40.3479293 97.55742193 41.5625 95.375 C38.87521892 90.98720546 38.87521892 90.98720546 34.43979454 88.82155228 C31.75967174 88.63592856 29.13404529 88.63314314 26.44799805 88.69384766 C24.92534584 88.69253342 24.92534584 88.69253342 23.37193298 88.69119263 C20.02190786 88.69536759 16.67389337 88.74201821 13.32421875 88.7890625 C10.99967035 88.80025489 8.67510778 88.80879487 6.35054016 88.81478882 C0.23620436 88.83768332 -5.87727446 88.89661364 -11.99127197 88.9630127 C-18.23169359 89.0244208 -24.47225387 89.0518008 -30.71289062 89.08203125 C-42.95480333 89.14635486 -55.19608037 89.24874323 -67.4375 89.375 C-67.1075 87.065 -66.7775 84.755 -66.4375 82.375 C-64.47098984 82.38166183 -64.47098984 82.38166183 -62.4647522 82.38845825 C-50.13325554 82.42893308 -37.80177229 82.45895006 -25.47022438 82.47862434 C-19.1298611 82.48907896 -12.78955126 82.50326869 -6.44921875 82.52587891 C-0.33492886 82.54754755 5.77930949 82.55955597 11.8936348 82.56475449 C14.23092079 82.56846102 16.56820383 82.57569852 18.90546799 82.58646011 C22.16930067 82.60089556 25.43291808 82.60298128 28.69677734 82.60205078 C29.67141434 82.60924133 30.64605133 82.61643188 31.65022278 82.62384033 C32.53645828 82.621091 33.42269379 82.61834167 34.33578491 82.61550903 C35.10824743 82.61735262 35.88070995 82.61919621 36.67658043 82.62109566 C38.80579948 82.53814511 38.80579948 82.53814511 40.5625 80.375 C42.7265625 79.7421875 42.7265625 79.7421875 45.1875 79.25 C46.41339844 78.99863281 46.41339844 78.99863281 47.6640625 78.7421875 C48.29054688 78.62101562 48.91703125 78.49984375 49.5625 78.375 C49.5625 76.065 49.5625 73.755 49.5625 71.375 C53.62916523 69.54101372 57.17093128 68.21284428 61.5625 67.375 C61.67879782 62.97938961 61.74978634 58.58417571 61.8125 54.1875 C61.86277344 52.31868164 61.86277344 52.31868164 61.9140625 50.41210938 C61.92695313 49.21005859 61.93984375 48.00800781 61.953125 46.76953125 C61.97407227 45.66456299 61.99501953 44.55959473 62.01660156 43.42114258 C61.45612281 39.66141498 60.22713773 38.03933698 57.5625 35.375 C54.4440675 34.3355225 52.28774414 34.26005162 49.01953125 34.27734375 C47.40981445 34.28217773 47.40981445 34.28217773 45.76757812 34.28710938 C44.64802734 34.29548828 43.52847656 34.30386719 42.375 34.3125 C40.67827148 34.31926758 40.67827148 34.31926758 38.94726562 34.32617188 C36.15229073 34.33796502 33.3574218 34.3544235 30.5625 34.375 C30.50191406 35.15746094 30.44132812 35.93992188 30.37890625 36.74609375 C30.25322266 38.26396484 30.25322266 38.26396484 30.125 39.8125 C30.00318359 41.32650391 30.00318359 41.32650391 29.87890625 42.87109375 C29.5625 45.375 29.5625 45.375 28.5625 46.375 C26.00660112 46.47006052 23.47782028 46.50056761 20.92163086 46.48852539 C19.72172264 46.48874443 19.72172264 46.48874443 18.49757385 46.4889679 C15.84080335 46.48826855 13.18410207 46.48047518 10.52734375 46.47265625 C8.69031309 46.47079215 6.85328194 46.46936821 5.01625061 46.46836853 C0.17140338 46.46454275 -4.67341408 46.45471196 -9.51824951 46.44366455 C-14.45812578 46.43345172 -19.39800685 46.42887119 -24.33789062 46.42382812 C-34.03777353 46.41308974 -43.73763429 46.3960126 -53.4375 46.375 C-54.53186179 42.23990287 -54.50877804 38.65168213 -54.4375 34.375 C-58.49975821 34.25861574 -62.5615863 34.18768627 -66.625 34.125 C-67.77548828 34.09148437 -68.92597656 34.05796875 -70.11132812 34.0234375 C-71.22314453 34.01054687 -72.33496094 33.99765625 -73.48046875 33.984375 C-75.01223755 33.9529541 -75.01223755 33.9529541 -76.57495117 33.92089844 C-80.2337027 34.50130593 -81.82283354 35.79178775 -84.4375 38.375 Z M76.75 40.25 C73.13863163 45.40909767 72.00529941 49.02291324 72.5625 55.375 C73.95856229 58.67478359 75.57623534 61.395603 77.5625 64.375 C78.2225 64.375 78.8825 64.375 79.5625 64.375 C79.5625 65.035 79.5625 65.695 79.5625 66.375 C84.83222874 69.70324973 89.50148061 70.13998303 95.5625 69.375 C99.0672765 68.04514431 99.0672765 68.04514431 101.5625 66.375 C101.5625 65.715 101.5625 65.055 101.5625 64.375 C102.2225 64.375 102.8825 64.375 103.5625 64.375 C107.21474843 59.94803221 108.65194244 56.1328571 108.5625 50.375 C107.59408845 44.75821299 105.63493564 41.35693707 101.5625 37.375 C93.22293249 32.65449009 83.48194709 32.61258634 76.75 40.25 Z M68.5625 64.375 C68.8925 65.695 69.2225 67.015 69.5625 68.375 C69.8925 67.715 70.2225 67.055 70.5625 66.375 C69.9025 65.715 69.2425 65.055 68.5625 64.375 Z M57.5625 76.375 C56.9025 78.685 56.2425 80.995 55.5625 83.375 C57.2125 82.715 58.8625 82.055 60.5625 81.375 C60.21463292 79.39963255 60.21463292 79.39963255 59.5625 77.375 C58.9025 77.045 58.2425 76.715 57.5625 76.375 Z M71.5625 77.375 C71.5625 78.035 71.5625 78.695 71.5625 79.375 C68.2625 79.375 64.9625 79.375 61.5625 79.375 C61.5625 79.705 61.5625 80.035 61.5625 80.375 C65.8525 81.035 70.1425 81.695 74.5625 82.375 C74.5625 80.395 74.5625 78.415 74.5625 76.375 C73.3388932 76.3004644 73.3388932 76.3004644 71.5625 77.375 Z M44.5625 87.375 C45.0575 87.849375 45.5525 88.32375 46.0625 88.8125 C48.26700445 92.57852844 48.1734316 96.10631125 47.5625 100.375 C46.0625 102.9375 46.0625 102.9375 44.5625 104.375 C45.68784105 105.73118499 45.68784105 105.73118499 48.625 105.4375 C50.0790625 105.4065625 50.0790625 105.4065625 51.5625 105.375 C51.2325 104.385 50.9025 103.395 50.5625 102.375 C50.46814021 100.37679272 50.43259699 98.37542797 50.4375 96.375 C50.43492187 95.323125 50.43234375 94.27125 50.4296875 93.1875 C50.5625 90.375 50.5625 90.375 51.5625 87.375 C49.2525 87.375 46.9425 87.375 44.5625 87.375 Z M56.625 92.6875 C55.2727592 95.39664882 55.2727592 95.39664882 56.1875 98.5 C57.77665498 101.98275257 57.77665498 101.98275257 60.5625 104.375 C63.91343496 105.16703917 66.46377203 105.68020221 69.8125 104.75 C72.23136714 102.84946153 73.34048287 101.20493441 74.5625 98.375 C74.5625 94.32558607 73.82009071 92.70414369 71.3125 89.5 C68.79424695 87.22878046 68.79424695 87.22878046 66.0625 86.875 C61.83260154 87.72097969 59.38272346 89.39602361 56.625 92.6875 Z M79.5625 87.375 C79.748125 88.48875 79.93375 89.6025 80.125 90.75 C80.76572807 95.71564255 80.22041037 100.43561137 79.5625 105.375 C81.5425 105.705 83.5225 106.035 85.5625 106.375 C85.2325 105.385 84.9025 104.395 84.5625 103.375 C83.9025 103.375 83.2425 103.375 82.5625 103.375 C82.67705681 101.45768082 82.80456258 99.5411325 82.9375 97.625 C83.04191406 96.02398437 83.04191406 96.02398437 83.1484375 94.390625 C83.5353223 91.57293568 84.11936166 89.7919634 85.5625 87.375 C83.5825 87.375 81.6025 87.375 79.5625 87.375 Z M55.5625 109.375 C55.5625 112.015 55.5625 114.655 55.5625 117.375 C56.5525 117.045 57.5425 116.715 58.5625 116.375 C59.78119929 113.87052484 59.78119929 113.87052484 60.5625 111.375 C58.0875 110.385 58.0875 110.385 55.5625 109.375 Z M69.5625 111.375 C69.8925 113.025 70.2225 114.675 70.5625 116.375 C71.5525 116.045 72.5425 115.715 73.5625 115.375 C74.78770264 112.36652582 74.78770264 112.36652582 75.5625 109.375 C73.09971199 109.375 71.71025881 110.22952863 69.5625 111.375 Z M61.5625 112.375 C61.5625 112.705 61.5625 113.035 61.5625 113.375 C63.8725 113.375 66.1825 113.375 68.5625 113.375 C68.5625 113.045 68.5625 112.715 68.5625 112.375 C66.2525 112.375 63.9425 112.375 61.5625 112.375 Z M73.5625 115.375 C74.5625 117.375 74.5625 117.375 74.5625 117.375 Z M-24.75 155.125 C-27.12736501 159.7036289 -27.82909823 163.28647611 -26.875 168.375 C-25.01351074 172.25984715 -22.60637104 175.44802751 -19.4375 178.375 C-15.09152177 179.82365941 -10.83374753 180.26393053 -6.5 178.65625 C-2.52099357 176.52953967 0.48175059 174.37003887 2.5625 170.375 C3.46840826 162.9166895 3.46840826 162.9166895 1.16015625 156.00390625 C0.63292969 155.46636719 0.10570312 154.92882812 -0.4375 154.375 C-1.0975 154.375 -1.7575 154.375 -2.4375 154.375 C-2.4375 153.715 -2.4375 153.055 -2.4375 152.375 C-6.18393809 149.23282612 -9.52386705 148.90626712 -14.2265625 149.09375 C-19.04105816 149.70619468 -21.66733678 151.45913023 -24.75 155.125 Z M-75.375 160.625 C-77.12936009 165.16569669 -76.10447385 169.13154251 -74.75 173.6875 C-72.69362659 176.33140867 -70.54760821 177.20137426 -67.4375 178.375 C-62.448466 178.90016147 -59.38168038 178.55225642 -55.4375 175.375 C-52.26794803 171.44038376 -51.90401202 168.35422113 -52.4375 163.375 C-54.3398375 158.83052709 -57.12103449 156.66018762 -61.4375 154.375 C-67.60823865 153.34654356 -71.42159272 156.03394639 -75.375 160.625 Z M28.6875 160.6875 C27.19717605 164.24771833 27.02486376 166.54434176 27.5625 170.375 C29.61662024 173.82214432 32.22397632 176.14931755 35.5625 178.375 C41.969372 178.94566301 41.969372 178.94566301 47.5625 176.375 C50.62606937 171.94984424 52.40153121 168.88863366 51.5625 163.375 C49.71939128 159.30075968 47.374074 156.71392041 43.5625 154.375 C36.90442511 153.40655274 32.8728094 155.52561841 28.6875 160.6875 Z M24.375 184.0625 C21.21396471 186.6453248 21.21396471 186.6453248 20.5625 190.375 C21.19784261 192.22160238 21.19784261 192.22160238 22.3125 194 C24.5625 198.375 24.5625 198.375 27.5625 208.375 C40.4325 208.375 53.3025 208.375 66.5625 208.375 C65.32201634 197.21064705 62.86098355 191.4989882 54.5625 184.375 C51.89411242 182.11183999 51.89411242 182.11183999 49.6875 182.65234375 C48.98625 182.87019531 48.285 183.08804688 47.5625 183.3125 C41.58700598 184.83815805 35.34873119 184.53035731 29.4375 182.7265625 C27.25268646 182.11546021 27.25268646 182.11546021 24.375 184.0625 Z M-77.375 183.25 C-83.14766199 187.25552057 -87.99527845 192.72673023 -90.4375 199.375 C-90.7675 202.345 -91.0975 205.315 -91.4375 208.375 C-78.5675 208.375 -65.6975 208.375 -52.4375 208.375 C-51.4475 205.735 -50.4575 203.095 -49.4375 200.375 C-48.55345854 198.20349534 -47.65872484 196.03629151 -46.75 193.875 C-46.31300781 192.8334375 -45.87601563 191.791875 -45.42578125 190.71875 C-45.09964844 189.9453125 -44.77351563 189.171875 -44.4375 188.375 C-49.43050884 184.00594691 -49.43050884 184.00594691 -55.5703125 182.421875 C-56.90377218 182.80883977 -58.22531659 183.23935043 -59.53125 183.7109375 C-63.69505502 185.16144335 -67.46824968 184.75083175 -71.5 183.1875 C-74.44302748 182.09380432 -74.44302748 182.09380432 -77.375 183.25 Z M-24.4375 182.375 C-34.25424844 188.16960846 -41.04511594 194.69686301 -44.84375 205.6015625 C-45.68173114 209.04310285 -45.68173114 209.04310285 -45.4375 215.375 C-23.3275 215.375 -1.2175 215.375 21.5625 215.375 C20.55508702 206.30828319 19.24744488 198.05994488 12.5625 191.375 C11.9025 191.375 11.2425 191.375 10.5625 191.375 C10.30855469 190.77558594 10.05460937 190.17617188 9.79296875 189.55859375 C7.70417043 185.85180561 4.52662157 183.81517628 0.5625 182.375 C-2.49165607 183.38882609 -2.49165607 183.38882609 -4.3828125 184.52734375 C-9.91260356 186.80864539 -17.75750123 185.95165446 -23.4375 184.375 C-23.7675 183.715 -24.0975 183.055 -24.4375 182.375 Z " fill="#161616" transform="translate(241.4375,140.625)"/>
<path d="M0 0 C54.45 0.495 54.45 0.495 110 1 C110 3.31 110 5.62 110 8 C73.7 8 37.4 8 0 8 C0 5.36 0 2.72 0 0 Z " fill="#131313" transform="translate(174,201)"/>
<path d="M0 0 C14.19456042 -0.02333029 28.38911787 -0.0409134 42.5836935 -0.05181217 C49.17404785 -0.05704172 55.76438937 -0.06414067 62.35473633 -0.07543945 C68.70892018 -0.08626578 75.06309165 -0.09227629 81.41728401 -0.09487724 C83.84749611 -0.09673195 86.27770749 -0.10035343 88.70791435 -0.10573006 C92.09882981 -0.11293711 95.48969341 -0.11399108 98.88061523 -0.11352539 C99.89625046 -0.11712067 100.91188568 -0.12071594 101.95829773 -0.12442017 C102.87681519 -0.1230455 103.79533264 -0.12167084 104.74168396 -0.12025452 C105.54456565 -0.12117631 106.34744734 -0.1220981 107.17465878 -0.12304783 C109 0 109 0 110 1 C110 2.98 110 4.96 110 7 C74.03 7 38.06 7 1 7 C0.67 4.69 0.34 2.38 0 0 Z " fill="#202020" transform="translate(174,264)"/>
<path d="M0 0 C7.23231059 1.36610311 14.32466745 2.82188199 19 9 C21.48116186 15.54124491 20.77829617 20.32454975 19 27 C20.32 27.33 21.64 27.66 23 28 C18.35796103 30.53309233 14.34844008 32.46515599 9 33 C8.67 33.99 8.34 34.98 8 36 C7.505 35.505 7.505 35.505 7 35 C7 35.33 7 35.66 7 36 C4.36 36 1.72 36 -1 36 C-0.67 35.01 -0.34 34.02 0 33 C-3.04913228 31.98888907 -3.04913228 31.98888907 -6 33 C-6 32.34 -6 31.68 -6 31 C-6.66 31 -7.32 31 -8 31 C-11.40327424 24.7606639 -11.55493184 19.03269384 -11 12 C-10.67 11.34 -10.34 10.68 -10 10 C-12.31 10 -14.62 10 -17 10 C-17 9.34 -17 8.68 -17 8 C-14.03 8 -11.06 8 -8 8 C-8 7.34 -8 6.68 -8 6 C-7.34 6 -6.68 6 -6 6 C-5.67 5.34 -5.34 4.68 -5 4 C-2.4375 3.375 -2.4375 3.375 0 3 C0 2.01 0 1.02 0 0 Z M-3.9375 14.3125 C-5.2897408 17.02164882 -5.2897408 17.02164882 -4.375 20.125 C-2.78584502 23.60775257 -2.78584502 23.60775257 0 26 C3.35093496 26.79203917 5.90127203 27.30520221 9.25 26.375 C11.66886714 24.47446153 12.77798287 22.82993441 14 20 C14 15.95058607 13.25759071 14.32914369 10.75 11.125 C8.23174695 8.85378046 8.23174695 8.85378046 5.5 8.5 C1.27010154 9.34597969 -1.17977654 11.02102361 -3.9375 14.3125 Z " fill="#242424" transform="translate(302,219)"/>
<path d="M0 0 C1.6266848 0.28211877 3.25132896 0.57602375 4.875 0.875 C5.77992188 1.03742188 6.68484375 1.19984375 7.6171875 1.3671875 C10 2 10 2 12 4 C13.59210526 11.81578947 13.59210526 11.81578947 12 15 C9.32529949 17.13976041 7.3804826 17.93658623 4 18.5 C-0.16402963 17.80599506 -1.54597925 16.3923228 -4 13 C-4.74130123 8.46982582 -4.31814592 6.54681331 -2 2.5625 C-1.34 1.716875 -0.68 0.87125 0 0 Z M3 8 C3.33 8.66 3.66 9.32 4 10 C4.66 9.34 5.32 8.68 6 8 C5.01 8 4.02 8 3 8 Z " fill="#191919" transform="translate(225,147)"/>
<path d="M0 0 C0.598125 0.20625 1.19625 0.4125 1.8125 0.625 C2.61411897 3.83147589 2.76968448 6.1559125 2.5 9.5 C2.40230304 13.19852767 3.37513349 14.69081154 5.875 17.375 C6.44347656 17.90609375 7.01195312 18.4371875 7.59765625 18.984375 C8.8125 20.625 8.8125 20.625 8.49609375 22.828125 C8.27050781 23.42109375 8.04492188 24.0140625 7.8125 24.625 C4.85924537 25.53011307 3.40357905 25.91280289 0.57421875 24.53515625 C-3.11620585 21.24782888 -5.30321266 18.5812069 -5.8046875 13.59765625 C-5.95709409 9.51951383 -5.86523247 5.6545114 -5.1875 1.625 C-2.1875 -0.375 -2.1875 -0.375 0 0 Z " fill="#262626" transform="translate(333.1875,176.375)"/>
<path d="M0 0 C0.66 0.33 1.32 0.66 2 1 C-2.39453125 5.00390625 -2.39453125 5.00390625 -4 6 C-4.99 5.67 -5.98 5.34 -7 5 C-4.702779 3.25728062 -2.40133271 1.60088848 0 0 Z " fill="#5E5E5E" transform="translate(262,319)"/>
<path d="" fill="#FFFFFF" transform="translate(0,0)"/>
<path d="" fill="#FFFFFF" transform="translate(0,0)"/>
</svg>
