<?xml version="1.0" encoding="UTF-8"?>
<svg version="1.1" xmlns="http://www.w3.org/2000/svg" width="500" height="500">
<path d="M0 0 C7.25866585 5.39712608 11.57640101 13.40529873 14 22 C14.89629201 30.79616809 14.16704292 38.17409013 10 46 C9.443125 47.051875 8.88625 48.10375 8.3125 49.1875 C5.55185994 52.54503521 2.45469527 54.87431679 -1.07421875 57.38671875 C-3.27160732 58.9412348 -3.27160732 58.9412348 -4 62 C-4.22797562 64.73289293 -4.41668187 67.45042204 -4.5625 70.1875 C-4.62727539 71.31188477 -4.62727539 71.31188477 -4.69335938 72.45898438 C-4.79922685 74.30578375 -4.9000976 76.15286834 -5 78 C-6.81242052 78.02687279 -8.62495233 78.04633715 -10.4375 78.0625 C-11.44683594 78.07410156 -12.45617187 78.08570313 -13.49609375 78.09765625 C-16 78 -16 78 -17 77 C-17.09725369 75.03570154 -17.1320356 73.06824827 -17.140625 71.1015625 C-17.15996094 69.90015625 -17.17929688 68.69875 -17.19921875 67.4609375 C-17.2329674 64.91161654 -17.25129401 62.362043 -17.25390625 59.8125 C-17.27839844 58.60851562 -17.30289063 57.40453125 -17.328125 56.1640625 C-17.34214355 54.50044678 -17.34214355 54.50044678 -17.35644531 52.80322266 C-17.72857465 49.80267772 -17.72857465 49.80267772 -20.38842773 48.20141602 C-21.25024658 47.80494873 -22.11206543 47.40848145 -23 47 C-24.21623047 46.31357422 -24.21623047 46.31357422 -25.45703125 45.61328125 C-26.23433594 45.18402344 -27.01164062 44.75476563 -27.8125 44.3125 C-28.60269531 43.87550781 -29.39289063 43.43851562 -30.20703125 42.98828125 C-30.79871094 42.66214844 -31.39039063 42.33601563 -32 42 C-32 40.35 -32 38.7 -32 37 C-29.875 35.8125 -29.875 35.8125 -27 35 C-26.030625 35.495 -25.06125 35.99 -24.0625 36.5 C-21.07163593 38.3682415 -21.07163593 38.3682415 -17.875 37.25 C-16.92625 36.8375 -15.9775 36.425 -15 36 C-12.8125 35.1875 -12.8125 35.1875 -11 35 C-9.1875 36.1875 -9.1875 36.1875 -8 38 C-8.16602867 40.65645869 -8.66409868 41.68993724 -10.625 43.5 C-11.07875 43.995 -11.5325 44.49 -12 45 C-11.77242269 47.16299211 -11.77242269 47.16299211 -11 49 C-5.75500294 46.03242431 -5.75500294 46.03242431 -3 41 C-3.14850327 37.43592144 -3.58802626 35.54439387 -5.75 32.6875 C-8.36290376 30.72782218 -9.73128757 30.07782649 -13 30 C-13.969375 30.515625 -14.93875 31.03125 -15.9375 31.5625 C-19 33 -19 33 -22.125 32.25 C-23.548125 31.63125 -23.548125 31.63125 -25 31 C-28.06348065 29.75546099 -28.87571016 29.95774145 -32.125 31.0625 C-35.16863253 32.78704979 -35.16863253 32.78704979 -36.5 35.8125 C-37.13654125 39.8704505 -37.09012776 41.41692384 -35 45 C-31.22435963 47.75467639 -27.17275937 49.91362031 -23 52 C-22.97113249 56.14581887 -22.95324673 60.29161216 -22.9375 64.4375 C-22.92912109 65.62150391 -22.92074219 66.80550781 -22.91210938 68.02539062 C-22.90727539 69.71245117 -22.90727539 69.71245117 -22.90234375 71.43359375 C-22.89448853 72.99678345 -22.89448853 72.99678345 -22.88647461 74.59155273 C-23 77 -23 77 -24 78 C-25.85287502 78.07226502 -27.70833878 78.0838122 -29.5625 78.0625 C-31.08037109 78.04896484 -31.08037109 78.04896484 -32.62890625 78.03515625 C-33.41136719 78.02355469 -34.19382813 78.01195312 -35 78 C-36.33096102 73.66397854 -36.02834835 69.46397147 -35.9375 64.97265625 C-35.99624853 62.17842919 -36.36032722 59.71361188 -37 57 C-37.8971875 56.814375 -37.8971875 56.814375 -38.8125 56.625 C-41 56 -41 56 -44 54 C-44 53.34 -44 52.68 -44 52 C-44.66 52 -45.32 52 -46 52 C-46 51.34 -46 50.68 -46 50 C-46.66 50 -47.32 50 -48 50 C-48.81436868 48.23002526 -49.6264294 46.45898848 -50.4375 44.6875 C-50.88996094 43.70136719 -51.34242188 42.71523438 -51.80859375 41.69921875 C-54.96118456 34.55679171 -55.23214898 25.87930998 -53.31640625 18.29296875 C-49.40263537 9.02009253 -42.75106315 1.06739987 -33.625 -3.3125 C-22.48545644 -7.40594673 -10.09172019 -6.0951521 0 0 Z " fill="#0D0D0D" transform="translate(270,249)"/>
<path d="M0 0 C6.49464513 5.71938343 10.28146208 13.75779729 11.44921875 22.27734375 C11.81281448 32.82161991 9.31945378 40.72542095 2.375 48.6875 C0.0234375 51.19921875 0.0234375 51.19921875 -2 53 C-2.66 53 -3.32 53 -4 53 C-4 53.66 -4 54.32 -4 55 C-5.55780332 55.67756882 -7.12150096 56.34159457 -8.6875 57 C-9.55761719 57.37125 -10.42773438 57.7425 -11.32421875 58.125 C-14.07417914 59.02425712 -16.13364676 59.06719656 -19 59 C-18.96447021 59.7520874 -18.92894043 60.5041748 -18.89233398 61.27905273 C-18.73536707 64.66497853 -18.58632785 68.05120711 -18.4375 71.4375 C-18.35338867 73.21350586 -18.35338867 73.21350586 -18.26757812 75.02539062 C-18.21923828 76.15009766 -18.17089844 77.27480469 -18.12109375 78.43359375 C-18.0739624 79.47572021 -18.02683105 80.51784668 -17.97827148 81.59155273 C-18 84 -18 84 -19 85 C-21.64 85 -24.28 85 -27 85 C-27 76.42 -27 67.84 -27 59 C-29.97 58.67 -32.94 58.34 -36 58 C-39.5625 56.4375 -39.5625 56.4375 -42 55 C-42 54.34 -42 53.68 -42 53 C-42.70125 52.835 -43.4025 52.67 -44.125 52.5 C-50.75435688 49.04120511 -54.02084508 41.92618014 -56.3125 35.0703125 C-58.05872005 27.27185252 -58.1192719 18.45159399 -55 11 C-54.34 10.67 -53.68 10.34 -53 10 C-52.5978125 8.9171875 -52.5978125 8.9171875 -52.1875 7.8125 C-48.8253124 -0.15057589 -42.68635368 -3.65405359 -35 -7 C-22.18831752 -11.23830583 -10.43758099 -8.09100253 0 0 Z M-43 10 C-47.37242346 16.00214494 -48.48834661 21.67480091 -48 29 C-46.86594352 33.41840188 -45.53749088 37.19376367 -43 41 C-41.68 41 -40.36 41 -39 41 C-36.54294304 38.40012797 -36.54294304 38.40012797 -36 35 C-34.35 34.34 -32.7 33.68 -31 33 C-30.56613908 29.12202338 -30.56613908 29.12202338 -32.5 27.25 C-35.08755687 23.3686647 -34.38736453 18.93682265 -33.5 14.5 C-33.335 14.005 -33.17 13.51 -33 13 C-32.34 13 -31.68 13 -31 13 C-31 12.34 -31 11.68 -31 11 C-26.66052737 9.55350912 -22.53000056 9.33531092 -18 10 C-15.17575712 12.19022918 -13.58491397 13.83017207 -12 17 C-11.73529412 25.20588235 -11.73529412 25.20588235 -13 29 C-13.66 29 -14.32 29 -15 29 C-15 29.66 -15 30.32 -15 31 C-15.99 31.495 -15.99 31.495 -17 32 C-15.6696875 32.5259375 -15.6696875 32.5259375 -14.3125 33.0625 C-10.130793 35.5084041 -8.59544888 37.95415321 -6 42 C-2.47135718 40.82378573 -1.58067781 39.44407467 0.140625 36.2265625 C2.69721553 29.60266885 2.64545724 22.55065603 0 16 C-3.23044383 8.91787313 -7.87211062 4.97420797 -14.875 1.625 C-25.96586088 -0.59317218 -35.24847797 1.55989098 -43 10 Z " fill="#121212" transform="translate(273,149)"/>
<path d="M0 0 C0 0.66 0 1.32 0 2 C1.98 2.66 3.96 3.32 6 4 C6 4.66 6 5.32 6 6 C6.598125 6.268125 7.19625 6.53625 7.8125 6.8125 C9.99847854 7.99917406 11.41332594 9.09599113 13 11 C13 11.66 13 12.32 13 13 C13.66 13 14.32 13 15 13 C18.03106737 23.50048339 19.10121551 31.45586728 16 42 C16.16302847 45.59827123 16.75578747 46.76063135 19.36328125 49.31640625 C20.82314453 50.42822266 20.82314453 50.42822266 22.3125 51.5625 C25.76347783 54.22099694 28.98936635 56.84634338 32 60 C30.71700242 62.86207152 29.469364 65.0245088 27 67 C26.01 67 25.02 67 24 67 C24 66.34 24 65.68 24 65 C23.34 65 22.68 65 22 65 C22 64.34 22 63.68 22 63 C21.44828125 62.75507813 20.8965625 62.51015625 20.328125 62.2578125 C17.52360509 60.74261886 15.21896877 58.88915874 12.75 56.875 C11.85796875 56.15054688 10.9659375 55.42609375 10.046875 54.6796875 C9.37140625 54.12539062 8.6959375 53.57109375 8 53 C6.63875 53.928125 6.63875 53.928125 5.25 54.875 C-2.13602353 59.70432308 -9.28766345 60.84440391 -18.0625 59.375 C-26.37111765 57.33081629 -32.25192424 54.81028845 -37 47.4375 C-38.03452817 45.64448363 -39.03835406 43.83313757 -40 42 C-40.38542969 41.38898438 -40.77085937 40.77796875 -41.16796875 40.1484375 C-42.43187187 36.8848379 -42.32842301 33.63642446 -42.3125 30.1875 C-42.32861328 29.50107422 -42.34472656 28.81464844 -42.36132812 28.10742188 C-42.36615307 23.00745852 -41.26458848 19.56774659 -39 15 C-38.67 14.278125 -38.34 13.55625 -38 12.8125 C-34.57070573 6.59690414 -29.33711303 3.03232177 -23 0 C-15.54371417 -1.69681407 -7.46710236 -1.61450862 0 0 Z M-3 15 C-3 23.25 -3 31.5 -3 40 C-2.01 40 -1.02 40 0 40 C1.25838557 37.48322887 1.20818973 35.58706712 1.31640625 32.7734375 C1.35830078 31.7421875 1.40019531 30.7109375 1.44335938 29.6484375 C1.48267578 28.56820312 1.52199219 27.48796875 1.5625 26.375 C1.62727539 24.74304688 1.62727539 24.74304688 1.69335938 23.078125 C1.7996453 20.3855483 1.90168057 17.69287747 2 15 C0.35 15 -1.3 15 -3 15 Z M-15 19 C-15 25.93 -15 32.86 -15 40 C-13.02 40 -11.04 40 -9 40 C-8.97111854 36.68751813 -8.95324201 33.37506833 -8.9375 30.0625 C-8.92912109 29.11697266 -8.92074219 28.17144531 -8.91210938 27.19726562 C-8.90888672 26.29814453 -8.90566406 25.39902344 -8.90234375 24.47265625 C-8.89448853 23.22367554 -8.89448853 23.22367554 -8.88647461 21.94946289 C-8.78356708 19.99483202 -8.78356708 19.99483202 -10 19 C-11.65 19 -13.3 19 -15 19 Z M-26 26 C-26 30.62 -26 35.24 -26 40 C-24.02 40 -22.04 40 -20 40 C-19.97314062 37.85423363 -19.95366912 35.70837355 -19.9375 33.5625 C-19.92589844 32.36753906 -19.91429687 31.17257813 -19.90234375 29.94140625 C-19.66098208 27.11126659 -19.66098208 27.11126659 -21 26 C-22.65 26 -24.3 26 -26 26 Z " fill="#0E0E0E" transform="translate(181,193)"/>
<path d="M0 0 C0.556875 0.474375 1.11375 0.94875 1.6875 1.4375 C1.6875 2.0975 1.6875 2.7575 1.6875 3.4375 C2.3475 3.4375 3.0075 3.4375 3.6875 3.4375 C9.23967274 13.01372455 12.42793518 21.6446108 9.625 32.6875 C7.93254132 37.52981234 5.33119041 41.80395914 1.6875 45.4375 C1.0275 45.4375 0.3675 45.4375 -0.3125 45.4375 C-0.3125 46.0975 -0.3125 46.7575 -0.3125 47.4375 C-9.00765134 53.9083103 -17.7882634 54.8083344 -28.3125 53.4375 C-36.88384175 50.94660179 -42.97699198 46.23380829 -47.3125 38.4375 C-50.10855909 32.49335999 -50.27662002 27.97657362 -49.5625 21.5 C-49.43013428 17.94169807 -49.375182 15.54290651 -51.73925781 12.75488281 C-56.40880456 8.618287 -61.73777779 5.22486111 -67.3125 2.4375 C-66.71322174 -0.91845828 -65.46627564 -2.94051226 -63.3125 -5.5625 C-58.29255567 -4.80477255 -54.88078769 -1.38425976 -50.96875 1.625 C-47.88804472 3.84351041 -47.88804472 3.84351041 -44.3125 4.4375 C-42.02036798 2.86151267 -42.02036798 2.86151267 -39.875 0.625 C-28.66521572 -10.38983151 -12.07536191 -8.15902832 0 0 Z M-23.3125 2.4375 C-23.56 3.18 -23.8075 3.9225 -24.0625 4.6875 C-25.3125 7.4375 -25.3125 7.4375 -27.375 9.375 C-29.89631978 12.05898557 -30.16364972 13.79066814 -30.3125 17.4375 C-29.27358227 21.40427679 -27.63652782 24.01185808 -24.3125 26.4375 C-20.6449787 26.77167929 -20.6449787 26.77167929 -17.3125 26.4375 C-16.9825 28.7475 -16.6525 31.0575 -16.3125 33.4375 C-18.2925 33.7675 -20.2725 34.0975 -22.3125 34.4375 C-22.9725 33.4475 -23.6325 32.4575 -24.3125 31.4375 C-26.89630177 31.18719023 -26.89630177 31.18719023 -29.3125 31.4375 C-29.12196422 34.33552603 -29.12196422 34.33552603 -28.3125 37.4375 C-26.3524719 39.07426257 -26.3524719 39.07426257 -24.3125 40.4375 C-23.5625 42.625 -23.5625 42.625 -23.3125 44.4375 C-21.3325 44.4375 -19.3525 44.4375 -17.3125 44.4375 C-17.3125 43.1175 -17.3125 41.7975 -17.3125 40.4375 C-16.714375 40.355 -16.11625 40.2725 -15.5 40.1875 C-12.47905327 39.15174684 -11.74870701 38.30991402 -10.3125 35.4375 C-9.72097529 32.30417602 -9.62655831 29.56048653 -10.3125 26.4375 C-13.23011526 23.17254959 -15.3861875 21.72251923 -19.5625 20.4375 C-22.3125 19.4375 -22.3125 19.4375 -23.6875 16.8125 C-23.996875 15.636875 -23.996875 15.636875 -24.3125 14.4375 C-22.3125 12.4375 -22.3125 12.4375 -19.1875 12.3125 C-18.23875 12.35375 -17.29 12.395 -16.3125 12.4375 C-15.9825 13.4275 -15.6525 14.4175 -15.3125 15.4375 C-13.6625 15.4375 -12.0125 15.4375 -10.3125 15.4375 C-10.50078772 12.99269921 -10.50078772 12.99269921 -11.3125 10.4375 C-13.28008273 9.07729849 -13.28008273 9.07729849 -15.3125 8.4375 C-15.3125 7.7775 -15.3125 7.1175 -15.3125 6.4375 C-15.9725 6.4375 -16.6325 6.4375 -17.3125 6.4375 C-17.3125 5.1175 -17.3125 3.7975 -17.3125 2.4375 C-19.2925 2.4375 -21.2725 2.4375 -23.3125 2.4375 Z " fill="#111111" transform="translate(347.3125,305.5625)"/>
<path d="M0 0 C0 0.66 0 1.32 0 2 C0.556875 2.20625 1.11375 2.4125 1.6875 2.625 C6.99061191 5.77820167 9.80887248 10.52814898 11.484375 16.32421875 C13.60168438 27.31177121 11.98316922 35.59579729 6 45 C5.55140625 45.70511719 5.1028125 46.41023438 4.640625 47.13671875 C-0.22555226 52.66330579 -8.17698391 55.2545035 -15.3125 55.9375 C-23.3331892 56.20868065 -29.04464523 54.88415916 -36 51 C-36.66 51.66 -37.32 52.32 -38 53 C-38.99 53 -39.98 53 -41 53 C-41 53.66 -41 54.32 -41 55 C-42.97440927 56.4631783 -44.93238871 57.80713064 -47 59.125 C-47.57234375 59.49753906 -48.1446875 59.87007813 -48.734375 60.25390625 C-50.15221782 61.17550408 -51.57560725 62.08855821 -53 63 C-54.37562854 61.71034824 -55.70766393 60.37310707 -57 59 C-57 58.34 -57 57.68 -57 57 C-57.66 56.67 -58.32 56.34 -59 56 C-58.67 55.01 -58.34 54.02 -58 53 C-57.01 53 -56.02 53 -55 53 C-55 52.34 -55 51.68 -55 51 C-53.9275 50.4225 -52.855 49.845 -51.75 49.25 C-48.6973471 47.51624176 -46.35402607 45.6365092 -44 43 C-44.28875 42.46375 -44.5775 41.9275 -44.875 41.375 C-49.23996864 32.16006621 -49.8178857 21.13935328 -46.5 11.4375 C-44.18155532 6.50872013 -40.53602551 2.96510758 -36 0 C-35.34 0 -34.68 0 -34 0 C-33.67 -0.66 -33.34 -1.32 -33 -2 C-22.08144447 -7.53545374 -10.40867793 -5.58514425 0 0 Z M-32 17 C-32.44194203 20.05456365 -32.44194203 20.05456365 -32.3125 23.5 C-32.30863281 24.6653125 -32.30476563 25.830625 -32.30078125 27.03125 C-32.30414419 30.11734188 -32.30414419 30.11734188 -30 32 C-29.195625 32.04125 -28.39125 32.0825 -27.5625 32.125 C-25 33 -25 33 -24.0078125 34.83984375 C-23.25573289 36.87762136 -22.58592389 38.90877571 -22 41 C-19.35247996 38.42215154 -17.05567935 36.08351902 -15 33 C-12.65234375 32.3046875 -12.65234375 32.3046875 -9.9375 31.875 C-6.66815385 31.56845653 -6.66815385 31.56845653 -4 30 C-3.92728259 27.64686445 -3.91629132 25.29166332 -3.9375 22.9375 C-3.94652344 21.64714844 -3.95554687 20.35679687 -3.96484375 19.02734375 C-3.97644531 18.02832031 -3.98804688 17.02929688 -4 16 C-8.59719492 14.46760169 -13.18526035 14.81557062 -18 14.8125 C-19.5159375 14.79413086 -19.5159375 14.79413086 -21.0625 14.77539062 C-22.031875 14.77345703 -23.00125 14.77152344 -24 14.76953125 C-24.886875 14.76542236 -25.77375 14.76131348 -26.6875 14.75708008 C-29.27518633 14.8478126 -29.27518633 14.8478126 -32 17 Z " fill="#0E0E0E" transform="translate(349,197)"/>
<path d="M0 0 C4.875 4.625 4.875 4.625 6 8 C5.34 8 4.68 8 4 8 C4 8.66 4 9.32 4 10 C2.390625 11.5859375 2.390625 11.5859375 0.25 13.375 C-1.1752162 14.57323732 -2.59172662 15.78189492 -4 17 C-4.74636719 17.57621094 -5.49273437 18.15242188 -6.26171875 18.74609375 C-8.73393962 21.95164755 -8.3108728 24.83906177 -8.0625 28.6875 C-7.75174319 38.40302719 -9.95996437 44.83166639 -15 53 C-15.99 53 -16.98 53 -18 53 C-18 53.66 -18 54.32 -18 55 C-18.66 55 -19.32 55 -20 55 C-20 55.66 -20 56.32 -20 57 C-28.32652441 61.48351315 -36.7220673 62.04979667 -46 61 C-50.26536876 59.58607449 -54.3143923 57.56875688 -58 55 C-58 54.34 -58 53.68 -58 53 C-58.66 53 -59.32 53 -60 53 C-66.23155645 46.76844355 -68.25883358 39.08942165 -68.5625 30.5 C-68.37349286 23.56973829 -66.8366692 18.72720186 -63 13 C-62.401875 12.071875 -61.80375 11.14375 -61.1875 10.1875 C-54.54258054 3.54258054 -47.35362812 1.43882198 -38.1875 0.6875 C-32.64728657 0.81111531 -27.30275949 2.51522734 -22 4 C-22 4.66 -22 5.32 -22 6 C-21.01 6 -20.02 6 -19 6 C-17.62131719 7.62935241 -16.28725907 9.29749607 -15 11 C-14.34 11.33 -13.68 11.66 -13 12 C-12.773125 11.38125 -12.54625 10.7625 -12.3125 10.125 C-10.62070165 7.38589791 -9.00755839 6.94975528 -6 6 C-6 5.34 -6 4.68 -6 4 C-4.03852126 2.61061923 -2.03833424 1.2739589 0 0 Z M-47.0625 16.25 C-48.0215625 17.61125 -48.0215625 17.61125 -49 19 C-49.8971875 19.86625 -49.8971875 19.86625 -50.8125 20.75 C-52.77922515 24.47642659 -52.95549849 27.91073375 -52 32 C-49.39447045 36.14105497 -46.69729139 39.4342362 -42 41 C-41.67 44.63 -41.34 48.26 -41 52 C-39.02 52 -37.04 52 -35 52 C-35 48.37 -35 44.74 -35 41 C-33.35 40.34 -31.7 39.68 -30 39 C-26.20526291 35.20526291 -24.11093345 32.43573911 -24 27 C-24.85296678 23.21940955 -24.85296678 23.21940955 -26 20 C-26.66 20 -27.32 20 -28 20 C-28.103125 19.38125 -28.20625 18.7625 -28.3125 18.125 C-28.87525373 15.63473516 -28.87525373 15.63473516 -32 14 C-37.58639123 13.24400688 -42.42442847 12.84243724 -47.0625 16.25 Z " fill="#0E0E0E" transform="translate(207,298)"/>
<path d="M0 0 C7.92 0 15.84 0 24 0 C24 2.97 24 5.94 24 9 C16.08 9 8.16 9 0 9 C-1 6 -1 6 0 0 Z " fill="#0F0F0F" transform="translate(238,332)"/>
<path d="M0 0 C2.8125 2.0625 2.8125 2.0625 5 5 C5.51469253 8.6671843 5.58209494 10.91123106 3.82421875 14.19921875 C2 16 2 16 -0.69921875 16.390625 C-2.17841797 16.32101562 -2.17841797 16.32101562 -3.6875 16.25 C-4.68136719 16.21390625 -5.67523438 16.1778125 -6.69921875 16.140625 C-7.83810547 16.07101562 -7.83810547 16.07101562 -9 16 C-11.29787646 12.37642558 -12.08570839 10.63209934 -11.5 6.3125 C-9.21357104 1.26330272 -5.60124227 -1.12024845 0 0 Z " fill="#1A1A1A" transform="translate(172,317)"/>
<path d="M0 0 C5.28 0 10.56 0 16 0 C16 2.97 16 5.94 16 9 C12.73287914 9.81678022 10.24957284 10.19005298 6.9375 10.25 C6.08027344 10.27578125 5.22304687 10.3015625 4.33984375 10.328125 C2 10 2 10 0.12890625 8.921875 C-1 7 -1 7 0 0 Z " fill="#111111" transform="translate(242,347)"/>
<path d="M0 0 C0.66 0.33 1.32 0.66 2 1 C-0.31 3.31 -2.62 5.62 -5 8 C-5.66 7.34 -6.32 6.68 -7 6 C-2.25 1.125 -2.25 1.125 0 0 Z " fill="#565656" transform="translate(153,196)"/>
<path d="" fill="#FFFFFF" transform="translate(0,0)"/>
<path d="" fill="#FFFFFF" transform="translate(0,0)"/>
</svg>
