<?xml version="1.0" encoding="UTF-8"?>
<svg version="1.1" xmlns="http://www.w3.org/2000/svg" width="369" height="226">
<path d="M0 0 C121.77 0 243.54 0 369 0 C369 74.58 369 149.16 369 226 C247.23 226 125.46 226 0 226 C0 151.42 0 76.84 0 0 Z " fill="#FDFDFD" transform="translate(0,0)"/>
<path d="M0 0 C7.69255389 6.0433895 15.67517937 12.57978928 19.19921875 21.90625 C11.58616639 21.98281573 3.97321471 22.035065 -3.64013672 22.07104492 C-6.22578645 22.08605712 -8.81141103 22.10647313 -11.39697266 22.13256836 C-15.13059729 22.16928545 -18.86388291 22.18605274 -22.59765625 22.19921875 C-23.73877869 22.21470261 -24.87990112 22.23018646 -26.05560303 22.24613953 C-32.81621166 22.24753187 -38.76592704 21.44724638 -45.27450562 19.59454346 C-56.41691469 16.5587515 -68.75486749 19.33354662 -78.84375 24.44921875 C-91.01819866 31.78747263 -100.76380461 42.85145445 -104.359375 56.89453125 C-106.61760286 72.3024399 -105.00535567 85.82498278 -95.92578125 98.84375 C-94.5757492 100.55129054 -93.2025751 102.24094064 -91.80078125 103.90625 C-91.28 104.56238281 -90.75921875 105.21851563 -90.22265625 105.89453125 C-83.18711679 113.90722896 -71.29273326 119.07354697 -60.75170898 120.10717773 C-58.65965954 120.208378 -56.5826074 120.22847296 -54.48828125 120.21875 C-53.46444336 120.24291992 -53.46444336 120.24291992 -52.41992188 120.26757812 C-48.26008505 120.2714334 -44.7901414 119.66555048 -40.82421875 118.40185547 C-34.46191133 116.62307153 -28.4851693 116.52279284 -21.9140625 116.61328125 C-20.1395295 116.61964851 -20.1395295 116.61964851 -18.32914734 116.62614441 C-14.59028322 116.6427936 -10.85197951 116.68042045 -7.11328125 116.71875 C-4.5618568 116.7338146 -2.01042381 116.74749988 0.54101562 116.75976562 C6.76060442 116.79265194 12.97987153 116.84271229 19.19921875 116.90625 C10.2382955 135.4039476 -9.11097088 147.1879643 -27.80078125 153.90625 C-48.87801387 160.98542192 -73.81715975 158.44124404 -93.60375977 148.79223633 C-101.46849609 144.72571581 -108.28524469 139.92144672 -114.80078125 133.90625 C-115.45304687 133.32230469 -116.1053125 132.73835937 -116.77734375 132.13671875 C-129.1017909 120.54522331 -136.61802849 104.07010811 -140.80078125 87.90625 C-140.97585205 87.32133789 -141.15092285 86.73642578 -141.33129883 86.13378906 C-142.44338758 80.85729518 -142.02941052 75.27564471 -142.05078125 69.90625 C-142.07140625 68.64167969 -142.09203125 67.37710938 -142.11328125 66.07421875 C-142.2083866 42.98739603 -132.25155212 22.73591582 -116.3046875 6.33984375 C-84.11437031 -24.26198174 -35.2482923 -26.35018783 0 0 Z " fill="#FD0202" transform="translate(175.80078125,33.09375)"/>
<path d="M0 0 C9.64578538 9.02977728 13.65692627 19.06812731 14.25610352 31.96582031 C14.6316898 46.7616436 9.28071028 57.08322514 -0.80859375 67.7109375 C-10.48136471 76.85019831 -23.44787237 79.46335603 -36.3046875 79.24609375 C-46.36307103 78.43360674 -53.75631468 74.6600506 -61.125 67.9375 C-62.19234375 67.00744141 -62.19234375 67.00744141 -63.28125 66.05859375 C-72.15310005 57.86537402 -76.08783484 47.25777874 -77.41015625 35.375 C-77.85384127 23.33763254 -73.83207912 12.55348431 -66.015625 3.4921875 C-47.57279293 -15.77739221 -20.5114257 -17.08255785 0 0 Z " fill="#030303" transform="translate(153.125,69.0625)"/>
<path d="M0 0 C48.23444976 0 48.23444976 0 58.7890625 9.6328125 C64.0225368 15.17565474 66.07486982 21.45495274 66.4375 29 C66.15364399 36.96030972 62.80380831 42.83032974 57.07421875 48.19921875 C55.41701517 50.97729456 56.30952592 52.89446709 57 56 C57.84739269 58.30943026 58.76060001 60.59531001 59.72265625 62.859375 C59.98759384 63.48982727 60.25253143 64.12027954 60.52549744 64.76983643 C61.36511073 66.76584626 62.21314209 68.75811949 63.0625 70.75 C63.91439047 72.75656852 64.76437936 74.76388127 65.61021423 76.77301025 C66.37391788 78.58585407 67.14395633 80.3960253 67.91430664 82.20605469 C69 85 69 85 69 87 C60.09 87 51.18 87 42 87 C41.21753906 85.21851563 40.43507812 83.43703125 39.62890625 81.6015625 C38.60679724 79.27603006 37.58466038 76.95050986 36.5625 74.625 C36.04623047 73.449375 35.52996094 72.27375 34.99804688 71.0625 C34.50498047 69.94101563 34.01191406 68.81953125 33.50390625 67.6640625 C33.04830322 66.62717285 32.5927002 65.5902832 32.12329102 64.52197266 C31.44576557 63.00081685 30.74470876 61.48941753 30 60 C29.91550372 58.2595583 29.89276976 56.51590278 29.90234375 54.7734375 C29.90556641 53.7421875 29.90878906 52.7109375 29.91210938 51.6484375 C29.92048828 50.56820312 29.92886719 49.48796875 29.9375 48.375 C29.94201172 47.28703125 29.94652344 46.1990625 29.95117188 45.078125 C29.96298224 42.38536211 29.97945222 39.69270812 30 37 C32.97 36.34 35.94 35.68 39 35 C39.23391191 32.14627473 39.4254195 29.79561384 39 27 C35.0796737 23.2021839 31.71234207 23.71404276 26 23 C26 44.12 26 65.24 26 87 C17.42 87 8.84 87 0 87 C0 58.29 0 29.58 0 0 Z " fill="#060606" transform="translate(172,59)"/>
<path d="M0 0 C0 7.92 0 15.84 0 24 C-3.96 24.495 -3.96 24.495 -8 25 C-10.21750908 26.5392464 -10.21750908 26.5392464 -11 29 C-10.58626916 33.49462134 -9.33609611 36.63099538 -7.0625 40.5 C-2.14357049 48.91173203 -0.95364728 56.30522177 -2 66 C-3.19775418 69.70214928 -4.8513898 72.76810722 -7 76 C-7.70125 77.0725 -8.4025 78.145 -9.125 79.25 C-16.03825185 85.86267568 -23.9536002 89.08857192 -33.4375 89.25 C-34.34371094 89.27578125 -35.24992187 89.3015625 -36.18359375 89.328125 C-39 89 -39 89 -45 86 C-45 78.08 -45 70.16 -45 62 C-42.03 62.33 -39.06 62.66 -36 63 C-33.32265515 62.22303517 -33.32265515 62.22303517 -32 60 C-31.43112589 54.12163422 -32.80803844 50.43838586 -35.4375 45.375 C-39.90464378 36.56455405 -41.67977412 28.09913768 -38.9375 18.375 C-35.82100812 10.05455469 -28.37910519 3.49007942 -20.8125 -0.8125 C-13.3640855 -3.13249796 -7.34551605 -2.44850535 0 0 Z " fill="#040404" transform="translate(323,59)"/>
<path d="M0 0 C8.25 0 16.5 0 25 0 C25 28.38 25 56.76 25 86 C16.75 86 8.5 86 0 86 C0 57.62 0 29.24 0 0 Z " fill="#000000" transform="translate(247,60)"/>
<path d="M0 0 C4.06536307 2.59672405 6.40943319 6.0450434 8.23828125 10.4296875 C9.12003374 17.44658097 9.19156366 23.93853728 4.87109375 29.77734375 C0.48176705 34.21917435 -4.74758207 37.19783083 -11.01171875 37.6796875 C-17.58963741 37.24115959 -21.18919246 35.36536297 -25.57421875 30.6171875 C-29.6611112 25.58646115 -31.28392314 21.09204634 -31.0703125 14.5078125 C-30.11079899 8.04627851 -26.51905993 3.55086915 -21.484375 -0.3828125 C-14.0725827 -5.49207522 -7.52275065 -4.0410527 0 0 Z " fill="#F8F8F8" transform="translate(132.76171875,85.5703125)"/>
</svg>
