<?xml version="1.0" encoding="UTF-8"?>
<svg version="1.1" xmlns="http://www.w3.org/2000/svg" width="4846" height="791">
<path d="M0 0 C43.23 0 86.46 0 131 0 C131 204.6 131 409.2 131 620 C89.75 620 48.5 620 6 620 C5.67 603.5 5.34 587 5 570 C1.535 573.96 1.535 573.96 -2 578 C-28.29376434 606.10712739 -65.5922962 619.92581436 -103 625 C-104.08812988 625.1546875 -104.08812988 625.1546875 -105.19824219 625.3125 C-114.28395365 626.42003122 -123.48664696 626.2439494 -132.625 626.25 C-133.5393985 626.25067474 -134.453797 626.25134949 -135.39590454 626.25204468 C-149.78868251 626.23519297 -163.81979823 625.66308526 -178 623 C-178.88461914 622.83902832 -179.76923828 622.67805664 -180.68066406 622.51220703 C-215.38627497 615.9837392 -248.41517619 602.20426751 -276 580 C-277.53140625 578.77410156 -277.53140625 578.77410156 -279.09375 577.5234375 C-292.60945259 566.50078251 -304.80414533 554.16463149 -315 540 C-315.41556152 539.4234668 -315.83112305 538.84693359 -316.25927734 538.25292969 C-355.48285877 483.11053802 -365.84418552 412.86650348 -355.3125 346.9375 C-349.28211238 311.97389895 -336.01405331 278.62298381 -315 250 C-314.59797363 249.43571289 -314.19594727 248.87142578 -313.78173828 248.29003906 C-281.04001324 202.46512574 -228.68642367 175.17433333 -174 166 C-123.93708398 157.77849287 -67.08642813 163.85459479 -25 194 C-22.55527983 195.77737585 -20.14314112 197.59130642 -17.75 199.4375 C-17.21995361 199.84331299 -16.68990723 200.24912598 -16.14379883 200.66723633 C-10.59764093 205.06532852 -6.10582088 209.89417912 -1 215 C-0.67 144.05 -0.34 73.1 0 0 Z M-196.609375 307.390625 C-220.64685006 335.20927592 -227.56889172 371.13479794 -226 407 C-223.48393083 440.19860398 -210.21059741 471.96698643 -184.67578125 493.91796875 C-158.90653578 513.96907508 -127.34851828 521.89218408 -95 518 C-66.20620803 513.72744927 -40.86579049 499.92866714 -22.58984375 476.97265625 C-5.29482599 452.97322338 2.22509085 424.99458943 2.25 395.6875 C2.25067474 394.9747995 2.25134949 394.262099 2.25204468 393.52780151 C2.23491743 382.12217268 1.64264559 371.12955307 -1 360 C-1.16097168 359.29987793 -1.32194336 358.59975586 -1.48779297 357.87841797 C-5.69678029 340.22169594 -13.69204927 324.15294471 -25 310 C-25.70640625 309.11054688 -26.4128125 308.22109375 -27.140625 307.3046875 C-45.90137639 285.13920715 -73.57436303 273.6632926 -102 271 C-137.36635768 268.50533768 -172.66137009 280.81097119 -196.609375 307.390625 Z " fill="#4D4D4D" transform="translate(1141,115)"/>
<path d="M0 0 C43.23 0 86.46 0 131 0 C131 204.6 131 409.2 131 620 C89.75 620 48.5 620 6 620 C5.67 603.83 5.34 587.66 5 571 C0.05 576.445 0.05 576.445 -5 582 C-8.62721129 585.12690629 -12.20627311 588.10112112 -16 591 C-16.85078125 591.66644531 -17.7015625 592.33289063 -18.578125 593.01953125 C-37.69574164 607.52945885 -60.01304283 616.47137682 -83.3125 621.6875 C-84.19993896 621.88996338 -85.08737793 622.09242676 -86.00170898 622.30102539 C-101.58624579 625.63649723 -117.23426173 626.38181256 -133.125 626.3125 C-134.02041504 626.31034485 -134.91583008 626.3081897 -135.83837891 626.30596924 C-191.54446353 626.09158161 -245.22675877 607.9876923 -286.62109375 570.15625 C-288.77510509 568.20384564 -290.97027726 566.31722641 -293.1875 564.4375 C-297.1967329 560.9224469 -300.60986792 557.10865718 -304 553 C-304.42265137 552.50032715 -304.84530273 552.0006543 -305.28076172 551.48583984 C-333.4856823 518.07778389 -350.02870501 477.15481805 -356 434 C-356.1544458 432.92854736 -356.1544458 432.92854736 -356.31201172 431.83544922 C-364.99673561 368.73743156 -352.0387381 300.05296681 -313.47265625 248.59765625 C-277.74270573 201.78537616 -225.91928228 173.3661698 -167.75 165.25 C-124.34599915 159.56422188 -77.74600338 163.33460136 -39 185 C-38.35305176 185.35852051 -37.70610352 185.71704102 -37.03955078 186.08642578 C-23.34698425 193.75439857 -12.68141023 203.29204062 -1 214 C-0.67 143.38 -0.34 72.76 0 0 Z M-186 298 C-186.90878906 298.69609375 -186.90878906 298.69609375 -187.8359375 299.40625 C-204.77439988 312.4480708 -215.38573013 335.51496592 -220.75 355.5625 C-220.94875732 356.3052417 -221.14751465 357.0479834 -221.35229492 357.81323242 C-224.39739492 369.85919379 -225.37741144 381.73456283 -225.3125 394.125 C-225.31067719 394.84888916 -225.30885437 395.57277832 -225.30697632 396.31860352 C-225.25857373 407.75990407 -224.68274568 418.84125664 -222 430 C-221.83371094 430.70930664 -221.66742188 431.41861328 -221.49609375 432.14941406 C-216.33567537 453.39313639 -206.07881591 471.22049562 -191 487 C-190.17628906 487.91845703 -190.17628906 487.91845703 -189.3359375 488.85546875 C-175.92140814 503.2942602 -156.74913091 511.3552002 -138 516 C-137.06027344 516.23460937 -136.12054688 516.46921875 -135.15234375 516.7109375 C-105.36211983 523.06495744 -73.57125807 516.84992142 -47.78515625 501.02734375 C-45.06954652 499.12992347 -42.53087897 497.13701336 -40 495 C-39.02933594 494.19046875 -38.05867188 493.3809375 -37.05859375 492.546875 C-12.67814986 471.57570991 -0.0298214 441.27641196 2.82128906 409.60522461 C5.18933695 375.08413305 -0.88544377 337.52362819 -23.9609375 310.4140625 C-26.85646405 307.15583561 -29.89742463 304.06003063 -33 301 C-34.21623047 299.76830078 -34.21623047 299.76830078 -35.45703125 298.51171875 C-55.85745428 278.92325285 -85.20668411 270.55040318 -112.95629883 270.69970703 C-139.97625997 271.33493221 -165.71804764 279.87866799 -186 298 Z " fill="#4D4D4D" transform="translate(4715,115)"/>
<path d="M0 0 C43.23 0 86.46 0 131 0 C131.33 114.84 131.66 229.68 132 348 C134.64 345.36 137.28 342.72 140 340 C141.93021585 338.32292721 143.86069949 336.64611851 145.80078125 334.98046875 C148.46477329 332.58145638 150.98337327 330.05107158 153.5 327.5 C157.16846498 323.78153039 160.9314922 320.26331813 164.90625 316.875 C167.53985527 314.51654752 170.01826514 312.01554596 172.5 309.5 C176.16847581 305.78154495 179.93149229 302.26331805 183.90625 298.875 C186.53985527 296.51654752 189.01826514 294.01554596 191.5 291.5 C195.16847581 287.78154495 198.93149229 284.26331805 202.90625 280.875 C205.53985527 278.51654752 208.01826514 276.01554596 210.5 273.5 C214.16847581 269.78154495 217.93149229 266.26331805 221.90625 262.875 C224.53985527 260.51654752 227.01826514 258.01554596 229.5 255.5 C233.16847581 251.78154495 236.93149229 248.26331805 240.90625 244.875 C243.53985527 242.51654752 246.01826514 240.01554596 248.5 237.5 C252.16847581 233.78154495 255.93149229 230.26331805 259.90625 226.875 C262.53985527 224.51654752 265.01826514 222.01554596 267.5 219.5 C271.16847581 215.78154495 274.93149229 212.26331805 278.90625 208.875 C281.53985527 206.51654752 284.01826514 204.01554596 286.5 201.5 C290.16847581 197.78154495 293.93149229 194.26331805 297.90625 190.875 C300.53985241 188.51655008 303.01829474 186.01557363 305.5 183.5 C309.83656298 179.11511877 314.30406855 174.99279733 319 171 C319.33 170.67 319.66 170.34 320 170 C322.01228045 169.90325434 324.02801369 169.87812992 326.0426178 169.87974548 C327.35660049 169.87837082 328.67058319 169.87699615 330.02438354 169.87557983 C331.49420188 169.87911946 332.96402 169.88275427 334.43383789 169.88647461 C335.97091164 169.88675647 337.50798553 169.88659877 339.0450592 169.8860321 C343.2308286 169.88574409 347.41656959 169.89164148 351.60233235 169.89860606 C355.97190156 169.90483891 360.34147135 169.90544334 364.71104431 169.90663147 C372.99127047 169.90974499 381.2714835 169.91795865 389.55170387 169.92798096 C398.97597159 169.93914146 408.40023992 169.94465239 417.8245126 169.94967639 C437.21634919 169.96014125 456.60817354 169.97774109 476 170 C474.22972834 173.79968401 472.02487678 176.19097844 469.01953125 179.140625 C468.52845383 179.62650085 468.0373764 180.11237671 467.53141785 180.61297607 C465.96314352 182.16350303 464.38836518 183.70719156 462.8125 185.25 C461.25530129 186.77930931 459.6996917 188.31014947 458.1471405 189.84417725 C456.72618497 191.24748537 455.30037088 192.64586889 453.87426758 194.04394531 C451.76034661 196.16740799 449.79299928 198.3775403 447.84448242 200.65332031 C443.59463588 205.55665881 439.00359371 210.10947 434.39924622 214.67591858 C432.80646509 216.25573133 431.21700843 217.83882586 429.6282959 219.42272949 C425.68485384 223.35292659 421.73593714 227.27760772 417.78717041 231.20245361 C414.43860973 234.53115714 411.09219307 237.86198931 407.74848938 241.1955719 C406.19584762 242.74181555 404.64018597 244.2849738 403.08435059 245.82800293 C398.49441687 250.39442939 394.05419814 255.01620348 389.8416748 259.93347168 C386.2617344 263.95049369 382.40396542 267.70333186 378.58444214 271.49072266 C377.02526273 273.0369274 375.46941379 274.58641896 373.91430664 276.13671875 C370.05434197 279.98344225 366.18890098 283.82464716 362.3236084 287.66601562 C359.04550558 290.92425696 355.76955008 294.1846299 352.49630737 297.44775391 C350.97690534 298.96076052 349.45448297 300.4706797 347.93188477 301.98046875 C343.37437945 306.51410511 338.96798035 311.10693829 334.78439331 315.98852539 C331.0850466 320.15864973 327.08076128 324.0400055 323.12890625 327.96875 C321.74541237 329.35012146 321.74541237 329.35012146 320.33396912 330.75939941 C317.90811523 333.18147554 315.47927148 335.60053079 313.04974365 338.0189209 C310.56060884 340.49773837 308.07438105 342.97946797 305.58789062 345.4609375 C300.72806542 350.31010924 295.86506822 355.15608863 291 360 C291.93380244 361.41965798 292.87018529 362.83761882 293.80761719 364.25488281 C294.5893631 365.43960175 294.5893631 365.43960175 295.38690186 366.64825439 C297.81111796 370.18253381 300.50865964 373.4596429 303.25 376.75 C308.11593333 382.66234083 312.84083998 388.64925871 317.484375 394.73828125 C320.20461025 398.2873045 323.00717042 401.76811768 325.8125 405.25 C330.10672048 410.58289974 334.2992456 415.98281081 338.4375 421.4375 C343.2798178 427.81653178 348.25853141 434.06423739 353.33349609 440.25927734 C356.64575979 444.31005242 359.89033111 448.40118768 363.0625 452.5625 C366.58284562 457.17869514 370.17033813 461.72946911 373.8125 466.25 C378.10672005 471.58289919 382.29925961 476.98280091 386.4375 482.4375 C391.20987405 488.72469864 396.11828515 494.87842386 401.12475586 500.98022461 C405.01916125 505.74512349 408.78354299 510.59537163 412.5 515.5 C417.31909125 521.85954296 422.27595762 528.08461518 427.33154297 534.25732422 C431.50543449 539.36296708 435.54505381 544.55578015 439.546875 549.796875 C445.38196256 557.4360476 451.35867885 564.96688931 457.38305664 572.45727539 C462.71137428 579.08301352 467.91717867 585.78798882 473.04956055 592.56665039 C477.50065648 598.4177148 482.12252744 604.11696025 486.86303711 609.73608398 C487.37616455 610.35427002 487.88929199 610.97245605 488.41796875 611.609375 C488.86938232 612.14530273 489.3207959 612.68123047 489.78588867 613.23339844 C491.25455911 615.37039809 492.06716798 617.58787997 493 620 C472.45950299 620.32753736 451.91943849 620.57415845 431.3768568 620.72537041 C421.83766906 620.79745896 412.30010689 620.89567142 402.76196289 621.05615234 C394.44503505 621.19601898 386.12928458 621.28608882 377.81121331 621.31723893 C373.40905287 621.33544094 369.01025937 621.3779694 364.60918236 621.48022079 C360.45888419 621.57585702 356.31330944 621.60445374 352.16201401 621.58350754 C350.6457307 621.58733364 349.12927618 621.61485344 347.61395073 621.66887665 C336.49932827 622.04541375 336.49932827 622.04541375 332.31832719 618.62374353 C329.119091 615.27320586 326.54954259 611.56478971 324.07900584 607.65827394 C322.63119534 605.43320126 320.97097566 603.42420045 319.25 601.40625 C318.71052734 600.7565625 318.17105469 600.106875 317.61523438 599.4375 C317.08220703 598.798125 316.54917969 598.15875 316 597.5 C311.30526196 591.83552918 306.70207174 586.1142346 302.18359375 580.30859375 C298.5351487 575.63900956 294.77985286 571.0635992 291 566.5 C286.1895001 560.69185874 281.4670584 554.82778059 276.82763672 548.88232422 C273.42484539 544.52559655 269.94879057 540.23482388 266.4375 535.96484375 C259.39446671 527.3980773 252.38220345 518.80852369 245.5625 510.0625 C240.88268255 504.06169693 236.05641858 498.19037012 231.20263672 492.32983398 C226.99805184 487.24192809 222.88928874 482.08859502 218.82983398 476.88452148 C215.4220128 472.52011892 211.93378139 468.22798358 208.4140625 463.953125 C203.55680893 458.011242 198.7853136 451.9998602 194 446 C191.01067836 447.34155631 188.94032949 448.81752877 186.64355469 451.14526367 C186.00899353 451.78320358 185.37443237 452.42114349 184.72064209 453.07841492 C184.04454895 453.76796768 183.36845581 454.45752045 182.671875 455.16796875 C181.9640387 455.88100662 181.25620239 456.59404449 180.5269165 457.32868958 C178.26314228 459.61026194 176.00614329 461.89838342 173.75 464.1875 C171.50733494 466.45793875 169.26317841 468.72684929 167.01593018 470.99275208 C165.61947599 472.40129031 164.22570033 473.81249126 162.83514404 475.22685242 C161.86438934 476.20740349 161.86438934 476.20740349 160.87402344 477.20776367 C160.31761169 477.77242844 159.76119995 478.3370932 159.18792725 478.91886902 C154.52154059 483.3574818 149.64358326 487.50080049 144.5660553 491.45957947 C136.68020473 497.96880783 131.24511886 503.68292344 130.13358116 514.15191078 C129.85873102 520.05323118 129.95441174 525.9134404 130.12109375 531.81640625 C130.12622729 534.08263724 130.12367445 536.34889878 130.11340332 538.6151123 C130.12872327 546.9315958 130.29169532 555.24728062 130.4375 563.5625 C130.623125 582.186875 130.80875 600.81125 131 620 C87.77 620 44.54 620 0 620 C0 415.4 0 210.8 0 0 Z " fill="#4D4D4D" transform="translate(1880,115)"/>
<path d="M0 0 C0.66 0 1.32 0 2 0 C3.37491299 1.50787161 4.67364462 3.08539761 5.9375 4.6875 C7.14212891 6.19376953 7.14212891 6.19376953 8.37109375 7.73046875 C8.79890137 8.26591309 9.22670898 8.80135742 9.66748047 9.35302734 C11.89732932 12.10908457 14.20018076 14.80231324 16.5 17.5 C20.62185758 22.34886687 24.66993082 27.25162929 28.6875 32.1875 C31.26146822 35.31800189 33.87591194 38.41153171 36.5 41.5 C40.60235907 46.33401255 44.68039195 51.18433912 48.6640625 56.1171875 C50.38926558 58.24628428 52.13369582 60.34960943 53.8984375 62.4453125 C60.73150746 70.67334203 65.17031749 77.22597984 65.05078125 88.296875 C65.03978394 89.62477051 65.03978394 89.62477051 65.02856445 90.97949219 C65.01913818 91.64625977 65.00971191 92.31302734 65 93 C66.17691406 93.43828125 67.35382813 93.8765625 68.56640625 94.328125 C95.45924789 104.57906947 119.35577104 118.40877588 140.62109375 137.84375 C142.77510509 139.79615436 144.97027726 141.68277359 147.1875 143.5625 C151.1967329 147.0775531 154.60986792 150.89134282 158 155 C158.42265137 155.49967285 158.84530273 155.9993457 159.28076172 156.51416016 C167.89747661 166.7204535 175.19089083 177.51669232 182 189 C182.38140137 189.63873047 182.76280273 190.27746094 183.15576172 190.93554688 C203.76222348 225.93518041 212.16527638 268.60997821 212.1875 308.8125 C212.19974609 309.93591797 212.21199219 311.05933594 212.22460938 312.21679688 C212.24454375 324.30367523 211.01609291 335.80688509 210 348 C98.13 348 -13.74 348 -129 348 C-118.62438712 381.20196123 -102.14830349 405.40957593 -71.1875 421.75 C-32.02994249 440.4278473 16.35787492 441.15578183 57 427 C75.91236222 420.00823186 92.74785658 409.48532411 107.09765625 395.30078125 C109 394 109 394 110.93359375 393.96484375 C113.98503042 395.49344624 115.75072491 397.69278843 118 400.25 C118.98263815 401.35325197 119.96572626 402.45610331 120.94921875 403.55859375 C121.45372559 404.1294873 121.95823242 404.70038086 122.47802734 405.28857422 C124.88652171 407.99687475 127.34925622 410.6540666 129.8125 413.3125 C130.30484131 413.84576904 130.79718262 414.37903809 131.30444336 414.9284668 C135.20792032 419.15467955 139.13366486 423.35987099 143.0625 427.5625 C148.16480571 433.02076436 153.2334098 438.50765497 158.2734375 444.0234375 C160.73160866 446.71178124 163.2055436 449.3852459 165.68237305 452.05639648 C167.68243552 454.21718661 169.67266472 456.38693197 171.66357422 458.55615234 C172.87848066 459.86871294 174.1120893 461.16390045 175.34765625 462.45703125 C175.99605469 463.15183594 176.64445313 463.84664062 177.3125 464.5625 C177.86550781 465.14128906 178.41851563 465.72007812 178.98828125 466.31640625 C180 468 180 468 179.75732422 469.88623047 C178.86236054 472.38416584 177.76136243 473.62610754 175.89453125 475.50390625 C175.24798584 476.15665527 174.60144043 476.8094043 173.93530273 477.48193359 C173.23477783 478.16852051 172.53425293 478.85510742 171.8125 479.5625 C171.09070557 480.27486816 170.36891113 480.98723633 169.62524414 481.72119141 C163.13311077 488.03466833 156.34801593 493.71654486 149 499 C148.14535156 499.62116699 148.14535156 499.62116699 147.2734375 500.25488281 C130.35280599 512.42370021 111.68809205 521.30837688 92 528 C90.78111084 528.41523926 90.78111084 528.41523926 89.53759766 528.83886719 C17.60193932 552.86088562 -70.08541339 547.28711777 -138.15625 514.04296875 C-149.28331087 508.44788881 -159.93294177 502.33841001 -170 495 C-170.5583252 494.59571777 -171.11665039 494.19143555 -171.69189453 493.77490234 C-179.96658217 487.73234462 -187.60452123 481.0881689 -195 474 C-195.58539551 473.44715332 -196.17079102 472.89430664 -196.77392578 472.32470703 C-227.11938081 443.56082612 -249.60602119 403.38928366 -257 362 C-257.83402344 361.85304688 -258.66804688 361.70609375 -259.52734375 361.5546875 C-274.20325976 358.62959084 -280.99586777 351.27191405 -290 340 C-291.49820771 338.16520171 -292.99810219 336.33177894 -294.5 334.5 C-295.221875 333.613125 -295.94375 332.72625 -296.6875 331.8125 C-299.26146392 328.68200334 -301.87569086 325.58827539 -304.5 322.5 C-308.61864958 317.65319138 -312.66600799 312.75469269 -316.6796875 307.8203125 C-318.8257969 305.21174181 -321.00033662 302.63158914 -323.19042969 300.06005859 C-325.47046208 297.38191299 -327.73704811 294.69258226 -330 292 C-330.75539063 291.1028125 -331.51078125 290.205625 -332.2890625 289.28125 C-332.93617188 288.4871875 -333.58328125 287.693125 -334.25 286.875 C-334.81203125 286.19179688 -335.3740625 285.50859375 -335.953125 284.8046875 C-336.29859375 284.20914062 -336.6440625 283.61359375 -337 283 C-336 280 -336 280 -332.93774414 278.26098633 C-331.55853478 277.60737348 -330.17384148 276.96526229 -328.78515625 276.33203125 C-328.03563187 275.98026825 -327.28610748 275.62850525 -326.51387024 275.26608276 C-324.03448184 274.10518729 -321.54860219 272.958938 -319.0625 271.8125 C-317.33172659 271.00531463 -315.60142547 270.19711588 -313.87158203 269.38793945 C-310.31689743 267.72665564 -306.75979234 266.07072881 -303.20068359 264.41894531 C-298.42377133 262.20016756 -293.65684511 259.96085296 -288.89453125 257.7109375 C-287.82338829 257.20500816 -287.82338829 257.20500816 -286.73060608 256.68885803 C-285.31391399 256.01969519 -283.89723193 255.35051109 -282.4805603 254.68130493 C-270.64120214 249.0932377 -258.77285805 243.56920721 -246.89160156 238.07080078 C-236.11777531 233.07466401 -225.38897555 227.98492608 -214.66033936 222.89266968 C-205.28069103 218.44118294 -195.89737899 213.99889637 -186.48364258 209.61987305 C-184.08728574 208.50267563 -181.69385351 207.37918241 -179.3034668 206.24926758 C-173.2549954 203.39451202 -167.18464236 200.63336894 -161.02671814 198.02148438 C-136.63071028 188.08373312 -136.63071028 188.08373312 -120.25878906 168.27050781 C-118.02180567 164.2356076 -115.19329274 160.62797342 -112.4375 156.9375 C-111.34963099 155.43853938 -110.26496413 153.93724931 -109.18359375 152.43359375 C-108.65362793 151.69737793 -108.12366211 150.96116211 -107.57763672 150.20263672 C-104.53412685 145.95340334 -101.53047572 141.6761254 -98.52368164 137.40087891 C-94.30139238 131.40593639 -90.01498685 125.45878773 -85.71484375 119.51953125 C-82.46049295 115.02431288 -79.22002572 110.51986468 -76 106 C-72.23243835 100.71157367 -68.43292858 95.44692136 -64.625 90.1875 C-60.37757113 84.31868728 -56.16751589 78.42581594 -52 72.5 C-47.28957156 65.80221343 -42.51683345 59.15192644 -37.71484375 52.51953125 C-34.46049257 48.02431235 -31.22008575 43.51982227 -28 39 C-23.64145644 32.88357601 -19.24935555 26.79174032 -14.84057617 20.71142578 C-12.2057909 17.07375258 -9.58888197 13.42644216 -7.01953125 9.7421875 C-6.560625 9.08734375 -6.10171875 8.4325 -5.62890625 7.7578125 C-4.77042244 6.52995138 -3.91728294 5.29833108 -3.0703125 4.0625 C-2.09602083 2.67255489 -1.05435246 1.33023779 0 0 Z M10.25390625 186.24609375 C9.33706727 187.29296199 8.44036402 188.35774003 7.5625 189.4375 C7.12357422 189.94732422 6.68464844 190.45714844 6.23242188 190.98242188 C5.30772026 192.05923891 4.3908803 193.14284416 3.48095703 194.23217773 C-1.802005 200.53846327 -7.35146783 206.58392908 -13 212.5625 C-13.67289063 213.27857422 -14.34578125 213.99464844 -15.0390625 214.73242188 C-26.32933859 226.70926881 -26.32933859 226.70926881 -32 231.5 C-34.60647609 233.7455794 -37.08934521 236.04551512 -39.5 238.5 C-43.16280049 242.2119656 -47.04064892 245.60900738 -51 249 C-52.07832695 249.93075566 -53.15643466 250.86176537 -54.234375 251.79296875 C-60.76720973 257.42481632 -67.34906318 262.96791075 -74.0859375 268.35546875 C-75.03339844 269.16951172 -75.03339844 269.16951172 -76 270 C-76 270.33 -76 270.66 -76 271 C-21.88 271 32.24 271 88 271 C87.28948031 264.60532275 86.47598594 259.3834717 84.4375 253.4375 C84.04268433 252.27903564 84.04268433 252.27903564 83.63989258 251.09716797 C79.03375765 238.03778165 72.84061495 226.68046074 64 216 C63.34128906 215.18917969 62.68257812 214.37835938 62.00390625 213.54296875 C50.02171464 199.39096377 33.43850369 189.70261698 15.9296875 184 C12.78667828 183.69086042 12.78667828 183.69086042 10.25390625 186.24609375 Z " fill="#4D4C4C" transform="translate(558,199)"/>
<path d="M0 0 C36.72841298 35.76469368 51.06952973 89.90249973 52.05519032 139.79356194 C52.14570038 147.75995545 52.1253797 155.72659744 52.11352539 163.69335938 C52.11324288 166.36563722 52.11335863 169.03791231 52.1139679 171.71018982 C52.11448886 177.43339002 52.1113871 183.1565787 52.10573006 188.879776 C52.09755659 197.15426403 52.09499388 205.42874656 52.09374207 213.70323819 C52.09156067 227.13240282 52.08492548 240.56156134 52.07543945 253.99072266 C52.06624163 267.02555308 52.05918391 280.06038183 52.05493164 293.09521484 C52.05466364 293.9086702 52.05439565 294.72212557 52.05411953 295.56023109 C52.05203975 301.92325017 52.05008295 308.28626929 52.04816496 314.64928842 C52.03875407 345.7661979 52.0186304 376.88309203 52 408 C8.77 408 -34.46 408 -79 408 C-79.04898438 390.40171875 -79.09796875 372.8034375 -79.1484375 354.671875 C-79.18383323 343.50650557 -79.21971921 332.34114126 -79.2578125 321.17578125 C-79.27781699 315.30680388 -79.29770087 309.43782612 -79.31738281 303.56884766 C-79.31985425 302.83338569 -79.32232569 302.09792372 -79.32487202 301.34017503 C-79.36446452 289.5058356 -79.39726247 277.67148676 -79.42749982 265.83712015 C-79.45874302 253.66902207 -79.49740609 241.50096344 -79.54279006 229.33290982 C-79.56803714 222.50794135 -79.58999075 215.68299711 -79.60334396 208.85799408 C-79.61627855 202.41971699 -79.63845301 195.98153462 -79.66738319 189.54331017 C-79.67637069 187.19416269 -79.68212824 184.845 -79.68421364 182.49583626 C-79.70246762 165.03930017 -79.88629384 147.27872068 -84.1875 130.25 C-84.40035645 129.38785889 -84.61321289 128.52571777 -84.83251953 127.63745117 C-88.036046 115.32083681 -92.95478343 103.96074433 -101 94 C-101.61617187 93.22140625 -102.23234375 92.4428125 -102.8671875 91.640625 C-115.58780899 76.41674868 -134.78295617 68.93097297 -154.07421875 66.31640625 C-183.71651336 63.92732579 -215.15017972 68.009072 -238.6015625 87.85546875 C-239.39304687 88.56316406 -240.18453125 89.27085937 -241 90 C-241.83273438 90.73863281 -242.66546875 91.47726562 -243.5234375 92.23828125 C-250.41070316 98.71231097 -255.3010671 105.88046872 -260 114 C-260.55558594 114.94359375 -261.11117187 115.8871875 -261.68359375 116.859375 C-275.42062367 142.12123781 -276.13019966 171.68610836 -276.20532227 199.6809082 C-276.21491609 201.9586606 -276.22492702 204.23641127 -276.23532104 206.51416016 C-276.26221332 212.66400953 -276.28330716 218.81386646 -276.30332303 224.96374154 C-276.32527999 231.40326559 -276.35262091 237.84276678 -276.37937927 244.28227234 C-276.42352622 255.079692 -276.4643831 265.87711874 -276.50268555 276.67456055 C-276.54212446 287.78980425 -276.58358124 298.90503746 -276.62768555 310.02026367 C-276.63043505 310.7138229 -276.63318456 311.40738214 -276.63601738 312.12195832 C-276.65995618 318.15610678 -276.68404656 324.19025463 -276.70815182 330.22440243 C-276.81152184 356.14958128 -276.90494695 382.07478623 -277 408 C-320.23 408 -363.46 408 -408 408 C-408 259.5 -408 111 -408 -42 C-366.75 -42 -325.5 -42 -283 -42 C-282.67 -25.5 -282.34 -9 -282 8 C-279.69 5.69 -277.38 3.38 -275 1 C-262.48564189 -10.08414576 -248.80061372 -19.28674484 -234 -27 C-233.39607422 -27.31565918 -232.79214844 -27.63131836 -232.16992188 -27.95654297 C-160.16709124 -64.96568176 -59.66537935 -55.618381 0 0 Z " fill="#4D4D4D" transform="translate(4257,327)"/>
<path d="M0 0 C3.42928431 -0.03683002 6.84486232 0.00735711 10.2734375 0.08984375 C11.06556641 0.10772949 11.85769531 0.12561523 12.67382812 0.14404297 C72.37037735 1.65297788 131.92836373 15.77874766 174.5078125 59.98046875 C196.61735184 83.64858589 208.58347477 114.36943872 215.0234375 145.65234375 C215.22219482 146.60761963 215.42095215 147.56289551 215.62573242 148.54711914 C219.28227677 167.30316981 219.55553772 185.90541343 219.50048828 204.94995117 C219.49880269 207.71134042 219.50015526 210.47272631 219.50137329 213.2341156 C219.50241379 219.14062014 219.4962255 225.04707994 219.48489761 230.95357323 C219.46853092 239.49299687 219.46342329 248.03239924 219.46092163 256.57183687 C219.45656189 270.43193666 219.4432999 284.29201269 219.42431641 298.15209961 C219.40591278 311.60294479 219.39180129 325.05378344 219.38330078 338.50463867 C219.38276479 339.34444757 219.38222879 340.18425646 219.38167655 341.04951411 C219.37751686 347.61895121 219.37360331 354.18838844 219.36976743 360.75782573 C219.35095525 392.86852022 219.31070569 424.97915512 219.2734375 457.08984375 C178.6834375 457.08984375 138.0934375 457.08984375 96.2734375 457.08984375 C95.9434375 440.25984375 95.6134375 423.42984375 95.2734375 406.08984375 C92.6334375 409.38984375 89.9934375 412.68984375 87.2734375 416.08984375 C66.81973374 441.2500226 36.50599595 454.21559547 5.2734375 460.08984375 C3.98783936 460.33541016 3.98783936 460.33541016 2.67626953 460.5859375 C-48.40536135 469.80940676 -108.62935513 463.00429005 -152.22436523 433.50708008 C-180.10952502 413.93657014 -199.54106107 385.67718319 -205.6953125 352.01953125 C-211.28723792 318.49283174 -206.70607934 282.87101806 -187.171875 254.40234375 C-160.49438587 217.30091289 -116.06034908 202.66400714 -72.86328125 195.57421875 C-65.509156 194.43858795 -58.14644955 193.63109996 -50.7265625 193.08984375 C-49.67139938 193.00720779 -48.61623627 192.92457184 -47.52909851 192.83943176 C-33.48470071 191.86549775 -19.45086498 191.9634705 -5.37890625 191.9921875 C-2.66793342 191.99461904 0.04303936 191.9955273 2.75401306 191.99647522 C9.11416307 191.99955728 15.47429546 192.00772759 21.83443779 192.01782471 C29.08741223 192.02908412 36.34038761 192.03452082 43.59336865 192.03952014 C58.48673467 192.04991359 73.38008431 192.06745111 88.2734375 192.08984375 C87.98040548 189.09577159 87.68134166 186.10250009 87.37890625 183.109375 C87.29765503 182.27281372 87.21640381 181.43625244 87.13269043 180.57434082 C85.35361966 163.15127957 80.11527274 147.34447929 68.2734375 134.08984375 C67.66886719 133.4040625 67.06429687 132.71828125 66.44140625 132.01171875 C49.52922242 113.96287083 22.2098462 106.88128767 -1.75024414 105.88305664 C-5.90930658 105.7638301 -10.0661289 105.75529375 -14.2265625 105.77734375 C-14.96534637 105.7794989 -15.70413025 105.78165405 -16.46530151 105.78387451 C-60.09562769 105.98675444 -103.42526265 118.49157041 -139.09863281 143.93579102 C-140.62160584 145.01543911 -142.17325878 146.05430794 -143.7265625 147.08984375 C-149.16841463 138.09895762 -153.93370545 128.81412941 -158.6015625 119.40234375 C-162.5485825 111.44585543 -166.50028319 103.4985508 -170.6640625 95.65234375 C-171.04006592 94.94045898 -171.41606934 94.22857422 -171.8034668 93.49511719 C-173.73721796 89.83651876 -175.67718955 86.18133839 -177.62695312 82.53125 C-179.38405596 79.23934207 -181.12773709 75.94055897 -182.86502075 72.63815308 C-183.56034053 71.32193043 -184.26006479 70.00802446 -184.96432495 68.69656372 C-185.95235908 66.85552002 -186.92492788 65.00705079 -187.89453125 63.15625 C-188.46453857 62.08318604 -189.0345459 61.01012207 -189.62182617 59.90454102 C-190.7265625 57.08984375 -190.7265625 57.08984375 -190.64575195 54.87939453 C-189.42886661 52.51026583 -188.14470942 51.73432953 -185.8515625 50.390625 C-185.04050049 49.90835449 -184.22943848 49.42608398 -183.39379883 48.92919922 C-182.51361084 48.42533691 -181.63342285 47.92147461 -180.7265625 47.40234375 C-179.81737061 46.8727002 -178.90817871 46.34305664 -177.97143555 45.79736328 C-175.23195853 44.21219389 -172.48091064 42.64899517 -169.7265625 41.08984375 C-168.99775879 40.66977051 -168.26895508 40.24969727 -167.51806641 39.81689453 C-117.34995513 11.01959907 -57.01707202 1.37462543 0 0 Z M-68.671875 288.8359375 C-77.82155127 298.87274968 -80.16450079 310.9754972 -79.94140625 324.234375 C-79.24522839 336.72760307 -73.86716901 348.52164313 -64.7265625 357.08984375 C-50.87258306 368.59817588 -32.63570039 374.46097326 -14.7265625 375.08984375 C-13.62441406 375.12980469 -12.52226562 375.16976562 -11.38671875 375.2109375 C15.67744113 375.69371895 40.9286806 369.26378608 62.2734375 352.08984375 C62.96566406 351.56132813 63.65789063 351.0328125 64.37109375 350.48828125 C74.93394596 341.96240054 86.62820355 327.09125447 88.6875 313.32107544 C89.24765737 306.07637848 89.00719648 298.84409073 88.7734375 291.58984375 C88.73321156 289.39850342 88.69672707 287.20709108 88.6640625 285.015625 C88.57690255 279.70543046 88.44386999 274.39798497 88.2734375 269.08984375 C75.26790677 269.04326699 62.26239626 269.00784679 49.25679874 268.98621941 C43.2161722 268.97583335 37.1756032 268.96177 31.13500977 268.93896484 C25.29297262 268.91705022 19.45099044 268.90523631 13.60891533 268.90008926 C11.39287897 268.89642664 9.17684522 268.88927571 6.9608326 268.87838364 C-19.38111435 268.75419363 -48.55960128 269.35011165 -68.671875 288.8359375 Z " fill="#4D4D4D" transform="translate(2558.7265625,277.91015625)"/>
<path d="M0 0 C43.23 0 86.46 0 131 0 C131.03738281 18.01980469 131.07476563 36.03960937 131.11328125 54.60546875 C131.14356672 66.03972075 131.17457986 77.47396387 131.20898438 88.90820312 C131.22703122 94.91870052 131.24489469 100.92919842 131.26245117 106.93969727 C131.2657627 108.06948501 131.2657627 108.06948501 131.26914114 109.22209674 C131.30439402 121.34024032 131.32931824 133.45838385 131.35034702 145.57655951 C131.37220327 158.0373483 131.40534562 170.49807126 131.44870156 182.95880395 C131.47505025 190.63151585 131.49286869 198.30414591 131.49934604 205.97690073 C131.50528416 211.8863843 131.52701682 217.79574795 131.55427551 223.70517349 C131.56298707 226.11033781 131.56679282 228.51552636 131.56500816 230.9207058 C131.54899083 262.50011762 135.14284123 296.31006901 158.15234375 320.23828125 C176.92984546 337.76174946 201.99356801 342.79067414 226.90771484 342.08886719 C248.65763833 341.16506647 270.39681143 334.44963692 287 320 C287.57492187 319.566875 288.14984375 319.13375 288.7421875 318.6875 C299.81159235 310.11763818 306.3841976 297.4966313 312 285 C312.47179688 284.00097656 312.94359375 283.00195312 313.4296875 281.97265625 C320.90438574 264.67871157 323.13758905 244.40912194 323.15821838 225.71772766 C323.16562535 224.25805212 323.16562535 224.25805212 323.17318195 222.76888818 C323.18841418 219.54164641 323.19687842 216.3144243 323.20532227 213.0871582 C323.21491204 210.76044037 323.22492276 208.43372425 323.23532104 206.10700989 C323.26225704 199.81448448 323.28332753 193.52195165 323.30332303 187.22940087 C323.32525265 180.64439066 323.35260709 174.059403 323.37937927 167.47441101 C323.42371442 156.42964727 323.46440656 145.38487419 323.50268555 134.34008789 C323.54210578 122.96865942 323.58355837 111.5972413 323.62768555 100.22583008 C323.63180981 99.16205596 323.63180981 99.16205596 323.63601738 98.07679147 C323.65995519 91.90701264 323.68404599 85.73723442 323.70815182 79.56745625 C323.81157923 53.04499087 323.90496627 26.52249985 324 0 C367.23 0 410.46 0 455 0 C455 148.5 455 297 455 450 C414.08 450 373.16 450 331 450 C330.67 433.17 330.34 416.34 330 399 C325.71 403.29 321.42 407.58 317 412 C314.22288068 414.36371276 311.54055503 416.59542088 308.625 418.75 C307.90860352 419.2860083 307.19220703 419.8220166 306.45410156 420.37426758 C262.73159685 452.58704009 207.81434214 461.60076307 154.6809082 454.48046875 C109.6846257 447.63081995 66.72458364 428.09628824 38.40649414 391.32714844 C36.16768754 388.28351018 34.06084266 385.16620373 32 382 C31.58202148 381.36723145 31.16404297 380.73446289 30.73339844 380.08251953 C17.07797614 359.11730671 9.15200298 335.50136223 4.3125 311.125 C4.10971436 310.11002441 3.90692871 309.09504883 3.69799805 308.04931641 C0.13064712 289.11182173 -0.28280205 270.44825184 -0.22705078 251.23168945 C-0.22536515 248.4801523 -0.22671778 245.7286185 -0.22793579 242.9770813 C-0.22897626 237.09185762 -0.22278838 231.20667884 -0.21146011 225.32146645 C-0.19509287 216.81281188 -0.18998573 208.30417867 -0.18748413 199.79551008 C-0.18312447 185.98532454 -0.16986271 172.17516285 -0.15087891 158.36499023 C-0.13247506 144.96264766 -0.11836368 131.56031164 -0.10986328 118.15795898 C-0.10932729 117.32116759 -0.10879129 116.4843762 -0.10823905 115.62222749 C-0.10407935 109.07638736 -0.10016581 102.53054709 -0.09632993 95.98470676 C-0.07751801 63.98978261 -0.0372684 31.99491826 0 0 Z " fill="#4D4D4D" transform="translate(1347,285)"/>
<path d="M0 0 C-1.55533786 4.78425563 -4.26281783 8.21564977 -7.3125 12.125 C-11.9086786 18.1246346 -16.274417 24.23421689 -20.5 30.5 C-25.01012514 37.17251391 -29.68065829 43.67459601 -34.55297852 50.08642578 C-38.63703933 55.47413866 -42.54997663 60.96849275 -46.42993164 66.50439453 C-50.07546432 71.70248968 -53.77318427 76.85990837 -57.5 82 C-61.70704228 87.80553095 -65.8759547 93.63522 -70 99.5 C-76.7921047 109.15523463 -83.71820213 118.71205932 -90.64550781 128.27050781 C-96.47462861 136.31628773 -102.28327116 144.37384972 -108 152.5 C-114.79232824 162.15508101 -121.71819915 171.7120552 -128.64550781 181.27050781 C-134.97673685 190.00933434 -141.26835014 198.77224649 -147.47631836 207.59912109 C-151.69860762 213.59406361 -155.98501315 219.54121227 -160.28515625 225.48046875 C-163.53950705 229.97568712 -166.77997428 234.48013532 -170 239 C-173.76756165 244.28842633 -177.56707142 249.55307864 -181.375 254.8125 C-185.62242981 260.68131403 -189.83239752 266.57424407 -194 272.5 C-200.79218798 282.15517744 -207.71820101 291.71205777 -214.64550781 301.27050781 C-220.97673685 310.00933434 -227.26835014 318.77224649 -233.47631836 327.59912109 C-237.15521359 332.82253524 -240.87937665 338.01175947 -244.625 343.1875 C-245.16995117 343.9405542 -245.71490234 344.6936084 -246.27636719 345.46948242 C-247.07929199 346.57900269 -247.07929199 346.57900269 -247.8984375 347.7109375 C-250.27398825 350.99396913 -252.6472342 354.27853956 -255.00317383 357.57568359 C-255.83163992 358.72972858 -256.66740026 359.87857333 -257.51049805 361.02197266 C-259.4727895 363.70885651 -261.16394819 366.32405685 -262.66796875 369.296875 C-269.18702962 381.32763634 -281.33531911 385.18614545 -293.32714844 390.39257812 C-297.94528191 392.40130683 -302.50263835 394.53658673 -307.0637207 396.67114258 C-310.52328971 398.29014777 -313.98962778 399.89394372 -317.45703125 401.49609375 C-325.86768522 405.38964704 -334.24654884 409.35024597 -342.625 413.3125 C-344.15486506 414.03581041 -345.6847316 414.75911769 -347.21459961 415.48242188 C-349.51902067 416.57200122 -351.82342023 417.66162593 -354.12776184 418.75137329 C-362.24848761 422.59136928 -370.37289459 426.42352549 -378.5 430.25 C-379.20815857 430.58345428 -379.91631714 430.91690857 -380.64593506 431.26046753 C-391.11250066 436.18732716 -401.6002094 441.06695794 -412.09912109 445.92456055 C-421.30758232 450.19417568 -430.481466 454.53460877 -439.65063477 458.88781738 C-451.83286436 464.6712212 -464.01825443 470.44690592 -476.25 476.125 C-477.32652832 476.62781494 -478.40305664 477.13062988 -479.51220703 477.64868164 C-480.48270996 478.09719482 -481.45321289 478.54570801 -482.453125 479.0078125 C-483.29004883 479.39598145 -484.12697266 479.78415039 -484.98925781 480.18408203 C-487 481 -487 481 -489 481 C-488.41138043 475.14519737 -486.8041341 470.10113905 -484.6875 464.625 C-484.33848633 463.71943359 -483.98947266 462.81386719 -483.62988281 461.88085938 C-466.71176133 419.00996068 -440.40710844 380.24728331 -411 345 C-410.50870605 344.40960938 -410.01741211 343.81921875 -409.51123047 343.2109375 C-404.22018058 336.86523464 -398.83397005 330.61716795 -393.265625 324.51171875 C-391.3889231 322.43116819 -389.54440153 320.32989898 -387.70703125 318.21484375 C-384.039415 314.0159373 -380.26243829 309.93060214 -376.4375 305.875 C-375.75147705 305.14724365 -375.0654541 304.4194873 -374.35864258 303.66967773 C-369.69357555 298.74189575 -364.97524101 293.87118143 -360.1875 289.0625 C-359.60734131 288.47774902 -359.02718262 287.89299805 -358.42944336 287.29052734 C-356.04793766 284.91790389 -353.806275 282.87085 -351 281 C-351.66 279.68 -352.32 278.36 -353 277 C-353.68916504 277.68989014 -354.37833008 278.37978027 -355.08837891 279.09057617 C-357.65708314 281.65933675 -360.23226528 284.22152676 -362.80844116 286.78279114 C-365.33510504 289.29594216 -367.8590025 291.81186425 -370.3828125 294.32788086 C-371.7064551 295.64649492 -373.03099387 296.96421003 -374.35644531 298.28100586 C-381.12778947 305.00941882 -387.83460121 311.70357097 -394 319 C-395.61967817 320.77570221 -397.24411718 322.54708307 -398.875 324.3125 C-403.79624205 329.71476571 -408.4139906 335.31305671 -413 341 C-413.97407866 342.18326549 -414.94941 343.36550053 -415.92578125 344.546875 C-457.21358146 394.63350433 -501.78530474 458.69252227 -504 526 C-504.03996094 526.99386719 -504.07992187 527.98773437 -504.12109375 529.01171875 C-504.60230709 552.02503901 -499.4020304 576.91225973 -486 596 C-484.81857422 595.76603516 -484.81857422 595.76603516 -483.61328125 595.52734375 C-471.62423838 593.38492307 -460.39716874 592.8094347 -450 600 C-445.71561406 603.65463283 -443.13912047 608.51798271 -442 614 C-441.44132676 621.05324965 -441.72293326 627.31111646 -444 634 C-444 635.32 -444 636.64 -444 638 C-441.5079428 640.07285905 -441.5079428 640.07285905 -438.25 642 C-419.77509972 654.09907914 -407.18355549 672.48589703 -402.18432617 694.04492188 C-398.23259028 713.55063923 -400.18356962 736.9619817 -411 754 C-427.52517301 778.78775952 -469.34017643 783.93320685 -496 791 C-495.37561605 786.32164491 -493.39624693 782.47999386 -491.3125 778.3125 C-478.70864831 752.24241289 -472.44379425 722.59725816 -481.1875 694.375 C-482.09874946 691.90681576 -483.03634693 689.4481997 -484 687 C-484.32532715 686.05737305 -484.32532715 686.05737305 -484.65722656 685.09570312 C-486.17410324 680.76623772 -487.74452136 677.26603124 -491 674 C-495.16902518 672.99855162 -498.84865252 672.91558111 -503.10546875 673.01171875 C-509.65436721 672.99201294 -513.90134265 670.77219954 -518.8125 666.625 C-525.88928567 658.1328572 -526.714438 651.87951206 -526 641 C-525.03926082 636.20292989 -523.63924696 632.05187563 -521.09375 627.86328125 C-520.02655232 625.37037156 -519.91166606 624.31107633 -520.66137695 621.67089844 C-521.93773561 618.89937677 -523.34574498 616.23813659 -524.8125 613.5625 C-542.30172067 579.34015609 -547.04255624 543.77102727 -540 506 C-540.91249512 506.43119141 -541.82499023 506.86238281 -542.76513672 507.30664062 C-599.93862438 534.32168712 -599.93862438 534.32168712 -628.49975586 547.62597656 C-640.88183281 553.39787875 -653.23184552 559.23747571 -665.58044434 565.08058167 C-668.36236017 566.39602532 -671.14561684 567.70861898 -673.92889404 569.0211792 C-676.06387174 570.03018628 -678.19625947 571.04454333 -680.32861328 572.05908203 C-681.69946576 572.70752278 -683.07039361 573.3558042 -684.44140625 574.00390625 C-685.07441147 574.30675034 -685.70741669 574.60959442 -686.35960388 574.9216156 C-690.77292045 577 -690.77292045 577 -693 577 C-690.82053239 572.43749513 -687.9819377 568.40952932 -685.125 564.25 C-684.54564697 563.40453613 -683.96629395 562.55907227 -683.36938477 561.68798828 C-679.20472741 555.65141572 -674.88562589 549.7552077 -670.44946289 543.91650391 C-666.36424637 538.52806513 -662.45075235 533.03254736 -658.57006836 527.49560547 C-654.92453568 522.29751032 -651.22681573 517.14009163 -647.5 512 C-643.29295772 506.19446905 -639.1240453 500.36478 -635 494.5 C-628.2078953 484.84476537 -621.28179787 475.28794068 -614.35449219 465.72949219 C-608.52537139 457.68371227 -602.71672884 449.62615028 -597 441.5 C-590.20767176 431.84491899 -583.28180085 422.2879448 -576.35449219 412.72949219 C-570.02326315 403.99066566 -563.73164986 395.22775351 -557.52368164 386.40087891 C-553.30139238 380.40593639 -549.01498685 374.45878773 -544.71484375 368.51953125 C-541.46049295 364.02431288 -538.22002572 359.51986468 -535 355 C-531.23243835 349.71157367 -527.43292858 344.44692136 -523.625 339.1875 C-519.37757019 333.31868597 -515.16760248 327.42575593 -511 321.5 C-504.20781202 311.84482256 -497.28179899 302.28794223 -490.35449219 292.72949219 C-484.02326315 283.99066566 -477.73164986 275.22775351 -471.52368164 266.40087891 C-467.30139238 260.40593639 -463.01498685 254.45878773 -458.71484375 248.51953125 C-455.05959378 243.47055287 -451.42632457 238.40671305 -447.81030273 233.32958984 C-445.48886489 230.07387493 -443.15469586 226.82784094 -440.80859375 223.58984375 C-440.25679443 222.82631592 -439.70499512 222.06278809 -439.13647461 221.27612305 C-438.00305433 219.71598037 -436.86190262 218.16142555 -435.71313477 216.61254883 C-433.27971303 213.30734819 -430.95965892 210.1167663 -429.15625 206.421875 C-423.06153653 194.95273238 -411.74555164 191.56884015 -400.3334198 186.73558044 C-392.59656266 183.44376437 -385.03012745 179.80261788 -377.44833374 176.17123413 C-373.36626689 174.2184546 -369.27699481 172.28091433 -365.1875 170.34375 C-364.39474167 169.96804367 -363.60198334 169.59233734 -362.78520203 169.20524597 C-354.77698482 165.41383587 -346.73821375 161.68988366 -338.6953125 157.97265625 C-328.76791575 153.37579009 -318.88268593 148.69203595 -309 144 C-298.02078408 138.78736083 -287.03255296 133.59903116 -276 128.5 C-265.00993962 123.42011744 -254.06260914 118.25412211 -243.125 113.0625 C-231.72489797 107.65140922 -220.31575229 102.26214143 -208.875 96.9375 C-197.98345673 91.86805919 -187.1111935 86.75914815 -176.25 81.625 C-174.72705121 80.90519115 -173.20410199 80.1853832 -171.68115234 79.46557617 C-169.39444929 78.38475276 -167.10775078 77.30391975 -164.82107544 76.22303772 C-156.71687068 72.39270431 -148.60977055 68.56853495 -140.5 64.75 C-139.79166016 64.41645508 -139.08332031 64.08291016 -138.35351562 63.73925781 C-129.0001023 59.33639308 -119.63213517 54.96640583 -110.25 50.625 C-99.17781263 45.50107441 -88.14694927 40.29338539 -77.125 35.0625 C-61.96187364 27.86702796 -46.77729853 20.72119542 -31.5546875 13.65234375 C-28.47663814 12.22155817 -25.4005262 10.78674778 -22.32525635 9.3500061 C-19.30164397 7.93850145 -16.27564949 6.53213252 -13.25 5.125 C-12.14172852 4.60631348 -11.03345703 4.08762695 -9.89160156 3.55322266 C-8.8806543 3.0844873 -7.86970703 2.61575195 -6.828125 2.1328125 C-5.4963623 1.51237061 -5.4963623 1.51237061 -4.13769531 0.87939453 C-2 0 -2 0 0 0 Z " fill="#EC1D23" transform="translate(693,0)"/>
<path d="M0 0 C0.93086426 0.32081543 1.86172852 0.64163086 2.82080078 0.97216797 C16.08249376 5.61600106 28.5740254 11.45895082 41 18 C39.58992528 22.52587801 37.80351356 26.77022794 35.76171875 31.0390625 C35.44477554 31.70904266 35.12783234 32.37902283 34.80128479 33.06930542 C34.12057308 34.5074276 33.43835346 35.94483683 32.75476074 37.3815918 C30.93248051 41.21206944 29.12159748 45.04793803 27.30859375 48.8828125 C26.75904526 50.04390533 26.75904526 50.04390533 26.19839478 51.22845459 C22.85069946 58.30444923 19.54205861 65.39795114 16.25 72.5 C15.73308594 73.61487793 15.21617187 74.72975586 14.68359375 75.87841797 C9.1086257 87.91257481 3.55163193 99.9550631 -2 112 C-6.37883341 111.23255183 -9.38391633 109.79673673 -13.25 107.5625 C-38.12975522 93.84237136 -66.04149333 86.19897682 -94 82 C-94.72622559 81.88285645 -95.45245117 81.76571289 -96.20068359 81.64501953 C-129.73156439 76.37867583 -172.7972874 76.1880925 -202.08203125 95.36328125 C-207.80184158 99.7870997 -212.75025271 106.7899195 -214 114 C-214.78492487 122.89152603 -213.82438867 129.4587805 -208.73828125 136.828125 C-205.07975799 141.09160093 -200.48862646 143.59082941 -195.5625 146.125 C-194.96147461 146.43767822 -194.36044922 146.75035645 -193.74121094 147.07250977 C-181.61769413 152.96357939 -168.22686558 155.85170129 -155.0625 158.3125 C-153.53376744 158.60535945 -152.00504041 158.89824781 -150.47631836 159.19116211 C-137.04675545 161.73357409 -123.5568942 163.8968731 -110.0625 166.0625 C-76.24890216 171.49921889 -42.17897707 177.13056408 -11 192 C-10.26072266 192.35175293 -9.52144531 192.70350586 -8.75976562 193.06591797 C1.4287437 197.9983447 10.31292985 203.76280551 19 211 C19.72316406 211.55945313 20.44632813 212.11890625 21.19140625 212.6953125 C42.79086464 230.06214975 52.67987884 257.71284484 55.6875 284.375 C58.04491512 317.13324754 51.333558 349.96200774 29.66259766 375.58105469 C26.54603354 379.15751137 23.29169773 382.5849253 20 386 C19.03513672 387.05960938 19.03513672 387.05960938 18.05078125 388.140625 C-15.38696426 423.8268957 -70.56630735 435.89876552 -117 441 C-117.9475415 441.1045752 -118.89508301 441.20915039 -119.87133789 441.31689453 C-131.4779148 442.39689062 -143.16650861 442.24389964 -154.8125 442.25 C-156.54867081 442.25101212 -156.54867081 442.25101212 -158.31991577 442.25204468 C-177.07233943 442.23471925 -195.4057651 441.55415315 -214 439 C-215.27456055 438.82839355 -216.54912109 438.65678711 -217.86230469 438.47998047 C-258.47378577 432.85151288 -317.63291325 423.30398437 -350 395 C-350.82177734 393.37109375 -350.82177734 393.37109375 -351 391 C-349.99969321 388.371003 -348.93563612 385.96486147 -347.6875 383.45703125 C-347.32716171 382.70860962 -346.96682343 381.96018799 -346.5955658 381.18908691 C-345.81527321 379.57124379 -345.02969853 377.95593998 -344.23947144 376.34292603 C-342.13780076 372.05228888 -340.07384882 367.74350753 -338.00390625 363.4375 C-337.37072227 362.12462761 -337.37072227 362.12462761 -336.7247467 360.78523254 C-332.99472502 353.03634253 -329.40755483 345.22762797 -325.8734436 337.38778687 C-324.94475847 335.32859434 -324.01245279 333.2710818 -323.07885742 331.21411133 C-319.80066408 323.99090771 -319.80066408 323.99090771 -316.54980469 316.75537109 C-315.31648488 313.99771839 -314.06696031 311.24808128 -312.8125 308.5 C-312.47404053 307.72825439 -312.13558105 306.95650879 -311.78686523 306.16137695 C-309.48863337 301.18471481 -309.48863337 301.18471481 -307.01147461 300.24829102 C-304.18198989 299.89902703 -303.09626631 300.85828229 -300.75 302.4375 C-293.76491658 306.8502019 -286.46050593 310.47618317 -279 314 C-277.85772949 314.53995605 -277.85772949 314.53995605 -276.69238281 315.09082031 C-245.98391423 329.38941149 -212.58799664 337.33771192 -179 341 C-177.27523437 341.19722656 -177.27523437 341.19722656 -175.515625 341.3984375 C-145.42831216 344.16766779 -104.98096316 345.39520252 -79.7578125 325.58203125 C-74.34929704 320.5182512 -71.47066666 314.50147469 -70.484375 307.1640625 C-70.24712821 298.67401672 -70.92866587 292.56067718 -76.625 286.1796875 C-89.10790895 274.16488763 -107.33154746 270.77106962 -123.75390625 267.625 C-124.87878952 267.40927841 -126.00367279 267.19355682 -127.16264343 266.97129822 C-141.7196772 264.23474343 -156.37662806 262.14773139 -171.03295898 260.02319336 C-216.47687154 253.40833719 -266.78433478 245.6205484 -303 215 C-303.7940625 214.36835937 -304.588125 213.73671875 -305.40625 213.0859375 C-321.91183981 199.42814312 -331.39709545 180.29405656 -337 160 C-337.51240234 158.15535156 -337.51240234 158.15535156 -338.03515625 156.2734375 C-342.7230143 135.21078228 -342.09826996 109.63342113 -336 89 C-335.79632812 88.28183105 -335.59265625 87.56366211 -335.3828125 86.82373047 C-330.62543501 70.49961187 -322.40267705 55.6114414 -311 43 C-310.27039062 42.15179688 -309.54078125 41.30359375 -308.7890625 40.4296875 C-273.6110187 0.06751093 -216.44325013 -15.95196865 -164.82421875 -19.62109375 C-161.90420071 -19.81924162 -158.98361253 -20.00624783 -156.0625 -20.1875 C-155.37379822 -20.23056274 -154.68509644 -20.27362549 -153.9755249 -20.31799316 C-102.41354439 -23.45827695 -48.86603219 -16.91169676 0 0 Z " fill="#4D4D4D" transform="translate(3161,299)"/>
<path d="M0 0 C43.23 0 86.46 0 131 0 C131 148.5 131 297 131 450 C87.77 450 44.54 450 0 450 C0 301.5 0 153 0 0 Z " fill="#4D4D4D" transform="translate(3640,285)"/>
<path d="M0 0 C43.23 0 86.46 0 131 0 C131 148.5 131 297 131 450 C87.77 450 44.54 450 0 450 C0 301.5 0 153 0 0 Z " fill="#4D4D4D" transform="translate(3254,285)"/>
<path d="M0 0 C0.66 0 1.32 0 2 0 C3.37491299 1.50787161 4.67364462 3.08539761 5.9375 4.6875 C7.14212891 6.19376953 7.14212891 6.19376953 8.37109375 7.73046875 C8.79890137 8.26591309 9.22670898 8.80135742 9.66748047 9.35302734 C11.89732932 12.10908457 14.20018076 14.80231324 16.5 17.5 C20.62185758 22.34886687 24.66993082 27.25162929 28.6875 32.1875 C31.26146822 35.31800189 33.87591194 38.41153171 36.5 41.5 C40.60235907 46.33401255 44.68039195 51.18433912 48.6640625 56.1171875 C50.38926558 58.24628428 52.13369582 60.34960943 53.8984375 62.4453125 C61.71150976 71.85468615 65.86439445 79.45684381 65 92 C59.9064823 122.45545813 40.90246735 149.44268212 22 173 C21.12158256 174.129869 20.24536587 175.26145163 19.37109375 176.39453125 C10.82567497 187.44440448 2.02566529 198.24716115 -7.99609375 208 C-9.8905135 209.89072693 -11.63888659 211.83927363 -13.375 213.875 C-19.73335108 221.26602991 -26.76117003 228.06441344 -34.171875 234.390625 C-36.02937988 236.02586434 -37.76606009 237.73481793 -39.5 239.5 C-43.16301149 243.21217943 -47.0427717 246.60626052 -51 250 C-52.05506394 250.91883877 -53.10971974 251.83814629 -54.1640625 252.7578125 C-61.3332314 258.98782432 -68.6446855 264.93779632 -76.22802734 270.65771484 C-78.13476997 272.10208946 -80.03103978 273.55945222 -81.92578125 275.01953125 C-86.26960333 278.3652268 -90.63209755 281.68582907 -95 285 C-95.72396973 285.55171875 -96.44793945 286.1034375 -97.19384766 286.671875 C-134.01089199 314.6420458 -174.57845383 339.45729175 -218.5 354.375 C-219.47912354 354.70927002 -220.45824707 355.04354004 -221.46704102 355.38793945 C-231.46925909 358.68409602 -241.50137846 360.35909578 -252 361 C-252.845625 361.05414062 -253.69125 361.10828125 -254.5625 361.1640625 C-263.36416601 361.46661977 -271.11084534 359.53064689 -278.015625 353.91015625 C-281.17736869 350.86666675 -283.86799086 347.50136099 -286.58203125 344.05859375 C-289.15164159 340.80818196 -291.81024904 337.65071782 -294.5 334.5 C-298.62222631 329.65145294 -302.66993875 324.74836096 -306.6875 319.8125 C-309.26146621 316.68200056 -311.87580814 313.58837781 -314.5 310.5 C-318.66886604 305.59064501 -322.79457767 300.65041312 -326.84765625 295.64453125 C-328.33718071 293.81438958 -329.84642478 292.00018688 -331.37109375 290.19921875 C-332.11488281 289.30847656 -332.85867188 288.41773438 -333.625 287.5 C-334.29789063 286.7059375 -334.97078125 285.911875 -335.6640625 285.09375 C-336.10492188 284.4028125 -336.54578125 283.711875 -337 283 C-336 280 -336 280 -332.93774414 278.26098633 C-331.55853478 277.60737348 -330.17384148 276.96526229 -328.78515625 276.33203125 C-328.03563187 275.98026825 -327.28610748 275.62850525 -326.51387024 275.26608276 C-324.03448184 274.10518729 -321.54860219 272.958938 -319.0625 271.8125 C-317.33172659 271.00531463 -315.60142547 270.19711588 -313.87158203 269.38793945 C-310.31689743 267.72665564 -306.75979234 266.07072881 -303.20068359 264.41894531 C-298.42377133 262.20016756 -293.65684511 259.96085296 -288.89453125 257.7109375 C-287.82338829 257.20500816 -287.82338829 257.20500816 -286.73060608 256.68885803 C-285.31391399 256.01969519 -283.89723193 255.35051109 -282.4805603 254.68130493 C-270.64120214 249.0932377 -258.77285805 243.56920721 -246.89160156 238.07080078 C-236.11777531 233.07466401 -225.38897555 227.98492608 -214.66033936 222.89266968 C-205.28069103 218.44118294 -195.89737899 213.99889637 -186.48364258 209.61987305 C-184.08728574 208.50267563 -181.69385351 207.37918241 -179.3034668 206.24926758 C-173.2549954 203.39451202 -167.18464236 200.63336894 -161.02671814 198.02148438 C-136.63071028 188.08373312 -136.63071028 188.08373312 -120.25878906 168.27050781 C-118.02180567 164.2356076 -115.19329274 160.62797342 -112.4375 156.9375 C-111.34963099 155.43853938 -110.26496413 153.93724931 -109.18359375 152.43359375 C-108.65362793 151.69737793 -108.12366211 150.96116211 -107.57763672 150.20263672 C-104.53412685 145.95340334 -101.53047572 141.6761254 -98.52368164 137.40087891 C-94.30139238 131.40593639 -90.01498685 125.45878773 -85.71484375 119.51953125 C-82.46049295 115.02431288 -79.22002572 110.51986468 -76 106 C-72.23243835 100.71157367 -68.43292858 95.44692136 -64.625 90.1875 C-60.37757113 84.31868728 -56.16751589 78.42581594 -52 72.5 C-47.28957156 65.80221343 -42.51683345 59.15192644 -37.71484375 52.51953125 C-34.46049257 48.02431235 -31.22008575 43.51982227 -28 39 C-23.64145644 32.88357601 -19.24935555 26.79174032 -14.84057617 20.71142578 C-12.2057909 17.07375258 -9.58888197 13.42644216 -7.01953125 9.7421875 C-6.560625 9.08734375 -6.10171875 8.4325 -5.62890625 7.7578125 C-4.77042244 6.52995138 -3.91728294 5.29833108 -3.0703125 4.0625 C-2.09602083 2.67255489 -1.05435246 1.33023779 0 0 Z " fill="#EB1D23" transform="translate(558,199)"/>
<path d="M0 0 C16.57765377 12.79983762 26.12197888 30.64978093 29.125 51.1875 C30.0295685 65.56826759 29.92070381 79.50795143 25.125 93.1875 C24.76277344 94.24710938 24.40054688 95.30671875 24.02734375 96.3984375 C16.53240989 116.16473764 1.75671905 130.41245436 -16.8671875 139.67578125 C-36.26443739 148.39682596 -60.80359073 149.62117379 -80.875 142.1875 C-90.11129758 138.44162104 -98.32481437 133.72445726 -105.875 127.1875 C-106.865 126.465625 -107.855 125.74375 -108.875 125 C-122.15458557 113.62797921 -130.99195687 94.37680693 -132.875 77.1875 C-134.65070689 52.73189395 -131.47106108 29.56238285 -114.99609375 10.421875 C-84.45142752 -21.75409017 -36.20750313 -24.80035728 0 0 Z " fill="#4D4D4D" transform="translate(3564.875,594.8125)"/>
<path d="M0 0 C14.07860921 10.8957891 21.9823934 24.58899413 25.609375 41.91015625 C28.32181855 63.36558476 23.48452217 83.30185119 11 101 C10.56300781 101.62390625 10.12601563 102.2478125 9.67578125 102.890625 C-3.03975157 119.23371223 -23.42214506 126.61440624 -43.203125 129.4609375 C-45.80685448 129.73003803 -48.38480424 129.90139426 -51 130 C-51.68320313 130.03996094 -52.36640625 130.07992187 -53.0703125 130.12109375 C-75.41811476 130.84336112 -97.41742805 124.10351042 -114.4375 109.43359375 C-125.56759515 98.86339668 -132.8931037 86.06223326 -136 71 C-136.226875 69.906875 -136.45375 68.81375 -136.6875 67.6875 C-138.49519588 46.35668862 -134.49910889 27.94111275 -121 11 C-120.51789062 10.35289063 -120.03578125 9.70578125 -119.5390625 9.0390625 C-92.92497737 -24.95927746 -32.38434834 -23.69586464 0 0 Z " fill="#4D4D4D" transform="translate(3375,94)"/>
<path d="M0 0 C0.6712793 0.23605957 1.34255859 0.47211914 2.03417969 0.71533203 C19.54550114 7.08196578 34.80057872 18.92945343 43 36 C50.68469799 55.79328968 51.53288498 76.29190881 43.75 96.25 C36.72896649 111.74183795 26.01545902 123.89295972 11 132 C10.16339844 132.45890625 9.32679688 132.9178125 8.46484375 133.390625 C-2.63955763 138.95120005 -15.64351776 141.53409985 -28 142 C-28.68320313 142.03996094 -29.36640625 142.07992187 -30.0703125 142.12109375 C-52.41811476 142.84336112 -74.41742805 136.10351042 -91.4375 121.43359375 C-105.25981033 108.30661306 -113.07820626 91.59958643 -114.203125 72.5625 C-114.44179271 54.42375379 -110.28106304 38.40655237 -99 24 C-98.19949219 22.95199219 -98.19949219 22.95199219 -97.3828125 21.8828125 C-75.59698789 -4.90645509 -31.33402916 -11.02251339 0 0 Z " fill="#4D4D4D" transform="translate(3738,82)"/>
</svg>
