<?xml version="1.0" encoding="UTF-8"?>
<svg version="1.1" xmlns="http://www.w3.org/2000/svg" width="1200" height="1200">
<path d="M0 0 C2.40943099 1.50406943 4.75609401 3.0731457 7.09364319 4.68663025 C8.3792791 5.55430023 8.3792791 5.55430023 9.69088745 6.4394989 C11.48907183 7.65716013 13.28303475 8.88107687 15.07289124 10.11094666 C17.7939692 11.97890226 20.52930684 13.8243067 23.26747131 15.667099 C25.02291595 16.85980446 26.77750299 18.05377331 28.53114319 19.24913025 C29.33859482 19.79418213 30.14604645 20.33923401 30.97796631 20.90080261 C39.95506426 27.09981172 46.12443691 33.26729268 49.61317444 43.73350525 C49.78693608 46.0835602 49.88013571 48.4399752 49.92567444 50.79600525 C49.96305725 52.04510681 50.00044006 53.29420837 50.03895569 54.5811615 C49.60641205 63.18565785 44.68319729 70.69638158 39.89833069 77.56944275 C39.33873657 78.39073166 38.77914246 79.21202057 38.20259094 80.05819702 C36.99674434 81.82618196 35.78668665 83.59130086 34.57279968 85.35377502 C31.30143672 90.10397402 28.06080409 94.87509629 24.81629944 99.6436615 C23.80730339 101.12400124 23.80730339 101.12400124 22.77792358 102.63424683 C14.74619495 114.43770622 6.9216648 126.37732497 -0.89216614 138.32572937 C-6.64600807 147.12325379 -12.41292806 155.8768809 -18.58601379 164.38661194 C-23.930696 171.80143732 -28.87475126 179.48692486 -33.87654114 187.13496399 C-44.5703532 203.47995863 -55.38149329 219.74176592 -66.32432556 235.92100525 C-66.93200775 236.81959259 -67.53968994 237.71817993 -68.16578674 238.64399719 C-68.77087067 239.53873749 -69.37595459 240.43347778 -69.99937439 241.35533142 C-71.20018461 243.13109835 -72.40095016 244.90689549 -73.60166931 246.682724 C-74.47541954 247.97487068 -74.47541954 247.97487068 -75.36682129 249.29312134 C-80.74295357 257.24929917 -86.07101573 265.23694744 -91.38682556 273.23350525 C-100.45429547 286.8712836 -109.6052582 300.45172865 -118.77110291 314.02354431 C-126.68006303 325.73579891 -134.56170804 337.46507043 -142.38682556 349.23350525 C-151.35545433 362.72162278 -160.40589846 376.15343428 -169.47236633 389.57594299 C-182.52709502 408.90642709 -195.4725881 428.30896027 -208.38682556 447.73350525 C-204.6088693 444.82052466 -201.18401288 441.66899935 -197.82760906 438.28895664 C-197.28733378 437.74893642 -196.7470585 437.20891619 -196.19041124 436.65253171 C-194.38017454 434.8419342 -192.57354975 433.02777551 -190.76687622 431.21362305 C-189.45679472 429.90182928 -188.146488 428.59026039 -186.83597547 427.27889723 C-183.23478065 423.67411416 -179.63670355 420.06623306 -176.0390991 416.45786726 C-172.1587792 412.56706582 -168.27553297 408.67918713 -164.39257812 404.79101562 C-157.66375065 398.05247529 -150.93659112 391.31227359 -144.21039391 384.57110786 C-133.57976816 373.91711723 -122.94396306 363.26830548 -112.30731201 352.62033081 C-108.66847601 348.97749335 -105.02967364 345.3346223 -101.39088154 341.69174099 C-100.02683226 340.32616287 -100.02683226 340.32616287 -98.63522642 338.9329973 C-88.2842218 328.57024995 -77.93427942 318.20644198 -67.58482361 307.84214783 C-67.11192414 307.36857319 -66.63902466 306.89499856 -66.1517949 306.40707317 C-55.11884636 295.35833334 -44.08696624 284.30852855 -33.05741882 273.25639343 C-32.58305799 272.78106132 -32.10869715 272.30572922 -31.61996174 271.8159931 C-27.79630255 267.98448709 -23.97268096 264.15294356 -20.14906915 260.32139025 C-3.93453722 244.07324243 12.28566632 227.83077011 28.51133841 211.59374613 C38.22641114 201.87144598 47.93671338 192.14442946 57.64096036 182.41132342 C64.29048947 175.74280969 70.9454496 169.07974859 77.60472301 162.42096574 C81.44747606 158.57814961 85.28772133 154.7329107 89.12144089 150.88108063 C92.63165013 147.35438641 96.14872266 143.83469096 99.67135926 140.32041102 C100.9438282 139.04851572 102.21376071 137.77407666 103.48086856 136.49684037 C113.05678618 126.8485091 121.44984566 118.50927229 135.86317444 118.35850525 C154.99185407 118.55219567 166.48235926 134.44444181 179.05067444 147.10850525 C180.20603319 148.26890072 181.36163135 149.42905786 182.51747131 150.588974 C184.62954071 152.70909699 186.74024013 154.83056212 188.84925842 156.95372009 C194.34481599 162.48083064 199.86927632 167.97883086 205.39204407 173.47872925 C207.23018171 175.30953177 209.0683042 177.14034948 210.90640259 178.97119141 C211.39177414 179.45464183 211.87714569 179.93809225 212.37722547 180.43619269 C234.7652518 202.73582414 257.14032821 225.04840406 279.50572617 247.37073034 C282.73985143 250.59860349 285.97408642 253.82636669 289.20838928 257.05406189 C289.85216439 257.69652544 290.49593949 258.33898899 291.15922293 259.00092114 C301.57960321 269.39955204 312.0087878 279.78930952 322.44125035 290.17581718 C333.16666906 300.85438666 343.88249443 311.54251334 354.58957839 322.23946673 C361.1851253 328.82817615 367.78792631 335.40943508 374.40040436 341.98115284 C378.93825547 346.49246068 383.46670924 351.01306514 387.98807272 355.54089665 C390.59148763 358.14749565 393.19866323 360.74999205 395.81715202 363.34145546 C412.77031944 380.12844956 426.82319979 394.6858817 427.11317444 419.79600525 C426.89177138 442.15771406 415.36183254 455.73933303 400.22259521 470.75227356 C398.63457277 472.34534643 397.04764287 473.93950899 395.46170741 475.5346595 C391.11840083 479.89684364 386.75971434 484.24336583 382.39825451 488.58738947 C378.17450979 492.79911697 373.96255772 497.02259683 369.75020474 501.24571054 C360.60735474 510.41097361 351.45038129 519.56202068 342.28736334 528.70711585 C334.26950402 536.70938987 326.25653834 544.71652511 318.24834633 552.72847366 C317.4506297 553.52654549 317.4506297 553.52654549 316.63679759 554.34073998 C314.47786777 556.50064477 312.31896088 558.66057248 310.16008825 560.82053443 C289.92192116 581.06877718 269.66962606 601.30283501 249.41064845 621.53025387 C231.42038858 639.4926485 213.44161742 657.4664642 195.47279358 675.45030212 C190.87027962 680.05663867 186.26775178 684.66296134 181.66510296 689.26916313 C181.09842317 689.83628074 180.53174337 690.40339834 179.94789147 690.98770133 C164.92143473 706.02540209 149.88568041 721.05380032 134.84705478 736.07933056 C133.22859632 737.69640048 131.61014178 739.31347432 129.991693 740.93055393 C128.91811032 742.00322722 127.844521 743.07589387 126.77092499 744.14855383 C118.76237647 752.1503122 110.75855756 760.15678065 102.75694847 768.16547775 C93.65804244 777.27235587 84.5518883 786.37191783 75.43622621 795.46202497 C70.7858905 800.09967817 66.1389628 804.7406499 61.50055504 809.39023781 C57.25353149 813.64730464 52.99736744 817.89500529 48.73375545 822.13545622 C47.19398177 823.67007233 45.65755521 825.20805579 44.1248624 826.74974392 C29.95306613 840.99776868 15.79554992 851.264963 -5.01182556 852.10850525 C-34.48519338 851.46448564 -52.23345106 829.04205748 -71.56516349 809.70055103 C-74.1187362 807.14677163 -76.67518258 804.5958713 -79.23121643 802.04455566 C-84.21743831 797.06657751 -89.2009394 792.08588448 -94.18332127 787.1040632 C-98.23025952 783.05760222 -102.27799072 779.01193613 -106.32626915 774.96681595 C-117.81728654 763.48458054 -129.30623069 752.00027653 -140.79248164 740.51327299 C-141.40941347 739.8963012 -142.02634531 739.2793294 -142.66197205 738.6436615 C-143.5885025 737.71706973 -143.5885025 737.71706973 -144.53375074 736.77175893 C-154.58106265 726.72403911 -164.63337526 716.6813386 -174.68791745 706.64085446 C-185.0249315 696.31817936 -195.35823798 685.99180579 -205.68765229 675.66152585 C-211.48215171 669.86669405 -217.27819039 664.07342113 -223.07822609 658.2841301 C-228.00593682 653.36549068 -232.93021566 648.44344794 -237.84998349 643.51686327 C-240.36090757 641.00265959 -242.87344887 638.49012806 -245.39032173 635.98187828 C-248.11223329 633.26919744 -250.82643762 630.54889091 -253.53985596 627.82771301 C-254.34419659 627.02851594 -255.14853723 626.22931886 -255.97725183 625.4059037 C-256.69726442 624.68129231 -257.41727701 623.95668092 -258.15910816 623.21011162 C-258.78695361 622.58248354 -259.41479906 621.95485546 -260.06167012 621.30820835 C-261.38682556 619.73350525 -261.38682556 619.73350525 -261.38682556 617.73350525 C-262.223339 617.38742218 -262.223339 617.38742218 -263.07675171 617.03434753 C-266.01070447 615.38218831 -267.99251076 613.32875118 -270.3480072 610.92002869 C-270.82835419 610.43194229 -271.30870117 609.9438559 -271.80360413 609.440979 C-272.84405628 608.38290772 -273.88228284 607.32264429 -274.91851997 606.26044464 C-276.56685632 604.57252852 -278.22274083 602.89237244 -279.881073 601.21427917 C-284.59469079 596.44280069 -289.29876845 591.66209529 -293.98716736 586.86582947 C-296.85968891 583.92832098 -299.74472788 581.00358947 -302.63764763 578.08617401 C-303.73026394 576.97942728 -304.81821185 575.86804912 -305.90106392 574.75174713 C-311.74518512 568.7297934 -317.30126006 563.64400195 -324.96005249 559.94084167 C-328.36025476 558.24921748 -331.31362492 556.06694321 -334.38682556 553.85069275 C-337.56694039 551.60639296 -340.80004927 549.45901621 -344.04966736 547.31724548 C-368.77486155 530.99896949 -368.77486155 530.99896949 -372.38682556 517.73350525 C-372.79307556 514.06944275 -372.79307556 514.06944275 -372.88682556 510.10850525 C-372.96416931 508.17104431 -372.96416931 508.17104431 -373.04307556 506.19444275 C-371.88397905 492.65730227 -359.63908954 479.38866211 -352.26182556 468.60850525 C-350.9929048 466.7443925 -349.72467123 464.87981179 -348.45713806 463.01475525 C-346.57477595 460.24531379 -344.69189034 457.4762464 -342.80621338 454.70906067 C-338.44148306 448.30141064 -334.12486177 441.86352002 -329.83355713 435.40653992 C-326.21097734 429.95938144 -322.55817586 424.53336044 -318.89073181 419.11631775 C-304.85003602 398.37032961 -290.92599459 377.55483281 -277.19371033 356.60313416 C-271.28893406 347.60086386 -265.31667055 338.65735502 -259.19297791 329.80259705 C-253.73580056 321.90631657 -248.38068763 313.93995099 -243.01182556 305.98350525 C-242.39575439 305.07095978 -241.77968323 304.15841431 -241.14494324 303.21821594 C-230.03956994 286.75980475 -219.0776985 270.20931958 -208.19395447 253.60362244 C-202.28915803 244.60114721 -196.31677399 235.6575046 -190.19297791 226.80259705 C-184.73580056 218.90631657 -179.38068763 210.93995099 -174.01182556 202.98350525 C-173.39575439 202.07095978 -172.77968323 201.15841431 -172.14494324 200.21821594 C-161.03956994 183.75980475 -150.0776985 167.20931958 -139.19395447 150.60362244 C-133.28915803 141.60114721 -127.31677399 132.6575046 -121.19297791 123.80259705 C-115.73580056 115.90631657 -110.38068763 107.93995099 -105.01182556 99.98350525 C-104.39575439 99.07095978 -103.77968323 98.15841431 -103.14494324 97.21821594 C-92.03956994 80.75980475 -81.0776985 64.20931958 -70.19395447 47.60362244 C-63.38506359 37.22303816 -56.47038865 26.92865416 -49.38682556 16.73350525 C-48.99677841 16.16926346 -48.60673126 15.60502167 -48.2048645 15.02368164 C-36.53989957 -1.84394426 -19.79353962 -10.5028262 0 0 Z " fill="#FEFEFE" transform="translate(573.3868255615234,129.26649475097656)"/>
<path d="M0 0 C2.40943099 1.50406943 4.75609401 3.0731457 7.09364319 4.68663025 C8.3792791 5.55430023 8.3792791 5.55430023 9.69088745 6.4394989 C11.48907183 7.65716013 13.28303475 8.88107687 15.07289124 10.11094666 C17.7939692 11.97890226 20.52930684 13.8243067 23.26747131 15.667099 C25.02291595 16.85980446 26.77750299 18.05377331 28.53114319 19.24913025 C29.33859482 19.79418213 30.14604645 20.33923401 30.97796631 20.90080261 C39.95506426 27.09981172 46.12443691 33.26729268 49.61317444 43.73350525 C49.78693608 46.0835602 49.88013571 48.4399752 49.92567444 50.79600525 C49.96305725 52.04510681 50.00044006 53.29420837 50.03895569 54.5811615 C49.60641205 63.18565785 44.68319729 70.69638158 39.89833069 77.56944275 C39.33873657 78.39073166 38.77914246 79.21202057 38.20259094 80.05819702 C36.99674434 81.82618196 35.78668665 83.59130086 34.57279968 85.35377502 C31.30143672 90.10397402 28.06080409 94.87509629 24.81629944 99.6436615 C23.80730339 101.12400124 23.80730339 101.12400124 22.77792358 102.63424683 C14.74619495 114.43770622 6.9216648 126.37732497 -0.89216614 138.32572937 C-6.64600807 147.12325379 -12.41292806 155.8768809 -18.58601379 164.38661194 C-23.930696 171.80143732 -28.87475126 179.48692486 -33.87654114 187.13496399 C-44.5703532 203.47995863 -55.38149329 219.74176592 -66.32432556 235.92100525 C-66.93200775 236.81959259 -67.53968994 237.71817993 -68.16578674 238.64399719 C-68.77087067 239.53873749 -69.37595459 240.43347778 -69.99937439 241.35533142 C-71.20018461 243.13109835 -72.40095016 244.90689549 -73.60166931 246.682724 C-74.47541954 247.97487068 -74.47541954 247.97487068 -75.36682129 249.29312134 C-80.74295357 257.24929917 -86.07101573 265.23694744 -91.38682556 273.23350525 C-100.45429547 286.8712836 -109.6052582 300.45172865 -118.77110291 314.02354431 C-126.68006303 325.73579891 -134.56170804 337.46507043 -142.38682556 349.23350525 C-151.35545433 362.72162278 -160.40589846 376.15343428 -169.47236633 389.57594299 C-182.52709502 408.90642709 -195.4725881 428.30896027 -208.38682556 447.73350525 C-204.6088693 444.82052466 -201.18401288 441.66899935 -197.82760906 438.28895664 C-197.28733378 437.74893642 -196.7470585 437.20891619 -196.19041124 436.65253171 C-194.38017454 434.8419342 -192.57354975 433.02777551 -190.76687622 431.21362305 C-189.45679472 429.90182928 -188.146488 428.59026039 -186.83597547 427.27889723 C-183.23478065 423.67411416 -179.63670355 420.06623306 -176.0390991 416.45786726 C-172.1587792 412.56706582 -168.27553297 408.67918713 -164.39257812 404.79101562 C-157.66375065 398.05247529 -150.93659112 391.31227359 -144.21039391 384.57110786 C-133.57976816 373.91711723 -122.94396306 363.26830548 -112.30731201 352.62033081 C-108.66847601 348.97749335 -105.02967364 345.3346223 -101.39088154 341.69174099 C-100.02683226 340.32616287 -100.02683226 340.32616287 -98.63522642 338.9329973 C-88.2842218 328.57024995 -77.93427942 318.20644198 -67.58482361 307.84214783 C-67.11192414 307.36857319 -66.63902466 306.89499856 -66.1517949 306.40707317 C-55.11884636 295.35833334 -44.08696624 284.30852855 -33.05741882 273.25639343 C-32.58305799 272.78106132 -32.10869715 272.30572922 -31.61996174 271.8159931 C-27.79630255 267.98448709 -23.97268096 264.15294356 -20.14906915 260.32139025 C-3.93453722 244.07324243 12.28566632 227.83077011 28.51133841 211.59374613 C38.22641114 201.87144598 47.93671338 192.14442946 57.64096036 182.41132342 C64.29048947 175.74280969 70.9454496 169.07974859 77.60472301 162.42096574 C81.44747606 158.57814961 85.28772133 154.7329107 89.12144089 150.88108063 C92.63165013 147.35438641 96.14872266 143.83469096 99.67135926 140.32041102 C100.9438282 139.04851572 102.21376071 137.77407666 103.48086856 136.49684037 C113.05678618 126.8485091 121.44984566 118.50927229 135.86317444 118.35850525 C154.99185407 118.55219567 166.48235926 134.44444181 179.05067444 147.10850525 C180.20603319 148.26890072 181.36163135 149.42905786 182.51747131 150.588974 C184.62954071 152.70909699 186.74024013 154.83056212 188.84925842 156.95372009 C194.34481599 162.48083064 199.86927632 167.97883086 205.39204407 173.47872925 C207.23018171 175.30953177 209.0683042 177.14034948 210.90640259 178.97119141 C211.39177414 179.45464183 211.87714569 179.93809225 212.37722547 180.43619269 C234.7652518 202.73582414 257.14032821 225.04840406 279.50572617 247.37073034 C282.73985143 250.59860349 285.97408642 253.82636669 289.20838928 257.05406189 C289.85216439 257.69652544 290.49593949 258.33898899 291.15922293 259.00092114 C301.57960321 269.39955204 312.0087878 279.78930952 322.44125035 290.17581718 C333.16666906 300.85438666 343.88249443 311.54251334 354.58957839 322.23946673 C361.1851253 328.82817615 367.78792631 335.40943508 374.40040436 341.98115284 C378.93825547 346.49246068 383.46670924 351.01306514 387.98807272 355.54089665 C390.59148763 358.14749565 393.19866323 360.74999205 395.81715202 363.34145546 C412.77031944 380.12844956 426.82319979 394.6858817 427.11317444 419.79600525 C426.89177138 442.15771406 415.36183254 455.73933303 400.22259521 470.75227356 C398.63457277 472.34534643 397.04764287 473.93950899 395.46170741 475.5346595 C391.11840083 479.89684364 386.75971434 484.24336583 382.39825451 488.58738947 C378.17450979 492.79911697 373.96255772 497.02259683 369.75020474 501.24571054 C360.60735474 510.41097361 351.45038129 519.56202068 342.28736334 528.70711585 C334.26950402 536.70938987 326.25653834 544.71652511 318.24834633 552.72847366 C317.4506297 553.52654549 317.4506297 553.52654549 316.63679759 554.34073998 C314.47786777 556.50064477 312.31896088 558.66057248 310.16008825 560.82053443 C289.92192116 581.06877718 269.66962606 601.30283501 249.41064845 621.53025387 C231.42038858 639.4926485 213.44161742 657.4664642 195.47279358 675.45030212 C190.87027962 680.05663867 186.26775178 684.66296134 181.66510296 689.26916313 C181.09842317 689.83628074 180.53174337 690.40339834 179.94789147 690.98770133 C164.92143473 706.02540209 149.88568041 721.05380032 134.84705478 736.07933056 C133.22859632 737.69640048 131.61014178 739.31347432 129.991693 740.93055393 C128.91811032 742.00322722 127.844521 743.07589387 126.77092499 744.14855383 C118.76237647 752.1503122 110.75855756 760.15678065 102.75694847 768.16547775 C93.65804244 777.27235587 84.5518883 786.37191783 75.43622621 795.46202497 C70.7858905 800.09967817 66.1389628 804.7406499 61.50055504 809.39023781 C57.25353149 813.64730464 52.99736744 817.89500529 48.73375545 822.13545622 C47.19398177 823.67007233 45.65755521 825.20805579 44.1248624 826.74974392 C29.95306613 840.99776868 15.79554992 851.264963 -5.01182556 852.10850525 C-34.48519338 851.46448564 -52.23345106 829.04205748 -71.56516349 809.70055103 C-74.1187362 807.14677163 -76.67518258 804.5958713 -79.23121643 802.04455566 C-84.21743831 797.06657751 -89.2009394 792.08588448 -94.18332127 787.1040632 C-98.23025952 783.05760222 -102.27799072 779.01193613 -106.32626915 774.96681595 C-117.81728654 763.48458054 -129.30623069 752.00027653 -140.79248164 740.51327299 C-141.40941347 739.8963012 -142.02634531 739.2793294 -142.66197205 738.6436615 C-143.5885025 737.71706973 -143.5885025 737.71706973 -144.53375074 736.77175893 C-154.58106265 726.72403911 -164.63337526 716.6813386 -174.68791745 706.64085446 C-185.0249315 696.31817936 -195.35823798 685.99180579 -205.68765229 675.66152585 C-211.48215171 669.86669405 -217.27819039 664.07342113 -223.07822609 658.2841301 C-228.00593682 653.36549068 -232.93021566 648.44344794 -237.84998349 643.51686327 C-240.36090757 641.00265959 -242.87344887 638.49012806 -245.39032173 635.98187828 C-248.11223329 633.26919744 -250.82643762 630.54889091 -253.53985596 627.82771301 C-254.34419659 627.02851594 -255.14853723 626.22931886 -255.97725183 625.4059037 C-256.69726442 624.68129231 -257.41727701 623.95668092 -258.15910816 623.21011162 C-258.78695361 622.58248354 -259.41479906 621.95485546 -260.06167012 621.30820835 C-261.38682556 619.73350525 -261.38682556 619.73350525 -261.38682556 617.73350525 C-262.223339 617.38742218 -262.223339 617.38742218 -263.07675171 617.03434753 C-266.01070447 615.38218831 -267.99251076 613.32875118 -270.3480072 610.92002869 C-270.82835419 610.43194229 -271.30870117 609.9438559 -271.80360413 609.440979 C-272.84405628 608.38290772 -273.88228284 607.32264429 -274.91851997 606.26044464 C-276.56685632 604.57252852 -278.22274083 602.89237244 -279.881073 601.21427917 C-284.59469079 596.44280069 -289.29876845 591.66209529 -293.98716736 586.86582947 C-296.85968891 583.92832098 -299.74472788 581.00358947 -302.63764763 578.08617401 C-303.73026394 576.97942728 -304.81821185 575.86804912 -305.90106392 574.75174713 C-311.74518512 568.7297934 -317.30126006 563.64400195 -324.96005249 559.94084167 C-328.36025476 558.24921748 -331.31362492 556.06694321 -334.38682556 553.85069275 C-337.56694039 551.60639296 -340.80004927 549.45901621 -344.04966736 547.31724548 C-368.77486155 530.99896949 -368.77486155 530.99896949 -372.38682556 517.73350525 C-372.79307556 514.06944275 -372.79307556 514.06944275 -372.88682556 510.10850525 C-372.96416931 508.17104431 -372.96416931 508.17104431 -373.04307556 506.19444275 C-371.88397905 492.65730227 -359.63908954 479.38866211 -352.26182556 468.60850525 C-350.9929048 466.7443925 -349.72467123 464.87981179 -348.45713806 463.01475525 C-346.57477595 460.24531379 -344.69189034 457.4762464 -342.80621338 454.70906067 C-338.44148306 448.30141064 -334.12486177 441.86352002 -329.83355713 435.40653992 C-326.21097734 429.95938144 -322.55817586 424.53336044 -318.89073181 419.11631775 C-304.85003602 398.37032961 -290.92599459 377.55483281 -277.19371033 356.60313416 C-271.28893406 347.60086386 -265.31667055 338.65735502 -259.19297791 329.80259705 C-253.73580056 321.90631657 -248.38068763 313.93995099 -243.01182556 305.98350525 C-242.39575439 305.07095978 -241.77968323 304.15841431 -241.14494324 303.21821594 C-230.03956994 286.75980475 -219.0776985 270.20931958 -208.19395447 253.60362244 C-202.28915803 244.60114721 -196.31677399 235.6575046 -190.19297791 226.80259705 C-184.73580056 218.90631657 -179.38068763 210.93995099 -174.01182556 202.98350525 C-173.39575439 202.07095978 -172.77968323 201.15841431 -172.14494324 200.21821594 C-161.03956994 183.75980475 -150.0776985 167.20931958 -139.19395447 150.60362244 C-133.28915803 141.60114721 -127.31677399 132.6575046 -121.19297791 123.80259705 C-115.73580056 115.90631657 -110.38068763 107.93995099 -105.01182556 99.98350525 C-104.39575439 99.07095978 -103.77968323 98.15841431 -103.14494324 97.21821594 C-92.03956994 80.75980475 -81.0776985 64.20931958 -70.19395447 47.60362244 C-63.38506359 37.22303816 -56.47038865 26.92865416 -49.38682556 16.73350525 C-48.99677841 16.16926346 -48.60673126 15.60502167 -48.2048645 15.02368164 C-36.53989957 -1.84394426 -19.79353962 -10.5028262 0 0 Z M187.84451175 202.24015099 C187.17754503 202.91237173 186.51057832 203.58459247 185.8234005 204.27718353 C184.7587961 205.33832639 184.7587961 205.33832639 183.67268455 206.42090648 C181.26559846 208.82264566 178.865786 211.23152791 176.46580505 213.6403656 C174.73621493 215.36908462 173.00618581 217.09736451 171.27575266 218.82523966 C167.49899267 222.59844511 163.72538613 226.37476397 159.95446587 230.15380287 C154.34717632 235.77313124 148.73419519 241.38674808 143.12000434 246.99918042 C133.67755239 256.43900055 124.23977436 265.88348062 114.80462265 275.33059692 C105.45842758 284.68861347 96.11017861 294.04457031 86.75915909 303.39776611 C86.17841727 303.97864541 85.59767545 304.55952471 84.99933539 305.15800642 C82.05020385 308.10781459 79.10103538 311.05758584 76.15185268 314.00734288 C55.24596184 334.91743802 34.34471484 355.83216941 13.44618225 376.74961853 C-6.86039299 397.0745533 -27.16906105 417.39739316 -47.48057556 437.71739197 C-48.10632194 438.34340139 -48.73206831 438.96941082 -49.3767767 439.61439023 C-55.66060315 445.90085366 -61.94447228 452.18727442 -68.22837268 458.47366394 C-81.03016607 471.28053017 -93.83167455 484.08768116 -106.63301086 496.89500427 C-107.22163614 497.48390413 -107.81026142 498.07280399 -108.41672383 498.6795493 C-147.74486288 538.02609933 -187.06633875 577.37930823 -226.38682556 616.73350525 C-224.91790595 619.80014438 -223.43948505 621.93376379 -221.03236485 624.3508215 C-220.33500392 625.05586471 -219.637643 625.76090792 -218.91914994 626.48731607 C-218.15039833 627.25433472 -217.38164672 628.02135336 -216.58959961 628.81161499 C-215.77485796 629.63229888 -214.96011631 630.45298278 -214.12068552 631.29853588 C-211.85835729 633.57521871 -209.59157968 635.8473599 -207.3228029 638.11761343 C-204.87667051 640.56745009 -202.43625061 643.02296652 -199.99501038 645.47767639 C-194.65509698 650.84474755 -189.307641 656.20426113 -183.95853734 661.56217074 C-180.61688956 664.90934623 -177.27671849 668.25799266 -173.93681145 671.60690498 C-164.68513101 680.88297214 -155.43155788 690.15714198 -146.17105961 699.42440701 C-145.57840717 700.01749857 -144.98575474 700.61059014 -144.37514314 701.22165418 C-143.78108484 701.81614903 -143.18702655 702.41064388 -142.57496649 703.02315372 C-141.37121785 704.22778929 -140.16747231 705.43242795 -138.96372986 706.6370697 C-138.36663271 707.23460971 -137.76953556 707.83214972 -137.15434455 708.44779701 C-127.48669332 718.1233387 -117.83261761 727.81230497 -108.18434829 737.50717031 C-98.27288201 747.4661153 -88.35015192 757.41372083 -78.41608232 767.35012013 C-72.84102404 772.92700931 -67.2708677 778.50860388 -61.71310616 784.10273552 C-56.97877892 788.867935 -52.23420906 793.62263459 -47.47618628 798.36417919 C-45.05098922 800.78158711 -42.63080363 803.20348902 -40.22362709 805.63885307 C-37.60508881 808.28285063 -34.9685873 810.90756726 -32.3269043 813.52841187 C-31.57822918 814.29319979 -30.82955407 815.05798771 -30.05819184 815.84595102 C-23.92060344 821.87131957 -17.17274722 825.93832115 -8.60166931 827.3624115 C13.02995544 826.92410683 24.78978781 810.70647403 39.13841248 796.36889648 C40.67871995 794.83333004 42.21923272 793.29796951 43.75993121 791.76279539 C47.96485661 787.57166743 52.16671159 783.37747335 56.36799979 779.1826998 C59.9784274 775.57867743 63.5906812 771.97648817 67.20294945 768.3743108 C79.60643199 756.00545372 92.00351686 743.6301939 104.39926713 731.25358843 C106.46029634 729.19577459 108.52138773 727.13802304 110.58248232 725.08027469 C130.323591 705.37121147 150.06249859 685.65994535 169.79620934 665.94347477 C174.23890538 661.50471536 178.6816391 657.06599366 183.12440491 652.62730408 C183.6763072 652.07590345 184.22820949 651.52450283 184.79683609 650.9563931 C202.70797992 633.06168297 220.6301182 615.17803543 238.55844964 597.30054645 C257.01258026 578.89865386 275.45695661 560.48704332 293.88861795 542.06264369 C296.49214514 539.460145 299.09577619 536.85775025 301.69946671 534.25541496 C302.21183614 533.74330356 302.72420558 533.23119217 303.25210136 532.70356224 C311.48805431 524.47229888 319.73407242 516.25119095 327.98384855 508.03378455 C336.27417725 499.7755118 344.55313897 491.50599776 352.82148688 483.22571427 C357.2986984 478.74267358 361.78062663 474.26463235 366.27578735 469.79958344 C370.39286875 465.70985735 374.49578669 461.60645162 378.58800681 457.49185353 C380.06837234 456.00826497 381.55379987 454.52970603 383.04482584 453.05683172 C397.13984255 439.46364311 397.13984255 439.46364311 402.39564514 421.14073181 C402.34863464 420.13477966 402.34863464 420.13477966 402.30067444 419.10850525 C402.28286926 418.38630798 402.26506409 417.66411072 402.24671936 416.92002869 C401.77995524 407.68410181 398.06066547 402.10180737 391.61317444 395.73350525 C390.82636292 394.95193054 390.03955139 394.17035583 389.22889709 393.36509705 C388.41984924 392.56241394 387.61080139 391.75973083 386.77723694 390.932724 C384.93081095 389.0955566 383.08445898 387.2583148 381.23817444 385.42100525 C379.8575885 384.05298767 379.8575885 384.05298767 378.44911194 382.65733337 C377.54676819 381.75821228 376.64442444 380.85909119 375.71473694 379.932724 C374.90343323 379.1266571 374.09212952 378.32059021 373.25624084 377.49009705 C371.22815942 375.37490516 369.30880583 373.24156003 367.40074635 371.02233887 C363.87011328 366.97651786 360.16946367 363.14682515 356.36895752 359.35557556 C355.67426733 358.65861981 354.97957714 357.96166407 354.26383573 357.24358845 C351.95710124 354.93057067 349.64685551 352.62109389 347.33656311 350.31163025 C345.6735731 348.64564547 344.01078751 346.97945662 342.34819031 345.31307983 C337.84898041 340.80506465 333.34655821 336.30027127 328.84326339 331.79633713 C325.55860271 328.51084519 322.27497804 325.22431935 318.99145413 321.93769139 C310.16538837 313.10333648 301.33705784 304.27125137 292.50648984 295.44139683 C292.00617085 294.94111781 291.50585187 294.44083878 290.9903717 293.92539978 C290.48944094 293.4245099 289.98851017 292.92362001 289.47239969 292.40755165 C281.33198654 284.26754604 273.19658907 276.12254776 265.06341752 267.97530723 C256.70712308 259.60467193 248.34712925 251.23774729 239.9832285 242.87471199 C235.28938164 238.18119755 230.59719248 233.4860467 225.90878868 228.78709412 C221.50798006 224.37665265 217.10246107 219.97097299 212.69318008 215.56900215 C211.07164131 213.94851479 209.45182721 212.32629963 207.83382225 210.70228386 C205.63460203 208.4954199 203.42939174 206.29472709 201.22247314 204.0955658 C200.25201853 203.11739584 200.25201853 203.11739584 199.26195878 202.11946487 C193.90119527 196.80060275 193.18794252 196.93641061 187.84451175 202.24015099 Z " fill="#010101" transform="translate(573.3868255615234,129.26649475097656)"/>
<path d="M0 0 C5.56842525 0.00377113 11.1368327 0.00240706 16.7052573 -0.00180227 C54.03586073 -0.02926062 91.34093179 0.11253152 128.6608237 1.12856883 C130.1116671 1.16686875 131.56251331 1.20506226 133.01336277 1.24313182 C141.14723716 1.46043483 149.27916689 1.71542057 157.4108237 2.00356883 C158.5872443 2.0445872 159.76366489 2.08560557 160.97573459 2.12786692 C203.1859122 3.61770381 245.66617711 5.19694952 287.5358237 11.06606883 C288.60590671 11.21165232 289.67598972 11.35723582 290.77849948 11.50723094 C298.9774289 12.74210398 310.07882322 14.46618116 315.6608237 21.12856883 C317.43496009 25.44425875 318.00574636 28.84742754 316.7858237 33.37856883 C311.88490574 39.72093325 306.09306703 41.48428052 298.39910495 43.14810008 C297.20707462 43.40797961 297.20707462 43.40797961 295.99096286 43.67310923 C288.00955732 45.35493295 280.02039712 46.3759768 271.9108237 47.19106883 C271.13825229 47.27161509 270.36568088 47.35216136 269.56969821 47.43514842 C232.72594093 51.25975669 195.66407512 52.78838413 158.6608237 54.12856883 C157.51112094 54.17047343 157.51112094 54.17047343 156.33819187 54.21322459 C145.78086806 54.59467599 135.22192211 54.87579819 124.6608237 55.12856883 C123.36135618 55.15968099 123.36135618 55.15968099 122.03563678 55.19142169 C85.81845819 56.04763503 49.61123655 56.28862679 13.38581896 56.25713766 C8.54470018 56.25336706 3.70360189 56.25473275 -1.13751614 56.25893992 C-37.54736405 56.2897151 -73.93855151 56.02008257 -110.3391763 55.12856883 C-111.13730488 55.10912966 -111.93543347 55.0896905 -112.75774777 55.06966227 C-121.93232606 54.84392524 -131.10477968 54.57011222 -140.2766763 54.25356883 C-142.09543271 54.19204127 -142.09543271 54.19204127 -143.95093167 54.12927073 C-230.78024891 51.15748179 -230.78024891 51.15748179 -273.2766763 45.19106883 C-274.34297268 45.04548533 -275.40926907 44.89990184 -276.50787747 44.74990672 C-285.0333443 43.4591632 -295.20086013 41.66290539 -301.3391763 35.12856883 C-303.81518961 30.96436462 -303.49701272 27.75991451 -302.3391763 23.12856883 C-299.34968056 17.77238896 -294.92272056 15.99430812 -289.3391763 14.12856883 C-279.16022559 11.70482593 -268.85724242 10.25931051 -258.4641763 9.12856883 C-257.71262265 9.045525 -256.961069 8.96248118 -256.18674099 8.87692088 C-219.19318577 4.84188602 -181.8787295 3.64967351 -144.71204007 2.22103709 C-141.44035674 2.09354268 -138.16908298 1.95660564 -134.89777005 1.81997508 C-89.95115483 0.00097352 -44.97455987 -0.03400561 0 0 Z " fill="#F7F7F7" transform="translate(564.3391762971878,1019.8714311718941)"/>
<path d="M0 0 C1.70349609 0.03673828 1.70349609 0.03673828 3.44140625 0.07421875 C5.91699978 0.27110428 8.06895335 0.60019868 10.4375 1.3125 C10.4375 1.9725 10.4375 2.6325 10.4375 3.3125 C11.13875 3.539375 11.84 3.76625 12.5625 4 C17.9064671 6.43963716 21.95598085 9.95764288 24.4375 15.3125 C27.4053723 26.3745695 24.81470771 37.3258383 21.80859375 48.046875 C21.42205078 49.46900562 21.03688916 50.89151232 20.65299988 52.31436157 C19.62372237 56.11512889 18.57641282 59.91070316 17.52558136 63.70555878 C16.43164298 67.66870409 15.35482973 71.63649246 14.27685547 75.60400391 C12.73985581 81.25595765 11.19801359 86.90654337 9.64966583 92.55539894 C7.06752511 101.97793744 4.5249219 111.41041875 2.01171875 120.8515625 C1.67214645 122.12628418 1.33257416 123.40100586 0.98271179 124.71435547 C-0.29831071 129.52546141 -1.57827953 134.33684724 -2.85794067 139.14831543 C-5.93479933 150.7039394 -9.05148258 162.23279547 -12.51855469 173.67822266 C-13.62718763 177.53769646 -14.54203167 181.39853919 -15.4375 185.3125 C-17.4550544 192.88435755 -20.36831526 198.42332782 -26.91015625 202.9296875 C-31.74261761 205.71129941 -36.00226046 207.47715291 -41.625 207.6875 C-42.94177734 207.76097656 -42.94177734 207.76097656 -44.28515625 207.8359375 C-54.96792731 206.12974999 -62.06087496 198.52974699 -69.34277344 191.16333008 C-70.48617086 190.02508022 -71.63063628 188.88790235 -72.77607727 187.75170898 C-75.8638685 184.68233409 -78.93584343 181.59757941 -82.00455379 178.50914216 C-85.23034403 175.26688127 -88.46881109 172.03732302 -91.7053833 168.80583191 C-97.13746109 163.37826601 -102.55929458 157.94062856 -107.97509766 152.49682617 C-114.22031387 146.21957048 -120.4813957 139.95849199 -126.75126815 133.70587045 C-132.80258608 127.6704641 -138.84248639 121.62375342 -144.87732697 115.57187462 C-147.43650587 113.00585593 -149.99954387 110.443788 -152.5658493 107.88489723 C-155.59240407 104.86605251 -158.60876508 101.83736488 -161.61781883 98.8010788 C-162.7180622 97.6939995 -163.82164109 96.59022265 -164.92892647 95.49018669 C-180.32597165 80.18229899 -180.32597165 80.18229899 -181.2890625 71.3359375 C-180.98853936 60.54022149 -179.25649043 54.69711787 -171.83203125 46.953125 C-164.50761953 41.65836954 -155.71311504 39.90927038 -147.0625 37.875 C-138.97078644 35.9245681 -130.94492541 33.92197323 -123 31.4375 C-116.88101448 29.53925007 -110.97934805 28.46495211 -104.5625 28.3125 C-104.5625 27.6525 -104.5625 26.9925 -104.5625 26.3125 C-103.76142822 26.11615967 -102.96035645 25.91981934 -102.13500977 25.7175293 C-99.1206026 24.976824 -96.10704375 24.23277901 -93.09399414 23.48657227 C-91.16549844 23.01000786 -89.23607814 22.53718999 -87.30664062 22.06445312 C-81.25865465 20.56429995 -75.30704569 19.03812497 -69.46484375 16.85742188 C-66.14128672 15.90539681 -62.99350116 16.12535448 -59.5625 16.3125 C-59.5625 15.6525 -59.5625 14.9925 -59.5625 14.3125 C-55.9325 13.9825 -52.3025 13.6525 -48.5625 13.3125 C-48.5625 12.6525 -48.5625 11.9925 -48.5625 11.3125 C-47.78237549 11.12139648 -47.00225098 10.93029297 -46.19848633 10.73339844 C-42.58968715 9.84699864 -38.98235023 8.95477744 -35.375 8.0625 C-34.14845703 7.76214844 -32.92191406 7.46179688 -31.65820312 7.15234375 C-25.57126258 5.64265401 -19.57655922 4.03060308 -13.609375 2.09765625 C-8.84714802 0.60107067 -4.97882408 -0.16730695 0 0 Z " fill="#010101" transform="translate(716.5625,572.6875)"/>
<path d="M0 0 C6.49906109 0.00569656 12.99808118 0.00229687 19.49714088 -0.00343895 C64.64709619 -0.03717337 109.80074284 0.39719661 154.92529297 2.00537109 C156.10264008 2.04605713 157.27998718 2.08674316 158.49301147 2.12866211 C176.8766359 2.76951476 195.24591856 3.61935936 213.61279297 4.63037109 C215.26000336 4.72001129 215.26000336 4.72001129 216.94049072 4.8114624 C231.42714983 5.60950393 245.86022775 6.72184582 260.30029297 8.13037109 C260.30029297 8.46037109 260.30029297 8.79037109 260.30029297 9.13037109 C244.85167829 10.46612 229.40245979 11.67806338 213.92529297 12.63037109 C212.39024612 12.72508698 212.39024612 12.72508698 210.82418823 12.82171631 C193.34576119 13.88555827 175.8627635 14.65063342 158.36279297 15.25537109 C157.27371643 15.29380127 156.18463989 15.33223145 155.06256104 15.37182617 C146.47628398 15.66966676 137.88884443 15.90999651 129.30029297 16.13037109 C128.08308815 16.1622093 128.08308815 16.1622093 126.84129333 16.1946907 C88.81182342 17.18376727 50.78903064 17.3327505 12.74955225 17.31859541 C10.40464296 17.31786466 8.05973407 17.31761896 5.71482468 17.3175087 C-45.10872324 17.31387087 -95.90590561 17.04278487 -146.69970703 15.13037109 C-147.43633827 15.10271164 -148.17296951 15.07505219 -148.93192291 15.04655457 C-181.23573572 13.82616658 -213.52070517 12.31043769 -245.69970703 9.13037109 C-242.46066073 7.23826175 -239.85302913 6.79699912 -236.12670898 6.56787109 C-234.42593201 6.45755806 -234.42593201 6.45755806 -232.6907959 6.34501648 C-231.45236938 6.2741835 -230.21394287 6.20335052 -228.93798828 6.13037109 C-227.63373901 6.0497493 -226.32948975 5.9691275 -224.98571777 5.88606262 C-221.41037287 5.66678523 -217.83439363 5.46045351 -214.25806046 5.25799942 C-212.00405388 5.12990776 -209.75023091 4.99892666 -207.49642944 4.86727905 C-185.51115865 3.58874938 -163.52437057 2.60835232 -141.51220703 1.94287109 C-140.31504059 1.90621338 -139.11787415 1.86955566 -137.88442993 1.83178711 C-129.34862521 1.57723484 -120.81206832 1.37048032 -112.27451324 1.18606567 C-110.46885504 1.14700822 -108.66320703 1.10747781 -106.85756683 1.06759644 C-71.23671979 0.28282643 -35.62918474 -0.0314534 0 0 Z " fill="#696969" transform="translate(563.69970703125,1039.86962890625)"/>
<path d="M0 0 C3.3532136 4.06717535 2.7398941 9.98676811 2.3190918 15.00585938 C2.1241681 16.88377897 1.91963681 18.76071871 1.70703125 20.63671875 C1.59937943 21.65608521 1.4917276 22.67545166 1.3808136 23.72570801 C1.03586236 26.97827802 0.67872374 30.22935697 0.3203125 33.48046875 C-0.02365692 36.660545 -0.36492939 39.84088971 -0.70407104 43.02148438 C-0.93002768 45.14020677 -1.15815747 47.25869853 -1.38845825 49.37695312 C-1.96896405 54.80714552 -2.47965027 60.23278514 -2.87646484 65.6796875 C-2.95680466 66.76350708 -3.03714447 67.84732666 -3.11991882 68.96398926 C-3.26736634 71.01815799 -3.40444951 73.0731079 -3.52912903 75.12878418 C-3.92954873 80.70605642 -4.65186577 85.05198222 -7.3671875 89.98046875 C-11.11766232 92.48078529 -12.92575016 92.51650429 -17.3671875 91.98046875 C-19.66912842 89.87278748 -19.66912842 89.87278748 -22.3671875 86.98046875 C-23.42091845 85.92799447 -24.47994025 84.88079951 -25.54327393 83.83802795 C-26.12086456 83.26766312 -26.6984552 82.69729828 -27.29354858 82.10964966 C-27.90985138 81.50120209 -28.52615417 80.89275452 -29.16113281 80.26586914 C-35.89303181 73.61559715 -42.61224254 66.95265374 -49.32432938 60.28238773 C-53.38090682 56.25197884 -57.44205896 52.22640525 -61.51367188 48.21118164 C-65.45961427 44.31952456 -69.39325142 40.415814 -73.3186264 36.50341606 C-74.81499788 35.01627862 -76.31576138 33.53354696 -77.820961 32.05534554 C-79.92269562 29.98986038 -82.00830446 27.90929887 -84.09082031 25.82446289 C-84.71522003 25.21803955 -85.33961975 24.61161621 -85.98294067 23.98681641 C-89.42562367 20.50234956 -91.33405074 18.1230853 -91.3671875 12.98046875 C-89.9296875 9.73046875 -89.9296875 9.73046875 -87.3671875 6.98046875 C-80.10352251 4.50995276 -72.60253096 4.39726241 -64.9921875 3.98046875 C-57.44289464 3.56448731 -50.13086332 3.09876872 -42.74072266 1.46191406 C-38.44652591 0.59088382 -34.10304941 0.23360743 -29.7421875 -0.14453125 C-28.79230957 -0.22727295 -27.84243164 -0.31001465 -26.86376953 -0.39526367 C-5.06045839 -2.17950436 -5.06045839 -2.17950436 0 0 Z " fill="#FBFBFB" transform="translate(333.3671875,625.01953125)"/>
<path d="M0 0 C0.01280806 2.35156052 0.02428055 4.70311772 0.03515625 7.0546875 C0.03925003 7.80590378 0.04334381 8.55712006 0.04756165 9.33110046 C0.06634556 13.60951119 0.05699908 17.88565771 0.00439453 22.16381836 C-0.08545644 30.54750769 -0.08769257 38.83360392 0.61184692 47.19387817 C3.02946897 76.76124504 3.02946897 76.76124504 -5.75091553 88.06938171 C-13.13157818 96.68532301 -21.72153323 104.46802051 -31 111 C-31.66 111 -32.32 111 -33 111 C-33.05373092 99.67682875 -33.06734995 88.3544924 -33.02334595 77.03125 C-33.00542121 72.1360784 -32.99939507 67.24180456 -33.03076172 62.34667969 C-33.05866489 57.96834678 -33.04910014 53.5916829 -33.01119995 49.21343994 C-33.00377995 47.58140403 -33.01021616 45.94924175 -33.03103638 44.31732178 C-33.17809095 31.7887888 -33.17809095 31.7887888 -30.57202148 27.83178711 C-28.68359375 26.19921875 -28.68359375 26.19921875 -26.49560547 24.71923828 C-23.38111698 22.5736476 -20.8476562 19.9836445 -18.22265625 17.28515625 C-17.20565045 16.25919797 -16.18806675 15.23381225 -15.16992188 14.20898438 C-14.13382325 13.16044405 -13.09801922 12.11161254 -12.0625 11.0625 C-9.99372962 8.96721097 -7.92170002 6.87522387 -5.84765625 4.78515625 C-4.94023682 3.86613525 -4.03281738 2.94711426 -3.09790039 2.00024414 C-1 0 -1 0 0 0 Z " fill="#F7F7F7" transform="translate(493,487)"/>
<path d="M0 0 C0.01284961 2.09764963 0.02422877 4.19530823 0.03515625 6.29296875 C0.03925003 6.96925827 0.04334381 7.64554779 0.04756165 8.34233093 C0.06648176 12.23776519 0.05661009 16.13071526 0.00439453 20.02587891 C-0.09061878 28.2221217 -0.03789895 36.3138094 0.61184692 44.48931885 C3.16809472 77.76411859 3.16809472 77.76411859 -7.67578125 90.52734375 C-14.61602785 98.17194295 -22.49065501 105.14610314 -31 111 C-31.66 111 -32.32 111 -33 111 C-33.01273514 108.04427247 -33.0241873 105.08854677 -33.03515625 102.1328125 C-33.03929535 101.20407822 -33.04343445 100.27534393 -33.04769897 99.31846619 C-33.06642567 94.13661902 -33.05746825 88.95676365 -33.00219727 83.77514648 C-32.91275969 74.27203007 -32.88618855 64.92365242 -33.8671875 55.46484375 C-34.92360299 43.38398469 -35.08373874 34.05402071 -27.06520081 24.28105164 C-5.6049327 0 -5.6049327 0 0 0 Z " fill="#F8F8F8" transform="translate(413,567)"/>
<path d="M0 0 C0.01277479 2.60546694 0.02424584 5.21093125 0.03515625 7.81640625 C0.03925003 8.64254929 0.04334381 9.46869232 0.04756165 10.31987 C0.06623329 14.98126995 0.05732874 19.64059028 0.00439453 24.30175781 C-0.08100557 32.87157761 -0.14289855 41.35502364 0.61184692 49.8984375 C2.9655772 76.83176693 2.9655772 76.83176693 -5.75091553 87.87698364 C-13.19368443 96.49374037 -21.75755107 104.34498017 -31 111 C-31.66 111 -32.32 111 -33 111 C-33.02559232 108.5638084 -33.04903034 106.12763761 -33.0703125 103.69140625 C-33.0771405 102.91521439 -33.08396851 102.13902252 -33.09100342 101.33930969 C-33.12279552 96.93320172 -33.12271677 92.52953275 -33.07470703 88.12353516 C-33.05496661 86.25293018 -33.03527329 84.3823247 -33.015625 82.51171875 C-33.00493988 81.56125671 -32.99425476 80.61079468 -32.98324585 79.63153076 C-32.94389222 74.03316729 -33.10375456 68.49156835 -33.45378113 62.90460205 C-34.38208768 47.1832022 -35.02805656 33.22826217 -24.22265625 20.75390625 C-5.17752446 0 -5.17752446 0 0 0 Z " fill="#F8F8F8" transform="translate(573,407)"/>
<path d="M0 0 C-2.9933372 6.35502285 -6.9123918 12.25975874 -10.67138672 18.18115234 C-11.63345734 19.71587635 -12.57786272 21.26182963 -13.50341797 22.81884766 C-22.02773195 37.11936582 -22.02773195 37.11936582 -29.58874512 39.354599 C-32.32128907 39.94599767 -35.04951404 40.36496059 -37.82403564 40.70465088 C-40.84954656 41.11531109 -43.79948254 41.78282377 -46.77789307 42.44721985 C-49.11620965 42.96810657 -51.45884766 43.46017343 -53.80517578 43.94360352 C-54.98808197 44.18761398 -54.98808197 44.18761398 -56.19488525 44.43655396 C-57.39779205 44.68452225 -57.39779205 44.68452225 -58.625 44.9375 C-61.96927922 45.63028493 -65.31299512 46.32572632 -68.65625 47.0234375 C-69.46659698 47.19253128 -70.27694397 47.36162506 -71.11184692 47.5358429 C-78.6911306 49.12720915 -86.24023964 50.84833476 -93.75634766 52.71655273 C-97.56081203 53.62682575 -100.25502895 54.16009864 -104 53 C-100.82916063 48.20392925 -97.64490138 43.41716481 -94.44799805 38.63842773 C-93.36290107 37.01232107 -92.28147912 35.38375569 -91.20385742 33.75268555 C-89.65207774 31.40534155 -88.0871913 29.06722757 -86.51953125 26.73046875 C-86.04224075 26.00224411 -85.56495026 25.27401947 -85.07319641 24.52372742 C-80.23608986 17.36973507 -75.45037389 15.59382356 -67.1953125 13.984375 C-66.33086014 13.80758713 -65.46640778 13.63079926 -64.57575989 13.44865417 C-61.76043716 12.87422892 -58.9427688 12.31229039 -56.125 11.75 C-52.23213456 10.95899716 -48.34066511 10.16123233 -44.44921875 9.36328125 C-43.47853958 9.16509293 -42.50786041 8.9669046 -41.50776672 8.76271057 C-31.30918628 6.67223191 -21.16101156 4.37554904 -11.01806641 2.03222656 C-9.84550293 1.76249023 -8.67293945 1.49275391 -7.46484375 1.21484375 C-5.94298462 0.86087524 -5.94298462 0.86087524 -4.39038086 0.49975586 C-2 0 -2 0 0 0 Z " fill="#F9F9F9" transform="translate(556,245)"/>
<path d="M0 0 C-16.76850384 34.80433024 -16.76850384 34.80433024 -29.4609375 40.0078125 C-34.32937398 41.22774252 -39.25196539 41.4510484 -44.25195312 41.67529297 C-51.35130614 42.29033593 -58.26399803 44.01868997 -65.20947266 45.56491089 C-67.68717146 46.11114871 -70.16826575 46.63620687 -72.65234375 47.15258789 C-80.33196438 48.75030875 -87.95774492 50.41142 -95.52832031 52.47998047 C-98.08833704 53.01858533 -100.39177884 53.09419552 -103 53 C-102.58258545 52.26910156 -102.58258545 52.26910156 -102.15673828 51.5234375 C-100.15991496 47.9821144 -98.21669553 44.4652539 -96.49902344 40.77734375 C-91.57271102 30.31740572 -85.76166477 18.40544627 -74.41748047 13.94287109 C-63.75605049 10.4764394 -52.49165037 9.18602038 -41.41210938 7.76367188 C-34.04999489 6.78367355 -26.8610021 5.12250121 -19.63729858 3.42398071 C-16.38982645 2.66254171 -13.13573333 1.93533083 -9.87890625 1.21484375 C-8.30991577 0.86087524 -8.30991577 0.86087524 -6.70922852 0.49975586 C-4 0 -4 0 0 0 Z " fill="#F9F9F9" transform="translate(430,433)"/>
<path d="M0 0 C-0.38466431 0.76437378 -0.38466431 0.76437378 -0.77709961 1.54418945 C-1.73479572 3.46742066 -2.6697826 5.40196349 -3.59594727 7.34057617 C-17.25673851 35.1987731 -17.25673851 35.1987731 -30.80819702 40.16610718 C-40.1518681 42.97289287 -49.86900374 44.12188699 -59.53076172 45.26953125 C-67.79802181 46.29786838 -75.89055035 48.18642388 -84.01416016 49.99923706 C-88.04507418 50.89019534 -92.08677629 51.7280921 -96.12890625 52.56640625 C-97.47341877 52.84694239 -98.8179046 53.12760649 -100.16235352 53.40844727 C-101.56698853 53.70126587 -101.56698853 53.70126587 -103 54 C-100.54808612 47.29270503 -96.75343799 41.28481172 -93.03051758 35.22558594 C-92.14412527 33.75669806 -91.28203748 32.27283173 -90.4465332 30.77441406 C-86.65845889 24.00640795 -82.98543368 17.71623475 -75.36010742 15.04931641 C-70.90181132 13.83907342 -66.39407684 13.09323902 -61.82565308 12.43273926 C-58.0863669 11.86008017 -54.41310238 11.0598924 -50.71888733 10.25115967 C-47.96822595 9.64917769 -45.21328668 9.07413309 -42.45507812 8.5078125 C-41.54701416 8.3212207 -40.6389502 8.13462891 -39.70336914 7.94238281 C-38.79063232 7.75514648 -37.87789551 7.56791016 -36.9375 7.375 C-33.23766373 6.61493994 -29.53838305 5.85228461 -25.83984375 5.0859375 C-24.96975677 4.90601257 -24.0996698 4.72608765 -23.20321655 4.54071045 C-17.51755173 3.3524078 -11.88582119 2.02754707 -6.27954102 0.50244141 C-4 0 -4 0 0 0 Z " fill="#F9F9F9" transform="translate(493,339)"/>
<path d="M0 0 C-17.09923745 34.55142836 -17.09923745 34.55142836 -29.953125 39.38671875 C-35.69784207 40.87384662 -41.52566599 41.66526435 -47.42344666 42.24691772 C-55.66698423 43.06924916 -63.66309625 44.95016109 -71.73709106 46.75561523 C-75.71870929 47.63798009 -79.70998572 48.47236117 -83.703125 49.30078125 C-84.43008072 49.45201447 -85.15703644 49.60324768 -85.90602112 49.75906372 C-91.58746733 50.93290781 -97.28302031 52.0124505 -103 53 C-102.41508789 51.989375 -101.83017578 50.97875 -101.22753906 49.9375 C-99.50918587 46.93457463 -97.9011877 43.88687851 -96.3144989 40.8120575 C-83.8783378 17.21821914 -83.8783378 17.21821914 -73.1022644 13.21438599 C-65.80704988 10.99942943 -58.3068936 10.11236955 -50.73339844 9.41821289 C-45.9508223 8.88247179 -41.38505147 7.8206138 -36.72387695 6.64746094 C-34.34040025 6.08091256 -32.05703643 5.6979823 -29.625 5.4375 C-26.64449429 5.07778379 -24.0446013 4.48237817 -21.1875 3.609375 C-18.10664023 2.75113549 -14.99773661 2.06460433 -11.875 1.375 C-10.69679688 1.11460937 -9.51859375 0.85421875 -8.3046875 0.5859375 C-5.43653981 0.07740068 -2.89968035 -0.12036409 0 0 Z " fill="#FAFAFA" transform="translate(367,527)"/>
<path d="M0 0 C0.66 0 1.32 0 2 0 C1.99361763 0.86520012 1.99361763 0.86520012 1.98710632 1.74787903 C1.96938594 4.56759421 1.95840371 7.38727499 1.94921875 10.20703125 C1.94508469 11.28161087 1.94095062 12.35619049 1.93669128 13.46333313 C1.93332594 20.47642111 2.12318273 27.45660024 2.43716431 34.46209717 C4.29842593 80.06790808 4.29842593 80.06790808 -8.43778992 94.36875916 C-14.59672446 100.68794376 -21.46023284 106.4042465 -29 111 C-29.66 111 -30.32 111 -31 111 C-31 109.51839193 -31 108.03678385 -31 106.55517578 C-31.00008057 105.57757294 -31.00016113 104.59997009 -31.00024414 103.59274292 C-31.00007846 101.37197862 -30.99924221 99.15121428 -30.99780273 96.93045044 C-30.99488087 90.88673761 -31.00310434 84.84343964 -31.03515625 78.79980469 C-31.06469924 72.72369458 -31.05024807 66.64879885 -31.01220703 60.57275391 C-31.00396264 58.07536402 -31.01051577 55.57788783 -31.03076172 53.08056641 C-31.05783281 49.4041216 -31.03406543 45.73101025 -31 42.0546875 C-31.0194165 40.94431122 -31.03883301 39.83393494 -31.05883789 38.68991089 C-30.918473 31.17201663 -30.918473 31.17201663 -28.34007263 27.8818512 C-26.3070059 26.10330955 -24.20981861 24.55059396 -22 23 C-20.20126647 21.28379861 -18.41930081 19.54972711 -16.66015625 17.79296875 C-15.74298828 16.87708984 -14.82582031 15.96121094 -13.88085938 15.01757812 C-12.95080078 14.08365234 -12.02074219 13.14972656 -11.0625 12.1875 C-10.09587098 11.22444087 -9.1290751 10.26154919 -8.16210938 9.29882812 C-7.25396484 8.38939453 -6.34582031 7.47996094 -5.41015625 6.54296875 C-4.58652588 5.71821045 -3.76289551 4.89345215 -2.91430664 4.04370117 C-0.9539448 2.14544066 -0.9539448 2.14544066 0 0 Z " fill="#FAFAFA" transform="translate(652,326)"/>
<path d="M0 0 C3.0688445 1.51099742 5.81125096 3.4393565 8.609375 5.3984375 C9.82140594 6.22367416 9.82140594 6.22367416 11.05792236 7.06558228 C13.63103972 8.82252584 16.19026995 10.59862525 18.75 12.375 C20.48744321 13.56372581 22.225716 14.75124008 23.96484375 15.9375 C27.13868853 18.1106255 30.31122554 20.28546173 33.47167969 22.47802734 C34.42382355 23.13754898 34.42382355 23.13754898 35.39520264 23.81039429 C37 25 37 25 39 27 C39.43584952 30.85000409 39.46014122 33.1936327 37.52075195 36.59228516 C34.04907601 39.90828207 30.92317497 40.37204073 26.29296875 41.2109375 C25.42719208 41.38489548 24.56141541 41.55885345 23.66940308 41.73808289 C20.8453528 42.30189638 18.0168131 42.83828548 15.1875 43.375 C12.26346827 43.9519617 9.34086761 44.53582841 6.41825867 45.11994934 C4.45413612 45.51193436 2.48954247 45.90156603 0.52449036 46.28886414 C-9.63689057 48.29763339 -19.72165145 50.60710094 -29.8059082 52.96826172 C-31.5552063 53.37262451 -31.5552063 53.37262451 -33.33984375 53.78515625 C-34.34394287 54.02113525 -35.34804199 54.25711426 -36.38256836 54.50024414 C-39 55 -39 55 -43 55 C-41.71221836 51.53256882 -40.21037449 48.55719153 -38.17431641 45.47265625 C-37.60677643 44.60825928 -37.03923645 43.7438623 -36.45449829 42.85327148 C-35.84302948 41.93231689 -35.23156067 41.0113623 -34.6015625 40.0625 C-33.97019379 39.10480713 -33.33882507 38.14711426 -32.68832397 37.16040039 C-31.35393205 35.1383935 -30.01734165 33.11783599 -28.67871094 31.09863281 C-26.63464524 28.01455271 -24.59803212 24.92565477 -22.5625 21.8359375 C-21.26345955 19.86950178 -19.96399443 17.90334652 -18.6640625 15.9375 C-18.05664215 15.01654541 -17.4492218 14.09559082 -16.82339478 13.14672852 C-7.51145328 -0.88009732 -7.51145328 -0.88009732 0 0 Z " fill="#FAFAFA" transform="translate(559,150)"/>
<path d="M0 0 C1.78344727 1.18945312 1.78344727 1.18945312 3.50390625 2.78125 C4.18984863 3.41289062 4.87579102 4.04453125 5.58251953 4.6953125 C6.38028809 5.45585937 7.17805664 6.21640625 8 7 C8.47266296 7.44633789 8.94532593 7.89267578 9.43231201 8.35253906 C12.73400692 11.47409382 15.99379998 14.63508522 19.22973633 17.82470703 C20.37464914 18.94785095 21.52579305 20.06467575 22.68286133 21.17529297 C24.37494185 22.8003958 26.04641359 24.44441662 27.71484375 26.09375 C28.23143051 26.5825061 28.74801727 27.07126221 29.28025818 27.5748291 C31.86230607 30.17197092 33.01687081 32.05853577 34.03759766 35.60009766 C33.99305376 39.62813877 33.48971062 40.50550095 30.68359375 43.3046875 C29.43618408 44.58037598 29.43618408 44.58037598 28.16357422 45.88183594 C27.42624054 46.60711487 27.42624054 46.60711487 26.67401123 47.3470459 C24.76113156 49.23586375 22.88262457 51.15583016 21.00439453 53.07910156 C17.18530867 56.9789356 13.33714615 60.84855121 9.47729492 64.70800781 C7.03862413 67.14889759 4.60810355 69.59772249 2.17773438 72.046875 C0.63069646 73.59684153 -0.91681212 75.14633845 -2.46484375 76.6953125 C-3.55538307 77.7966301 -3.55538307 77.7966301 -4.66795349 78.92019653 C-5.33947952 79.58864594 -6.01100555 80.25709534 -6.70288086 80.94580078 C-7.29306503 81.53740997 -7.88324921 82.12901917 -8.49131775 82.73855591 C-10 84 -10 84 -12 84 C-12.02587724 76.64323704 -12.04308113 69.28648626 -12.05493164 61.9296875 C-12.05988463 59.43977419 -12.06664883 56.94986366 -12.07543945 54.45996094 C-12.10041295 47.19120476 -12.09008726 39.92395756 -12.02813721 32.65539551 C-12.00912888 30.18596199 -11.9983927 27.71645299 -11.99530029 25.24694824 C-11.98425883 21.64010857 -11.93301987 18.03596955 -11.87109375 14.4296875 C-11.87399918 13.33576691 -11.8769046 12.24184631 -11.87989807 11.11477661 C-11.69239486 3.70121086 -11.69239486 3.70121086 -8.25805664 0.22314453 C-4.75972206 -1.09020551 -3.43621566 -1.3543006 0 0 Z " fill="#F7F7F7" transform="translate(713,273)"/>
<path d="M0 0 C4.37162735 0.75158893 7.20104219 2.74441357 9.8515625 6.23828125 C11.08901476 10.56936417 11.07405767 14.14543447 9.1640625 18.23828125 C6.59379412 21.57011063 4.90599659 22.36852337 0.7265625 22.92578125 C-3.75209576 22.84299644 -6.00535117 20.92347542 -9.17578125 17.93359375 C-12.01292866 14.7592781 -11.8709732 11.78421482 -11.78515625 7.69140625 C-11.5234375 5.42578125 -11.5234375 5.42578125 -10.1484375 2.36328125 C-6.68131204 -0.19578754 -4.23207439 -0.21846992 0 0 Z " fill="#070707" transform="translate(265.5234375,636.57421875)"/>
<path d="M0 0 C4.37162735 0.75158893 7.20104219 2.74441357 9.8515625 6.23828125 C11.08901476 10.56936417 11.07405767 14.14543447 9.1640625 18.23828125 C7.4765625 20.42578125 7.4765625 20.42578125 4.4765625 22.42578125 C-0.50985032 22.88748614 -3.59479101 22.6111703 -7.5234375 19.42578125 C-10.31881681 16.17709719 -11.79061229 13.61836276 -12.0234375 9.36328125 C-11.5234375 5.42578125 -11.5234375 5.42578125 -10.1484375 2.42578125 C-6.68365976 -0.21404941 -4.2724311 -0.22055323 0 0 Z " fill="#080808" transform="translate(313.5234375,683.57421875)"/>
<path d="M0 0 C1.18916016 0.01353516 1.18916016 0.01353516 2.40234375 0.02734375 C4.35169281 0.05082988 6.30088575 0.08669863 8.25 0.125 C8.58 1.115 8.91 2.105 9.25 3.125 C1.82313685 3.22831031 -5.38512596 3.12362699 -12.75 2.125 C-8.77389214 -0.58986934 -4.61098023 -0.09940753 0 0 Z " fill="#808080" transform="translate(330.75,1046.875)"/>
<path d="M0 0 C3.96 0.33 7.92 0.66 12 1 C12 1.33 12 1.66 12 2 C7.38 2.33 2.76 2.66 -2 3 C-1.34 2.01 -0.68 1.02 0 0 Z " fill="#888888" transform="translate(812,1047)"/>
</svg>
